<svg width="25" height="25" viewBox="0 0 25 25" fill="none" xmlns="http://www.w3.org/2000/svg">
<g id="adicionar 1" clip-path="url(#clip0_47_13)">
<path id="Vector" d="M12.5 0C10.0277 0 7.61099 0.733112 5.55538 2.10663C3.49976 3.48015 1.89761 5.43238 0.951511 7.71646C0.00541608 10.0005 -0.242126 12.5139 0.24019 14.9386C0.722505 17.3634 1.91301 19.5907 3.66117 21.3388C5.40933 23.087 7.63661 24.2775 10.0614 24.7598C12.4861 25.2421 14.9995 24.9946 17.2835 24.0485C19.5676 23.1024 21.5199 21.5002 22.8934 19.4446C24.2669 17.389 25 14.9723 25 12.5C24.9964 9.18589 23.6783 6.00855 21.3349 3.66512C18.9915 1.3217 15.8141 0.00358446 12.5 0ZM17.7083 13.5417H13.5417V17.7083H11.4583V13.5417H7.29167V11.4583H11.4583V7.29167H13.5417V11.4583H17.7083V13.5417Z" fill="white"/>
</g>
<defs>
<clipPath id="clip0_47_13">
<rect width="25" height="25" fill="white"/>
</clipPath>
</defs>
</svg>
