<svg width="23" height="23" viewBox="0 0 23 23" fill="none" xmlns="http://www.w3.org/2000/svg">
<g id="pesquisar-alt 1" clip-path="url(#clip0_21_23)">
<path id="Vector" d="M10.3396 16.5302C10.3408 15.3703 10.6826 14.2363 11.3227 13.2691C11.9628 12.3018 12.873 11.5439 13.9401 11.0895C15.0073 10.6351 16.1845 10.5042 17.3254 10.713C18.4663 10.9219 19.5207 11.4613 20.3577 12.2643V3.32455C20.3577 2.59993 20.0698 1.90498 19.5575 1.39259C19.0451 0.880203 18.3501 0.592346 17.6255 0.592346L6.69667 0.592346C5.48941 0.593792 4.332 1.07402 3.47834 1.92768C2.62467 2.78135 2.14444 3.93876 2.143 5.14602V17.8963C2.14444 19.1036 2.62467 20.261 3.47834 21.1146C4.332 21.9683 5.48941 22.4485 6.69667 22.45H16.2594C14.6894 22.45 13.1836 21.8263 12.0735 20.7161C10.9633 19.6059 10.3396 18.1002 10.3396 16.5302ZM6.69667 6.96749C6.69667 6.72595 6.79262 6.4943 6.96342 6.3235C7.13422 6.15271 7.36587 6.05676 7.60741 6.05676H14.8933C15.1348 6.05676 15.3665 6.15271 15.5373 6.3235C15.7081 6.4943 15.804 6.72595 15.804 6.96749C15.804 7.20903 15.7081 7.44068 15.5373 7.61148C15.3665 7.78227 15.1348 7.87823 14.8933 7.87823H7.60741C7.36587 7.87823 7.13422 7.78227 6.96342 7.61148C6.79262 7.44068 6.69667 7.20903 6.69667 6.96749ZM21.9123 22.1831C21.7415 22.3539 21.5099 22.4498 21.2684 22.4498C21.0269 22.4498 20.7953 22.3539 20.6245 22.1831L18.4324 19.991C17.7832 20.4053 17.0295 20.6265 16.2594 20.6285C15.4488 20.6285 14.6565 20.3882 13.9825 19.9378C13.3085 19.4875 12.7832 18.8474 12.473 18.0986C12.1629 17.3497 12.0817 16.5257 12.2398 15.7307C12.398 14.9357 12.7883 14.2054 13.3614 13.6323C13.9346 13.0591 14.6649 12.6688 15.4598 12.5106C16.2548 12.3525 17.0789 12.4337 17.8277 12.7439C18.5766 13.0541 19.2167 13.5793 19.667 14.2533C20.1173 14.9273 20.3577 15.7196 20.3577 16.5302C20.3556 17.3004 20.1345 18.054 19.7202 18.7032L21.9123 20.8954C22.0831 21.0661 22.179 21.2978 22.179 21.5392C22.179 21.7807 22.0831 22.0124 21.9123 22.1831Z" fill="white"/>
</g>
<defs>
<clipPath id="clip0_21_23">
<rect width="21.8576" height="21.8576" fill="white" transform="translate(0.321526 0.592346)"/>
</clipPath>
</defs>
</svg>
