<svg width="23" height="23" viewBox="0 0 23 23" fill="none" xmlns="http://www.w3.org/2000/svg">
<g id="cofrinho 1" clip-path="url(#clip0_21_19)">
<path id="Vector" d="M6.71488 4.22072C6.71215 4.1597 6.69667 4.10142 6.69667 4.03949C6.69667 2.02767 8.3278 0.396545 10.3396 0.396545C12.3514 0.396545 13.9825 2.02767 13.9825 4.03949H8.51814C7.90066 4.03949 7.29776 4.10233 6.71488 4.22072ZM22.1792 10.4146V15.879H20.7338C20.1282 17.3672 19.0326 18.6231 17.6255 19.4382V22.2542H13.0718V20.4327H9.42887V22.2542H4.8752V19.4491C2.64481 18.1559 1.23226 15.7424 1.23226 13.1468C1.23226 12.0758 1.47087 11.0603 1.88799 10.1432C0.965415 9.70426 0.321526 8.76984 0.321526 7.68243C0.321526 6.17607 1.54737 4.95022 3.05373 4.95022V6.77169C2.55192 6.77169 2.143 7.1797 2.143 7.68243C2.143 8.11867 2.45811 8.46748 2.86794 8.55582C4.2049 6.91376 6.24039 5.86096 8.51814 5.86096H13.9825C14.0873 5.86096 14.1884 5.88008 14.2931 5.88463C15.3031 3.14332 18.5362 3.12875 18.5362 3.12875V7.5103C19.4861 8.2744 20.263 9.25435 20.7347 10.4146H22.1792ZM17.6255 11.3254C17.6255 10.8226 17.2175 10.4146 16.7148 10.4146C16.212 10.4146 15.804 10.8226 15.804 11.3254C15.804 11.8281 16.212 12.2361 16.7148 12.2361C17.2175 12.2361 17.6255 11.8281 17.6255 11.3254Z" fill="white"/>
</g>
<defs>
<clipPath id="clip0_21_19">
<rect width="21.8576" height="21.8576" fill="white" transform="translate(0.321526 0.396545)"/>
</clipPath>
</defs>
</svg>
