<svg width="23" height="22" viewBox="0 0 23 22" fill="none" xmlns="http://www.w3.org/2000/svg">
<g id="definicoes 1" clip-path="url(#clip0_21_21)">
<path id="Vector" d="M19.4474 11.0385C19.4471 10.5361 19.4014 10.0346 19.3107 9.54039L22.0821 7.94205L19.3499 3.20622L16.5776 4.80821C15.8122 4.15332 14.9326 3.64514 13.9829 3.30914V0.109726H8.51853V3.30914C7.56887 3.64514 6.68928 4.15332 5.92385 4.80821L3.15157 3.20622L0.419365 7.94205L3.19073 9.54039C3.00868 10.5309 3.00868 11.5462 3.19073 12.5367L0.419365 14.135L3.15157 18.8709L5.92385 17.2698C6.68935 17.9244 7.56894 18.4322 8.51853 18.768V21.9674H13.9829V18.768C14.9326 18.4319 15.8122 17.9238 16.5776 17.2689L19.3499 18.8709L22.0821 14.135L19.3107 12.5367C19.4014 12.0425 19.4471 11.541 19.4474 11.0385ZM13.9829 11.0385C13.9829 11.5789 13.8227 12.1072 13.5225 12.5565C13.2223 13.0058 12.7956 13.356 12.2963 13.5628C11.7971 13.7696 11.2477 13.8237 10.7177 13.7183C10.1877 13.6128 9.70088 13.3526 9.31878 12.9705C8.93667 12.5884 8.67645 12.1016 8.57103 11.5716C8.46561 11.0416 8.51971 10.4922 8.72651 9.99298C8.9333 9.49373 9.28349 9.06702 9.7328 8.7668C10.1821 8.46658 10.7104 8.30634 11.2507 8.30634C11.9754 8.30634 12.6703 8.5942 13.1827 9.10658C13.6951 9.61897 13.9829 10.3139 13.9829 11.0385Z" fill="white"/>
</g>
<defs>
<clipPath id="clip0_21_21">
<rect width="21.8576" height="21.8576" fill="white" transform="translate(0.321526 0.109726)"/>
</clipPath>
</defs>
</svg>
