<svg width="23" height="23" viewBox="0 0 23 23" fill="none" xmlns="http://www.w3.org/2000/svg">
<g id="layout-fluido 1" clip-path="url(#clip0_21_29)">
<g id="Group">
<path id="Vector" d="M2.14301 10.2188H12.1611C13.167 10.2188 13.9825 9.40326 13.9825 8.3973V2.02217C13.9825 1.0162 13.167 0.200684 12.1611 0.200684H2.14301C1.13705 0.200684 0.321526 1.0162 0.321526 2.02217V8.3973C0.321526 9.40326 1.13705 10.2188 2.14301 10.2188Z" fill="white"/>
<path id="Vector_2" d="M21.8677 1.00395C21.5292 0.501824 20.9632 0.200769 20.3577 0.200684H17.6255C16.6195 0.200684 15.804 1.0162 15.804 2.02217V8.3973C15.804 9.40326 16.6195 10.2188 17.6255 10.2188H20.3577C21.3637 10.2188 22.1792 9.40326 22.1792 8.3973V2.02217C22.1798 1.65921 22.0712 1.30445 21.8677 1.00395Z" fill="white"/>
<path id="Vector_3" d="M5.89339 12.3517C5.59289 12.1482 5.23813 12.0397 4.87517 12.0403H2.14297C1.13705 12.0403 0.321526 12.8558 0.321526 13.8617V20.2369C0.321526 21.2429 1.13705 22.0584 2.14301 22.0584H4.87522C5.88118 22.0584 6.6967 21.2428 6.6967 20.2369V13.8617C6.69657 13.2562 6.39552 12.6903 5.89339 12.3517Z" fill="white"/>
<path id="Vector_4" d="M21.3759 12.3517C21.0754 12.1482 20.7206 12.0397 20.3577 12.0403H10.3396C9.33366 12.0403 8.51814 12.8558 8.51814 13.8617V20.2369C8.51814 21.2429 9.33366 22.0584 10.3396 22.0584H20.3577C21.3637 22.0584 22.1792 21.2429 22.1792 20.2369V13.8617C22.1791 13.2562 21.878 12.6903 21.3759 12.3517Z" fill="white"/>
</g>
</g>
<defs>
<clipPath id="clip0_21_29">
<rect width="21.8576" height="21.8576" fill="white" transform="translate(0.321526 0.200684)"/>
</clipPath>
</defs>
</svg>
