<svg width="23" height="23" viewBox="0 0 23 23" fill="none" xmlns="http://www.w3.org/2000/svg">
<g id="megafone 1" clip-path="url(#clip0_21_17)">
<path id="Vector" d="M20.6245 14.9674L18.5408 12.8837L19.8286 11.5959L21.9123 13.6796L20.6245 14.9674ZM21.9123 5.86007L20.6245 4.57229L18.5754 6.62145L19.8632 7.90922L21.9123 5.86007ZM22.1792 8.85912H19.447V10.6806H22.1792V8.85912ZM7.94438 16.145H2.81603L5.64932 22.5201H6.92435C7.34167 22.5199 7.75233 22.4155 8.11906 22.2163C8.48579 22.0171 8.79699 21.7296 9.02441 21.3797C9.25183 21.0297 9.38828 20.6286 9.42138 20.2126C9.45448 19.7966 9.38317 19.3789 9.21394 18.9974L7.94438 16.145ZM16.7148 0.662506V18.8772H14.8933C14.8918 17.6699 14.4116 16.5125 13.5579 15.6589C12.7043 14.8052 11.5469 14.325 10.3396 14.3235H3.05373C2.3291 14.3235 1.63416 14.0357 1.12177 13.5233C0.609382 13.0109 0.321526 12.316 0.321526 11.5913L0.321526 7.94839C0.321526 7.22376 0.609382 6.52881 1.12177 6.01643C1.63416 5.50404 2.3291 5.21618 3.05373 5.21618H10.3396C11.5469 5.21473 12.7043 4.73451 13.5579 3.88084C14.4116 3.02718 14.8918 1.86977 14.8933 0.662506L16.7148 0.662506Z" fill="white"/>
</g>
<defs>
<clipPath id="clip0_21_17">
<rect width="21.8576" height="21.8576" fill="white" transform="translate(0.321526 0.662506)"/>
</clipPath>
</defs>
</svg>
