<svg width="23" height="23" viewBox="0 0 23 23" fill="none" xmlns="http://www.w3.org/2000/svg">
<g id="saida 1" clip-path="url(#clip0_21_25)">
<g id="Group">
<path id="Vector" d="M21.1145 9.32201L17.5817 5.78927C17.2199 5.43985 16.6434 5.44988 16.2939 5.81169C15.9531 6.16461 15.9531 6.72416 16.2939 7.07708L19.8267 10.6098C19.9317 10.7168 20.0234 10.8361 20.0999 10.965C20.0862 10.965 20.0753 10.9577 20.0617 10.9577L5.77769 10.9869C5.27471 10.9869 4.86697 11.3946 4.86697 11.8976C4.86697 12.4006 5.27471 12.8083 5.77769 12.8083L20.0562 12.7791C20.0817 12.7791 20.1026 12.7664 20.1272 12.7646C20.0465 12.9187 19.944 13.0604 19.8231 13.1854L16.2903 16.7181C15.9285 17.0675 15.9185 17.6441 16.2679 18.0059C16.6173 18.3677 17.1939 18.3777 17.5557 18.0283C17.5633 18.0209 17.5707 18.0135 17.5781 18.0059L21.1108 14.4731C22.533 13.0505 22.533 10.7446 21.1108 9.32201H21.1145Z" fill="white"/>
<path id="Vector_2" d="M6.69841 21.0049H4.87692C3.36798 21.0049 2.14472 19.7816 2.14472 18.2727V5.52244C2.14472 4.01349 3.36798 2.79023 4.87692 2.79023H6.69841C7.20139 2.79023 7.60913 2.3825 7.60913 1.87951C7.60913 1.37653 7.20143 0.96875 6.69841 0.96875H4.87692C2.3633 0.971781 0.326309 3.00877 0.323278 5.52244V18.2727C0.326309 20.7864 2.3633 22.8234 4.87697 22.8264H6.69845C7.20143 22.8264 7.60917 22.4186 7.60917 21.9157C7.60917 21.4127 7.20143 21.0049 6.69841 21.0049Z" fill="white"/>
</g>
</g>
<defs>
<clipPath id="clip0_21_25">
<rect width="21.8576" height="21.8576" fill="white" transform="translate(0.321526 0.96875)"/>
</clipPath>
</defs>
</svg>
