<svg width="141" height="81" viewBox="0 0 141 81" fill="none" xmlns="http://www.w3.org/2000/svg">
<path d="M47.8149 57.5061H41.3599C40.5153 58.5518 40.093 59.8588 40.093 61.4274C40.093 62.9959 40.5354 64.2225 41.4202 65.1073H47.8149V57.5061ZM34.8446 40.6145H49.8057C52.2188 42.0624 53.8074 43.7314 54.5715 45.6217C55.3357 47.4717 55.7177 50.0054 55.7177 53.2229V62.2719C55.7177 65.61 55.7982 68.6666 55.9591 71.4417H49.0818L47.9959 69.2699C46.4274 70.7177 44.2154 71.4417 41.3599 71.4417H37.5593C34.1408 69.1894 32.4315 65.9519 32.4315 61.729C32.4315 57.4659 34.181 54.1077 37.6799 51.6544H43.3507C44.9192 51.6544 46.3872 52.137 47.7546 53.1022V50.0859C47.7546 48.5174 47.0709 47.4717 45.7035 46.9489H34.8446V40.6145ZM76.9534 71.4417H65.7928C63.8624 69.8731 62.3341 67.8019 61.208 65.228C60.0819 62.654 59.5188 59.7985 59.5188 56.6615V40.6145H67.5423V56.4202C67.5423 59.9594 68.2059 62.8551 69.5331 65.1073H73.2131C74.5403 62.7344 75.2039 59.8588 75.2039 56.4805V40.6145H83.2274V56.3599C83.2274 59.5371 82.6643 62.4529 81.5382 65.1073C80.4121 67.7617 78.8838 69.8731 76.9534 71.4417ZM104.261 71.4417H93.1003C91.1698 69.8731 89.6415 67.8019 88.5154 65.228C87.3893 62.654 86.8263 59.7985 86.8263 56.6615V40.6145H94.8498V56.4202C94.8498 59.9594 95.5134 62.8551 96.8406 65.1073H100.521C101.848 62.7344 102.511 59.8588 102.511 56.4805V40.6145H110.535V56.3599C110.535 59.5371 109.972 62.4529 108.846 65.1073C107.72 67.7617 106.191 69.8731 104.261 71.4417ZM114.134 54.4897V40.6145H122.157V54.5501C122.157 58.049 122.861 60.9648 124.269 63.2975H127.828C129.155 61.0051 129.819 58.0893 129.819 54.5501V40.6145H137.842V54.0674C137.842 57.0838 137.44 59.7382 136.636 62.0306C135.872 64.3231 134.605 66.9171 132.835 69.8128L128.793 76.3885C128.069 77.6352 127.305 78.5602 126.501 79.1635C125.696 79.7668 124.651 80.2092 123.364 80.4907H113.832V74.1564H120.347C121.192 73.9151 121.896 73.4928 122.459 72.8895C123.022 72.2862 123.605 71.4215 124.208 70.2954L124.57 69.6318H120.408C118.477 68.0633 116.949 65.9519 115.823 63.2975C114.697 60.6029 114.134 57.667 114.134 54.4897Z" fill="#00F5FF"/>
<path d="M24.4595 7.85618H33.3748V18.6626H15.9044L15.6343 19.2029L30.2229 42.2566C33.1647 46.9994 34.6356 51.0218 34.6356 54.3238C34.6356 60.3874 32.6244 64.83 28.602 67.6517H24.3695V75.3963H14.8238V67.6517H4.73781V57.2055H23.8292L24.0993 56.6652L7.43942 30.8198C5.09803 27.0976 3.92733 23.6756 3.92733 20.5537C3.92733 14.31 6.53888 10.0775 11.762 7.85618H14.9139V0.111574H24.4595V7.85618Z" fill="#00F5FF"/>
<path d="M46.0662 26.9054H39.6112C38.7667 27.9511 38.3444 29.2582 38.3444 30.8267C38.3444 32.3952 38.7868 33.6218 39.6716 34.5066H46.0662V26.9054ZM33.0959 10.0138H48.057C50.4701 11.4617 52.0587 13.1307 52.8229 15.021C53.587 16.871 53.9691 19.4047 53.9691 22.6222V31.6713C53.9691 35.0094 54.0495 38.0659 54.2104 40.841H47.3331L46.2472 38.6692C44.6787 40.117 42.4667 40.841 39.6112 40.841H35.8106C32.3921 38.5888 30.6828 35.3512 30.6828 31.1283C30.6828 26.8652 32.4323 23.507 35.9313 21.0537H41.602C43.1705 21.0537 44.6385 21.5363 46.0059 22.5015V19.4852C46.0059 17.9167 45.3222 16.871 43.9548 16.3482H33.0959V10.0138ZM75.2047 40.841H64.0442C62.1137 39.2725 60.5854 37.2012 59.4593 34.6273C58.3332 32.0533 57.7702 29.1978 57.7702 26.0608V10.0138H65.7937V25.8195C65.7937 29.3587 66.4573 32.2544 67.7845 34.5066H71.4644C72.7916 32.1338 73.4552 29.2582 73.4552 25.8799V10.0138H81.4787V25.7592C81.4787 28.9364 80.9157 31.8522 79.7896 34.5066C78.6635 37.161 77.1352 39.2725 75.2047 40.841ZM98.8996 16.3482H94.375C93.7718 17.0721 93.269 18.0776 92.8669 19.3645C92.5049 20.6515 92.3239 21.8983 92.3239 23.1048H100.951C101.031 21.8983 100.87 20.6515 100.468 19.3645C100.066 18.0373 99.5431 17.0319 98.8996 16.3482ZM107.104 34.5066V40.841H91.781C88.9657 38.9507 86.9749 36.6181 85.8086 33.843C84.6825 31.0278 84.1194 28.1924 84.1194 25.3369C84.1194 18.7411 86.613 13.6335 91.6 10.0138H101.373C104.068 11.9845 105.898 14.0759 106.863 16.2878C107.828 18.4998 108.311 20.7319 108.311 22.9842C108.311 25.2364 108.13 27.1668 107.768 28.7756H92.7462C92.8669 29.7006 93.2087 30.7663 93.7718 31.9729C94.375 33.1392 95.0185 33.9838 95.7022 34.5066H107.104Z" fill="#00F5FF"/>
</svg>
