<svg width="22" height="22" viewBox="0 0 22 22" fill="none" xmlns="http://www.w3.org/2000/svg">
<g id="lock-03">
<path id="Icon" d="M14.892 10.1895V7.56856C14.892 5.15609 12.9363 3.20039 10.5238 3.20039C8.11132 3.20039 6.15563 5.15609 6.15563 7.56856V10.1895M7.72817 18.9258H13.3194C14.7873 18.9258 15.5212 18.9258 16.0818 18.6401C16.575 18.3888 16.9759 17.9879 17.2272 17.4947C17.5129 16.9341 17.5129 16.2002 17.5129 14.7323V14.3829C17.5129 12.9151 17.5129 12.1811 17.2272 11.6205C16.9759 11.1273 16.575 10.7264 16.0818 10.4751C15.5212 10.1895 14.7873 10.1895 13.3194 10.1895H7.72817C6.26033 10.1895 5.52641 10.1895 4.96576 10.4751C4.47261 10.7264 4.07166 11.1273 3.82039 11.6205C3.53473 12.1811 3.53473 12.9151 3.53473 14.3829V14.7323C3.53473 16.2002 3.53473 16.9341 3.82039 17.4947C4.07166 17.9879 4.47261 18.3888 4.96576 18.6401C5.52641 18.9258 6.26033 18.9258 7.72817 18.9258Z" stroke="black" stroke-width="1.74727" stroke-linecap="round" stroke-linejoin="round"/>
</g>
</svg>
