<?xml version="1.0" encoding="utf-8"?>
<svg viewBox="0 0 500 500" xmlns="http://www.w3.org/2000/svg">
  <clipPath id="g1ec46dcd1fb_1_257.0">
    <path d="m0 0l960.0 0l0 540.0l-960.0 0l0 -540.0z" clip-rule="nonzero"/>
  </clipPath>
  <g clip-path="url(#g1ec46dcd1fb_1_257.0)" transform="matrix(0.9999999999999999, 0, 0, 0.9999999999999999, -181.30641174316406, 3.75296688079834)">
    <path fill="#00f5ff" d="M 583.64 435.867 L 583.831 440.698 L 547.762 442.309 L 547.574 437.476 L 583.64 435.867 Z" fill-rule="evenodd" style=""/>
    <path fill="#cccccc" d="M 344.736 39.262 L 361.691 41.2 L 359.131 45.082 L 384.75 75.218 L 423.176 67.199 L 457.214 95.784 L 451.969 100.309 L 421.958 73.148 L 383.528 81.298 L 354.249 52.065 L 351.568 55.815 L 344.736 39.262 Z" fill-rule="evenodd" style=""/>
    <path fill="#efefef" d="M 457.684 224.314 L 457.684 442.806 L 379.381 442.806 L 379.381 224.314 L 457.684 224.314 Z" fill-rule="evenodd" style=""/>
    <path fill="#cccccc" d="M 437.564 224.314 L 437.564 442.806 L 379.095 442.806 L 379.095 224.314 L 437.564 224.314 Z" fill-rule="evenodd" style=""/>
    <path fill="#efefef" d="M 355.363 298.79 L 355.363 442.808 L 277.059 442.808 L 277.059 298.79 L 355.363 298.79 Z" fill-rule="evenodd" style=""/>
    <path fill="#cccccc" d="M 335.43 298.488 L 335.43 442.808 L 277.059 442.808 L 277.059 298.488 L 335.43 298.488 Z" fill-rule="evenodd" style=""/>
    <path fill="#efefef" d="M 560.481 263.262 L 560.481 442.807 L 482.174 442.807 L 482.174 263.262 L 560.481 263.262 Z" fill-rule="evenodd" style=""/>
    <path fill="#cccccc" d="M 540.548 262.861 L 540.548 442.807 L 482.174 442.807 L 482.174 262.861 L 540.548 262.861 Z" fill-rule="evenodd" style=""/>
    <path fill="#efefef" d="M 303.677 94.926 C 300.724 94.926 297.873 97.361 297.81 101.042 C 297.904 104.463 300.467 107.182 303.6 107.182 C 308.725 107.182 311.289 100.638 307.681 96.713 C 306.517 95.478 305.086 94.926 303.677 94.926 Z M 303.6 88.862 C 313.849 88.862 318.977 102.046 311.761 109.695 C 309.403 112.165 306.519 113.27 303.698 113.27 C 297.773 113.27 292.113 108.403 292.113 101.042 C 292.113 94.299 297.241 88.862 303.6 88.862 Z" fill-rule="evenodd" style=""/>
    <path fill="#efefef" d="M 274.636 130.754 C 271.688 130.754 268.86 133.189 268.86 136.87 C 268.86 140.192 271.424 142.907 274.554 143.01 C 279.681 143.01 282.339 136.366 278.637 132.544 C 277.473 131.307 276.042 130.754 274.636 130.754 Z M 274.554 124.694 C 284.806 124.694 290.027 137.776 282.717 145.526 C 280.39 147.994 277.516 149.099 274.696 149.099 C 268.772 149.099 263.069 144.232 263.069 136.87 C 263.069 130.127 268.194 124.694 274.554 124.694 Z" fill-rule="evenodd" style=""/>
    <path fill="#efefef" d="M 280.344 88.862 L 306.921 149.047 L 299.329 149.047 L 272.656 88.862 L 280.344 88.862 Z" fill-rule="evenodd" style=""/>
    <path fill="#cccccc" d="M 528.432 97.851 L 528.432 105.4 C 523.972 105.701 519.702 107.614 516.284 110.734 L 511.254 105.3 C 516 100.871 522.072 98.153 528.432 97.851 Z" fill-rule="evenodd" style=""/>
    <path fill="#efefef" d="M 558.711 129.956 C 557.857 145.253 546.372 157.433 531.946 158.338 L 531.946 150.79 C 542.386 149.884 550.738 141.026 551.594 129.956 L 558.711 129.956 Z" fill-rule="evenodd" style=""/>
    <path fill="#efefef" d="M 531.946 97.851 C 546.372 98.859 557.857 111.036 558.711 126.333 L 551.594 126.232 C 550.738 115.163 542.386 106.304 531.946 105.4 L 531.946 97.851 Z" fill-rule="evenodd" style=""/>
    <path fill="#efefef" d="M 531.946 97.851 C 546.372 98.859 557.857 111.036 558.711 126.333 L 551.594 126.232 C 550.738 115.163 542.386 106.304 531.946 105.4 L 531.946 97.851 Z" fill-rule="evenodd" style=""/>
    <path fill="#cccccc" d="M 508.784 108.016 L 513.911 113.35 C 502.521 127.44 511.063 149.281 528.432 150.789 L 528.432 158.338 C 504.703 156.727 493.028 126.936 508.784 108.016 Z" fill-rule="evenodd" style=""/>
    <path fill="#ff8b7b" d="M 412.125 121.556 L 424.654 124.576 C 424.37 126.084 424.085 127.494 423.704 128.902 C 423.419 130.312 423.041 131.621 422.663 133.03 C 421.903 135.848 420.952 138.563 420.004 141.381 C 418.01 147.12 415.352 152.553 412.032 157.586 C 410.988 158.995 409.943 160.305 408.708 161.511 C 407.379 162.921 405.86 164.028 404.153 164.933 C 401.367 166.363 398.285 167.081 395.166 167.081 C 394.777 167.081 394.387 167.069 393.997 167.048 C 390.865 166.743 387.826 166.04 384.98 164.73 C 383.651 164.127 382.323 163.524 380.993 162.821 C 380.424 162.416 379.758 162.015 379.189 161.511 C 378.62 161.008 377.954 160.606 377.291 160.103 L 380.518 154.264 L 382.131 154.669 L 383.936 155.169 C 385.074 155.371 386.309 155.673 387.447 155.776 C 388.724 156.011 390.005 156.108 391.266 156.108 C 392.156 156.108 393.035 156.059 393.9 155.975 C 395.705 155.776 397.318 155.169 398.743 154.062 C 399.407 153.661 399.975 153.058 400.451 152.454 C 401.114 151.648 401.686 150.843 402.158 149.938 C 403.393 147.925 404.437 145.913 405.291 143.699 C 406.335 141.381 407.189 138.967 407.949 136.551 C 408.802 134.035 409.468 131.518 410.228 129.005 L 411.272 125.179 C 411.556 123.973 411.935 122.663 412.125 121.556 Z" fill-rule="evenodd" style=""/>
    <path fill="#00f5ff" d="M 418.906 112.888 C 421.364 112.888 423.772 114.218 425.792 116.927 C 431.299 124.374 425.792 139.17 420.762 150.038 L 401.589 142.893 C 403.108 136.351 405.1 130.009 407.664 123.87 C 410.518 116.623 414.786 112.888 418.906 112.888 Z" fill-rule="evenodd" style=""/>
    <path fill="#00f5ff" d="M 418.215 128.963 C 419.842 128.963 422.688 135.157 424.085 142.289 C 423.041 145.005 421.903 147.624 420.761 150.038 L 409.277 145.711 C 411.175 138.464 414.214 131.621 417.819 129.105 C 417.941 129.008 418.072 128.963 418.215 128.963 Z" fill-rule="evenodd" style=""/>
    <path fill="#ff8b7b" d="M 375.393 148.831 L 379.567 151.245 C 381.277 152.554 382.416 154.669 382.7 156.983 L 382.891 159.499 C 382.31 160.583 381.303 160.969 380.165 160.969 C 377.402 160.969 373.874 158.694 373.874 158.694 L 375.393 148.831 Z" fill-rule="evenodd" style=""/>
    <path fill="#ff8b7b" d="M 370.077 148.327 L 375.393 148.831 L 373.873 158.694 L 366.375 156.277 L 370.077 148.327 Z" fill-rule="evenodd" style=""/>
    <path fill="#00f5ff" d="M 435.663 108.974 L 447.91 110.081 C 451.706 110.383 454.839 113.403 455.502 117.429 C 456.831 126.89 457.684 136.351 457.875 145.913 C 458.35 156.681 457.212 172.581 455.502 186.973 L 414.783 181.741 C 414.403 144 411.65 132.224 411.366 122.262 C 411.176 118.234 413.645 114.611 417.25 113.403 L 425.89 110.383 L 435.663 108.974 Z" fill-rule="evenodd" style=""/>
    <path fill="#ff8b7b" d="M 405.766 275.943 L 413.548 297.582 L 404.815 300.099 L 397.033 278.46 L 405.766 275.943 Z" fill-rule="evenodd" style=""/>
    <path fill="#263238" d="M 412.897 293.63 C 413.227 293.63 413.565 293.826 413.645 294.161 L 416.396 302.814 C 416.681 303.822 416.206 304.929 415.258 305.231 L 415.162 305.231 C 411.935 306.64 409.658 306.136 404.531 307.243 C 401.529 307.823 395.212 309.973 390.85 309.973 C 390.659 309.973 390.474 309.971 390.295 309.962 C 385.927 309.759 385.833 305.029 387.731 304.727 C 394.375 303.62 399.5 299.393 400.926 297.281 C 401.686 296.273 402.633 295.67 403.771 295.468 L 412.695 293.657 C 412.76 293.639 412.828 293.63 412.897 293.63 Z" fill-rule="evenodd" style=""/>
    <path fill="#000000" d="M 405.766 275.943 L 409.752 287.116 L 401.21 290.034 L 397.033 278.559 L 405.766 275.943 Z" fill-rule="evenodd" style=""/>
    <path fill="#263238" d="M 384.98 202.877 C 389.914 204.485 399.028 208.914 408.708 213.344 C 419.718 218.273 431.583 223.306 439.178 224.314 C 438.418 224.413 437.564 224.513 436.708 224.513 L 392.572 224.513 C 399.785 229.95 410.416 283.189 410.416 283.189 L 398.553 287.615 C 398.553 287.615 393.047 271.513 386.687 253.196 C 383.367 243.837 379.474 234.276 377.195 224.917 C 376.341 221.595 375.772 218.174 375.394 214.752 C 374.918 209.418 378.999 205.592 384.98 202.877 Z" fill-rule="evenodd" style=""/>
    <path fill="#000000" d="M 443.448 187.68 C 456.831 206.298 451.99 222.5 439.178 224.314 C 431.583 223.305 419.718 218.376 408.708 213.343 C 399.028 209.014 389.914 204.588 384.98 202.877 C 399.253 196.529 424.424 196.435 425.915 196.435 C 425.96 196.435 425.984 196.435 425.984 196.435 C 425.984 196.435 434.716 187.68 443.448 187.68 Z" fill-rule="evenodd" style=""/>
    <path fill="#ff8b7b" d="M 353.466 253.197 L 360.109 264.973 L 353.087 278.963 L 343.31 278.963 L 353.466 253.197 Z" fill-rule="evenodd" style=""/>
    <path fill="#263238" d="M 355.813 273.765 C 356.123 273.765 356.43 274.018 356.505 274.332 L 359.635 283.592 C 359.919 284.6 359.446 285.604 358.496 285.906 L 358.402 285.906 C 354.416 286.814 352.518 287.013 347.487 288.223 C 344.354 289.025 336.572 291.141 332.301 292.148 C 331.831 292.269 331.399 292.323 331.003 292.323 C 327.814 292.323 327.077 288.727 328.599 287.921 C 336.19 284.195 340.368 280.675 342.551 277.555 C 342.931 277.051 343.501 276.649 344.164 276.547 L 355.554 273.832 C 355.637 273.786 355.725 273.765 355.813 273.765 Z" fill-rule="evenodd" style=""/>
    <path fill="#000000" d="M 353.466 253.197 L 360.109 264.973 L 357.927 269.3 L 349.194 264.167 L 353.466 253.197 Z" fill-rule="evenodd" style=""/>
    <path fill="#263238" d="M 392.048 181.619 C 410.999 181.619 431.964 186.974 431.964 186.974 C 431.964 186.974 446.866 187.879 455.596 187.879 C 461.483 210.927 456.452 224.513 441.835 224.513 C 440.885 224.513 440.032 224.513 439.178 224.314 C 431.583 223.305 419.718 218.376 408.708 213.343 C 399.028 209.014 389.914 204.588 384.98 202.877 C 378.999 205.592 374.919 209.318 375.394 214.752 C 375.772 218.174 376.342 221.595 377.195 224.917 C 368.653 247.259 359.732 267.087 359.732 267.087 L 349.005 260.241 C 349.005 260.241 357.075 229.949 362.39 201.869 C 364.382 191.403 372.546 183.35 382.607 182.144 C 385.618 181.775 388.805 181.619 392.048 181.619 Z" fill-rule="evenodd" style=""/>
    <path fill="#263238" d="M 414.975 181.64 L 455.027 184.258 C 455.217 184.258 455.502 184.358 455.596 184.56 L 456.737 188.081 C 456.831 188.283 456.546 188.585 456.071 188.585 L 415.353 186.069 C 415.068 186.069 414.783 185.866 414.783 185.667 L 414.309 182.144 C 414.309 181.842 414.593 181.64 414.975 181.64 Z" fill-rule="evenodd" style=""/>
    <path fill="#00f5ff" d="M 450.651 113.826 C 450.926 113.826 451.217 113.853 451.516 113.907 C 461.577 120.147 459.87 144.199 454.743 147.624 C 453.954 148.196 452.324 148.933 450.79 148.933 C 449.37 148.933 448.033 148.299 447.529 146.314 C 443.964 132.451 443.392 113.826 450.651 113.826 Z" fill-rule="evenodd" style=""/>
    <path fill="#ff8b7b" d="M 464.448 138.139 C 465.151 138.139 465.76 138.268 466.226 138.564 C 466.892 148.732 467.555 162.921 463.759 166.14 C 459.583 169.664 451.041 171.073 445.725 171.776 C 438.512 172.784 431.205 173.891 423.991 174.998 C 422.757 172.986 421.618 171.275 420.383 169.16 C 420.423 169.227 420.546 169.256 420.745 169.256 C 423.937 169.256 446.451 161.34 450.471 158.594 C 454.743 155.776 452.181 151.347 452.466 142.893 C 452.466 142.893 460.171 138.139 464.448 138.139 Z" fill-rule="evenodd" style=""/>
    <path fill="#00f5ff" d="M 451.564 109.876 C 452.497 109.876 453.527 110.042 454.649 110.383 C 463.191 113.102 466.798 128.501 468.697 140.476 L 451.137 146.314 C 448.764 140.174 446.96 133.733 445.725 127.092 C 443.511 116.568 445.62 109.876 451.564 109.876 Z" fill-rule="evenodd" style=""/>
    <path fill="#407bff" d="M 435.783 105.704 C 438.765 105.704 441.992 106.883 442.498 110.383 C 442.688 112.296 442.308 114.109 441.266 115.718 C 440.222 117.229 438.987 118.638 437.658 119.845 C 436.17 121.33 434.36 122.898 432.303 122.898 C 432.127 122.898 431.95 122.889 431.773 122.865 C 429.779 122.563 428.547 121.456 427.787 118.837 C 425.983 121.858 425.889 123.366 423.991 123.568 C 422.757 123.468 421.521 122.762 420.762 121.758 C 419.339 120.448 418.389 118.638 418.201 116.725 C 417.819 112.9 420.668 109.379 424.085 108.07 C 427.503 106.763 431.107 106.057 434.716 105.755 C 435.065 105.722 435.421 105.704 435.783 105.704 Z" fill-rule="evenodd" style=""/>
    <path fill="#00f5ff" d="M 435.783 105.704 C 438.765 105.704 441.992 106.883 442.498 110.383 C 442.688 112.296 442.308 114.109 441.266 115.718 C 440.222 117.229 438.987 118.638 437.658 119.845 C 436.17 121.33 434.36 122.898 432.303 122.898 C 432.127 122.898 431.95 122.889 431.773 122.865 C 429.779 122.563 428.547 121.456 427.787 118.837 C 425.983 121.858 425.889 123.366 423.991 123.568 C 422.757 123.468 421.521 122.762 420.762 121.758 C 419.339 120.448 418.389 118.638 418.201 116.725 C 417.819 112.9 420.668 109.379 424.085 108.07 C 427.503 106.763 431.107 106.057 434.716 105.755 C 435.065 105.722 435.421 105.704 435.783 105.704 Z" fill-rule="evenodd" style=""/>
    <path fill="#ff8b7b" d="M 433.956 92.066 C 433.672 97.702 433.862 104.747 437.089 109.68 C 438.227 111.391 437.942 112.197 436.898 113.808 C 434.525 116.523 431.205 118.134 427.787 118.233 C 427.503 118.258 427.235 118.27 426.979 118.27 C 421.758 118.27 422.227 113.587 423.041 113.201 C 424.844 111.994 425.604 109.581 424.748 107.565 C 424.464 106.561 424.085 105.655 423.61 104.949 L 429.591 97.503 L 433.956 92.066 Z" fill-rule="evenodd" style=""/>
    <path fill="#000000" d="M 428.831 97.805 C 428.831 97.904 428.925 98.106 428.925 98.309 C 429.116 99.012 429.306 99.817 429.306 100.52 C 429.591 103.239 427.218 106.561 424.938 108.069 L 424.748 107.466 C 424.464 106.561 424.085 105.755 423.61 104.949 C 423.516 104.949 423.516 104.949 423.419 104.85 L 425.032 103.139 L 428.831 97.805 Z" fill-rule="evenodd" style=""/>
    <path fill="#ff8b7b" d="M 422.105 70.735 C 426.145 70.735 430.078 72.986 432.152 76.971 C 433.006 78.583 433.48 80.293 433.578 82.104 C 434.24 90.859 435 95.991 431.489 100.924 C 429.338 103.978 426.302 105.35 423.249 105.35 C 418.752 105.35 414.22 102.375 412.41 97.401 C 409.562 89.854 408.993 76.769 416.588 72.241 C 418.332 71.221 420.229 70.735 422.105 70.735 Z" fill-rule="evenodd" style=""/>
    <path fill="#263238" d="M 433.635 72.337 C 434.75 72.337 438.238 74.98 438.796 76.166 C 440.315 79.587 439.841 83.714 437.658 86.632 C 436.805 87.839 435.854 88.946 434.81 89.854 L 431.205 91.463 C 430.063 90.959 429.779 89.45 429.876 88.041 C 430.254 82.707 421.143 76.265 421.143 76.265 C 421.143 76.265 430.729 72.844 433.578 72.34 C 433.595 72.34 433.614 72.337 433.635 72.337 Z" fill-rule="evenodd" style=""/>
    <path fill="#ff8b7b" d="M 435.194 84.439 C 436.873 84.439 438.008 86.21 437.848 88.343 C 437.658 90.256 436.805 92.066 435.475 93.376 C 434.983 93.844 434.471 94.046 433.979 94.046 C 432.667 94.046 431.506 92.589 431.299 90.76 C 431.107 88.545 432.152 85.323 434.24 84.62 C 434.573 84.496 434.892 84.439 435.194 84.439 Z" fill-rule="evenodd" style=""/>
    <path fill="#263238" d="M 420.403 86.286 C 420.801 86.286 421.157 86.753 421.237 87.438 C 421.333 88.141 421.046 88.747 420.667 88.847 C 420.628 88.856 420.588 88.859 420.548 88.859 C 420.13 88.859 419.797 88.385 419.624 87.74 C 419.432 87.037 419.717 86.431 420.192 86.331 C 420.264 86.301 420.335 86.286 420.403 86.286 Z" fill-rule="evenodd" style=""/>
    <path fill="#263238" d="M 412.7 88.03 C 413.059 88.03 413.471 88.506 413.645 89.148 C 413.739 89.855 413.454 90.558 413.073 90.657 C 413.033 90.666 412.993 90.672 412.953 90.672 C 412.521 90.672 412.116 90.196 412.031 89.55 C 411.841 88.847 412.125 88.141 412.601 88.041 C 412.632 88.033 412.666 88.03 412.7 88.03 Z" fill-rule="evenodd" style=""/>
    <path fill="#ff5652" d="M 416.112 89.148 L 417.535 94.785 C 417.022 95.147 416.442 95.327 415.853 95.327 C 415.463 95.327 415.068 95.246 414.689 95.086 C 415.446 93.174 415.921 91.161 416.112 89.148 Z" fill-rule="evenodd" style=""/>
    <path fill="#263238" d="M 422.674 95.246 C 422.699 95.246 422.728 95.259 422.756 95.288 C 422.85 95.288 422.947 95.388 422.85 95.49 C 422.187 97.099 420.952 98.309 419.432 98.912 C 419.148 99.012 418.864 99.112 418.676 99.112 C 418.485 99.112 418.388 99.012 418.388 98.912 C 418.388 98.81 418.485 98.71 418.579 98.71 C 420.289 98.309 421.711 97.099 422.471 95.388 C 422.537 95.319 422.605 95.246 422.674 95.246 Z" fill-rule="evenodd" style=""/>
    <path fill="#263238" d="M 419.933 82.737 C 420.827 82.737 421.697 83.096 422.375 83.815 C 422.565 83.914 422.565 84.219 422.375 84.418 C 422.375 84.418 422.281 84.521 422.281 84.521 C 422.09 84.521 421.997 84.521 421.903 84.418 C 421.296 83.857 420.514 83.552 419.692 83.552 C 419.481 83.552 419.268 83.573 419.054 83.613 C 419.003 83.639 418.951 83.652 418.904 83.652 C 418.77 83.652 418.65 83.561 418.579 83.413 C 418.485 83.211 418.676 82.909 418.864 82.909 C 419.216 82.795 419.577 82.737 419.933 82.737 Z" fill-rule="evenodd" style=""/>
    <path fill="#263238" d="M 412.416 83.978 C 412.589 83.978 412.695 84.092 412.695 84.318 C 412.788 84.318 412.788 84.418 412.695 84.521 C 412.695 84.62 412.601 84.72 412.504 84.72 C 411.459 85.021 410.702 85.727 410.322 86.732 C 410.245 86.898 410.102 87.06 409.9 87.06 C 409.855 87.06 409.804 87.055 409.752 87.037 C 409.562 86.934 409.468 86.732 409.468 86.532 C 409.943 85.223 410.987 84.318 412.219 84.017 C 412.29 83.989 412.355 83.978 412.416 83.978 Z" fill-rule="evenodd" style=""/>
    <path fill="#407bff" d="M 407.285 148.629 C 409.183 148.629 410.702 150.14 410.89 152.153 L 413.263 180.13 C 413.454 182.043 412.031 183.652 410.228 183.652 L 358.119 183.754 C 356.314 183.754 354.701 182.242 354.511 180.23 L 352.138 152.352 C 351.946 150.442 353.372 148.732 355.177 148.732 L 407.285 148.629 Z" fill-rule="evenodd" style=""/>
    <path fill="#cccccc" d="M 407.285 148.629 C 409.183 148.629 410.702 150.14 410.89 152.153 L 413.263 180.13 C 413.454 182.043 412.031 183.652 410.228 183.652 L 358.119 183.754 C 356.314 183.754 354.701 182.242 354.511 180.23 L 352.138 152.352 C 351.946 150.442 353.372 148.732 355.177 148.732 L 407.285 148.629 Z" fill-rule="evenodd" style=""/>
    <path fill="#efefef" d="M 405.672 148.529 C 407.57 148.529 409.183 150.038 409.374 152.05 L 411.744 179.928 C 411.935 181.841 410.512 183.551 408.708 183.551 L 356.599 183.652 C 354.795 183.652 353.182 182.143 352.991 180.13 L 350.618 152.153 C 350.43 150.339 351.853 148.629 353.657 148.629 L 405.672 148.529 Z" fill-rule="evenodd" style=""/>
    <path fill="#cccccc" d="M 381.249 162.188 C 384.217 162.188 386.02 165.965 384.029 168.557 C 383.26 169.556 382.222 170.011 381.197 170.011 C 379.439 170.011 377.721 168.669 377.482 166.442 C 377.291 164.33 378.81 162.417 380.802 162.215 C 380.953 162.197 381.101 162.188 381.249 162.188 Z" fill-rule="evenodd" style=""/>
    <path fill="#407bff" d="M 411.65 183.453 C 412.316 183.453 412.788 184.155 412.788 184.962 C 412.788 185.767 412.316 186.47 411.65 186.47 L 357.928 186.672 C 356.79 186.672 355.839 185.366 355.839 183.652 L 411.65 183.453 Z" fill-rule="evenodd" style=""/>
    <path fill="#cccccc" d="M 411.65 183.453 C 412.316 183.453 412.788 184.155 412.788 184.962 C 412.788 185.767 412.316 186.47 411.65 186.47 L 357.928 186.672 C 356.79 186.672 355.839 185.366 355.839 183.652 L 411.65 183.453 Z" fill-rule="evenodd" style=""/>
    <path fill="#efefef" d="M 440.13 183.425 C 440.282 183.425 440.409 183.607 440.409 183.854 C 440.409 185.263 439.271 186.47 437.848 186.47 L 412.032 186.47 C 411.272 186.47 410.606 185.767 410.606 184.962 C 410.606 184.114 411.19 183.444 411.887 183.444 C 411.932 183.444 411.981 183.446 412.032 183.453 L 440.031 183.453 C 440.065 183.435 440.099 183.425 440.13 183.425 Z" fill-rule="evenodd" style=""/>
    <path fill="#ff8b7b" d="M 421.712 163.926 L 425.983 165.335 C 428.356 165.941 429.779 168.355 430.823 170.47 L 431.964 172.987 C 431.682 175.225 429.264 175.792 426.893 175.792 C 424.469 175.792 422.091 175.197 422.091 175.197 L 421.712 163.926 Z" fill-rule="evenodd" style=""/>
    <path fill="#ff8b7b" d="M 421.711 163.926 L 422.09 175.197 L 416.587 173.388 L 415.258 167.049 L 421.711 163.926 Z" fill-rule="evenodd" style=""/>
    <path fill="#263238" d="M 422.762 62.58 C 423.86 62.58 425.072 63.045 426.077 64.188 C 427.033 63.573 428.097 63.265 429.15 63.265 C 430.507 63.265 431.845 63.775 432.912 64.794 C 433.48 65.398 433.862 66.303 433.672 67.208 C 438.036 67.31 440.694 72.542 438.227 76.467 C 437.738 77.309 436.779 77.608 435.777 77.608 C 435.222 77.608 434.653 77.517 434.146 77.372 C 433.293 78.884 432.058 79.889 430.445 80.293 C 428.846 80.845 427.033 81.029 425.294 81.029 C 421.983 81.029 418.946 80.356 418.201 80.293 C 417.925 80.242 417.646 80.218 417.373 80.218 C 416.513 80.218 415.668 80.462 414.877 80.996 C 415.352 81.6 416.018 82.004 416.775 82.004 C 417.051 82.046 417.344 82.07 417.637 82.07 C 418.053 82.07 418.474 82.019 418.864 81.901 C 417.671 82.773 416.186 83.207 414.681 83.207 C 414.271 83.207 413.861 83.175 413.455 83.111 C 412.695 82.707 411.841 82.306 410.988 82.004 C 410.865 81.983 410.734 81.974 410.597 81.974 C 410.233 81.974 409.858 82.031 409.713 82.031 C 409.659 82.031 409.638 82.025 409.659 82.004 C 407.189 81.901 406.241 78.884 406.526 77.574 C 406.904 75.765 407.854 74.355 409.277 73.348 C 408.424 70.831 409.562 67.712 412.504 65.597 C 413.708 64.846 415.099 64.459 416.516 64.459 C 417.561 64.459 418.616 64.668 419.624 65.096 C 419.624 63.69 421.06 62.58 422.762 62.58 Z" fill-rule="evenodd" style=""/>
    <path fill="#00f5ff" d="M 515.076 439.003 C 523.489 439.003 529.929 440.701 530.011 443.112 C 530.108 445.73 522.135 448.247 512.265 448.747 C 511.328 448.787 510.412 448.805 509.515 448.805 C 500.837 448.805 494.124 447.094 494.039 444.723 C 493.945 442.004 501.918 439.491 511.789 439.086 C 512.91 439.029 514.009 439.003 515.076 439.003 Z" fill-rule="evenodd" style=""/>
    <path fill="#00f5ff" d="M 529.823 438.182 L 530.011 443.012 L 493.945 444.723 L 493.755 439.893 L 529.823 438.182 Z" fill-rule="evenodd" style=""/>
    <path fill="#00f5ff" d="M 514.888 434.172 C 523.302 434.172 529.738 435.87 529.823 438.281 C 529.917 440.9 521.944 443.413 512.073 443.917 C 511.14 443.956 510.221 443.974 509.325 443.974 C 500.649 443.974 493.936 442.264 493.849 439.893 C 493.661 437.174 501.727 434.658 511.599 434.256 C 512.72 434.199 513.82 434.172 514.888 434.172 Z" fill-rule="evenodd" style=""/>
    <path fill="#00f5ff" d="M 515.01 435.487 C 522.138 435.487 527.462 436.607 527.544 438.182 C 527.544 438.281 527.45 438.483 527.354 438.685 C 526.364 437.28 521.187 436.413 514.66 436.413 C 513.698 436.413 512.705 436.431 511.695 436.471 C 503.816 436.872 497.265 438.384 496.318 439.992 C 496.128 439.893 496.128 439.69 496.128 439.591 C 496.034 437.777 502.963 435.967 511.695 435.566 C 512.83 435.512 513.94 435.487 515.01 435.487 Z" fill-rule="evenodd" style=""/>
    <path fill="#00f5ff" d="M 518.875 431.655 C 527.288 431.655 533.725 433.354 533.81 435.765 C 533.998 438.384 526.025 440.9 516.06 441.401 C 514.939 441.458 513.841 441.485 512.774 441.485 C 504.359 441.485 497.92 439.787 497.835 437.376 C 497.741 434.76 505.714 432.141 515.585 431.74 C 516.706 431.683 517.807 431.655 518.875 431.655 Z" fill-rule="evenodd" style=""/>
    <path fill="#00f5ff" d="M 533.619 430.935 L 533.81 435.765 L 497.741 437.376 L 497.55 432.545 L 533.619 430.935 Z" fill-rule="evenodd" style=""/>
    <path fill="#00f5ff" d="M 518.683 426.825 C 527.098 426.825 533.534 428.524 533.619 430.935 C 533.713 433.551 525.74 436.066 515.775 436.571 C 514.851 436.61 513.94 436.628 513.05 436.628 C 504.445 436.628 497.724 434.917 497.55 432.545 C 497.456 429.827 505.43 427.311 515.394 426.909 C 516.518 426.852 517.616 426.825 518.683 426.825 Z" fill-rule="evenodd" style=""/>
    <path fill="#00f5ff" d="M 518.806 428.141 C 525.937 428.141 531.258 429.26 531.34 430.835 C 531.34 431.034 531.246 431.137 531.152 431.339 C 530.159 429.933 524.983 429.067 518.456 429.067 C 517.494 429.067 516.501 429.085 515.491 429.124 C 507.612 429.525 501.064 431.034 500.02 432.748 C 499.924 432.545 499.924 432.443 499.83 432.244 C 499.83 430.431 506.758 428.62 515.491 428.216 C 516.629 428.165 517.736 428.141 518.806 428.141 Z" fill-rule="evenodd" style=""/>
    <path fill="#00f5ff" d="M 517.839 422.827 C 526.458 422.827 533.249 424.539 533.335 426.909 C 533.429 429.625 525.456 432.141 515.491 432.545 C 514.378 432.603 513.289 432.63 512.227 432.63 C 503.864 432.63 497.351 430.931 497.266 428.521 C 497.172 425.902 505.145 423.385 515.109 422.885 C 516.035 422.845 516.948 422.827 517.839 422.827 Z" fill-rule="evenodd" style=""/>
    <path fill="#00f5ff" d="M 533.144 422.079 L 533.335 426.909 L 497.266 428.521 L 497.078 423.688 L 533.144 422.079 Z" fill-rule="evenodd" style=""/>
    <path fill="#00f5ff" d="M 518.183 417.97 C 526.548 417.97 533.061 419.665 533.144 422.079 C 533.241 424.795 525.268 427.31 515.3 427.715 C 514.19 427.769 513.1 427.799 512.042 427.799 C 503.694 427.799 497.246 426.101 497.078 423.687 C 496.981 421.072 504.954 418.456 514.922 418.052 C 516.031 417.997 517.121 417.97 518.183 417.97 Z" fill-rule="evenodd" style=""/>
    <path fill="#00f5ff" d="M 518.303 419.282 C 525.391 419.282 530.785 420.402 530.868 421.977 C 530.868 422.179 530.771 422.381 530.677 422.48 C 529.642 421.129 524.85 420.272 518.672 420.272 C 517.5 420.272 516.273 420.302 515.016 420.368 C 507.137 420.67 500.59 422.179 499.545 423.889 C 499.448 423.79 499.354 423.587 499.354 423.385 C 499.354 421.575 506.283 419.762 515.016 419.361 C 516.143 419.31 517.241 419.282 518.302 419.282 L 518.303 419.282 Z" fill-rule="evenodd" style=""/>
    <path fill="#00f5ff" d="M 521.635 415.481 C 530.256 415.481 537.045 417.191 537.131 419.563 C 537.228 422.278 529.255 424.795 519.287 425.199 C 518.177 425.256 517.084 425.284 516.026 425.284 C 507.66 425.284 501.147 423.584 501.064 421.171 C 500.968 418.555 508.941 416.039 518.908 415.535 C 519.833 415.499 520.744 415.481 521.635 415.481 Z" fill-rule="evenodd" style=""/>
    <path fill="#00f5ff" d="M 536.943 414.732 L 537.131 419.563 L 501.064 421.171 L 500.874 416.34 L 536.943 414.732 Z" fill-rule="evenodd" style=""/>
    <path fill="#00f5ff" d="M 521.443 410.65 C 530.065 410.65 536.855 412.361 536.943 414.732 C 537.037 417.447 529.064 419.964 519.096 420.368 C 517.986 420.422 516.896 420.45 515.836 420.45 C 507.47 420.45 500.956 418.754 500.874 416.34 C 500.777 413.724 508.75 411.208 518.718 410.704 C 519.642 410.668 520.553 410.65 521.443 410.65 Z" fill-rule="evenodd" style=""/>
    <path fill="#00f5ff" d="M 522.098 411.936 C 529.183 411.936 534.569 413.055 534.569 414.629 C 534.663 414.832 534.569 414.932 534.473 415.134 C 533.437 413.782 528.648 412.925 522.471 412.925 C 521.295 412.925 520.072 412.955 518.812 413.022 C 510.935 413.323 504.385 414.832 503.341 416.543 C 503.247 416.34 503.15 416.241 503.15 416.039 C 503.057 414.228 510.079 412.415 518.812 412.014 C 519.938 411.963 521.037 411.936 522.098 411.936 Z" fill-rule="evenodd" style=""/>
    <path fill="#00f5ff" d="M 515.838 409.242 C 524.463 409.242 531.255 410.961 531.34 413.423 C 531.437 416.039 523.464 418.555 513.496 419.059 C 512.572 419.095 511.661 419.116 510.77 419.116 C 502.152 419.116 495.359 417.405 495.274 415.034 C 495.177 412.316 503.15 409.799 513.118 409.296 C 514.04 409.26 514.95 409.242 515.838 409.242 Z" fill-rule="evenodd" style=""/>
    <path fill="#00f5ff" d="M 531.152 408.49 L 531.34 413.323 L 495.274 415.034 L 495.083 410.101 L 531.152 408.49 Z" fill-rule="evenodd" style=""/>
    <path fill="#00f5ff" d="M 515.656 404.411 C 524.275 404.411 531.067 406.119 531.152 408.489 C 531.246 411.208 523.273 413.724 513.308 414.228 C 512.384 414.264 511.47 414.282 510.579 414.282 C 501.961 414.282 495.169 412.575 495.083 410.204 C 494.989 407.485 502.963 404.969 512.927 404.465 C 513.852 404.429 514.762 404.411 515.656 404.411 Z" fill-rule="evenodd" style=""/>
    <path fill="#00f5ff" d="M 516.31 405.796 C 523.396 405.796 528.791 406.915 528.873 408.49 C 528.873 408.592 528.779 408.794 528.683 408.895 C 527.715 407.612 522.772 406.691 516.472 406.691 C 515.36 406.691 514.204 406.719 513.024 406.779 C 505.145 407.183 498.595 408.692 497.55 410.303 C 497.456 410.204 497.362 410.002 497.362 409.899 C 497.266 408.088 504.291 406.279 513.024 405.874 C 514.148 405.823 515.249 405.796 516.31 405.796 Z" fill-rule="evenodd" style=""/>
    <path fill="#00f5ff" d="M 520.177 401.967 C 528.54 401.967 535.054 403.666 535.139 406.076 C 535.233 408.692 527.26 411.208 517.295 411.712 C 516.371 411.749 515.457 411.767 514.566 411.767 C 505.948 411.767 499.155 410.059 499.07 407.687 C 498.976 404.969 506.949 402.453 516.914 402.051 C 518.026 401.994 519.116 401.967 520.177 401.967 Z" fill-rule="evenodd" style=""/>
    <path fill="#00f5ff" d="M 534.948 401.143 L 535.139 405.977 L 499.07 407.687 L 498.879 402.755 L 534.948 401.143 Z" fill-rule="evenodd" style=""/>
    <path fill="#00f5ff" d="M 519.446 397.064 C 528.068 397.064 534.862 398.781 534.948 401.246 C 535.042 403.862 527.069 406.378 517.105 406.882 C 516.179 406.918 515.269 406.936 514.378 406.936 C 505.756 406.936 498.968 405.226 498.879 402.854 C 498.785 400.139 506.758 397.622 516.723 397.118 C 517.648 397.082 518.556 397.064 519.446 397.064 Z" fill-rule="evenodd" style=""/>
    <path fill="#00f5ff" d="M 520.135 398.449 C 527.265 398.449 532.587 399.568 532.669 401.143 C 532.669 401.246 532.575 401.445 532.481 401.547 C 531.514 400.265 526.568 399.345 520.268 399.345 C 519.156 399.345 518.001 399.372 516.82 399.433 C 508.94 399.837 502.487 401.345 501.443 402.957 C 501.349 402.854 501.252 402.654 501.252 402.552 C 501.158 400.742 508.087 398.931 516.82 398.527 C 517.958 398.476 519.065 398.449 520.134 398.449 L 520.135 398.449 Z" fill-rule="evenodd" style=""/>
    <path fill="#00f5ff" d="M 568.332 436.615 C 576.939 436.615 583.66 438.326 583.831 440.698 C 583.925 443.413 575.951 445.93 565.987 446.434 C 565.054 446.473 564.135 446.491 563.238 446.491 C 554.562 446.491 547.847 444.78 547.762 442.408 C 547.668 439.69 555.641 437.174 565.606 436.673 C 566.53 436.634 567.441 436.615 568.332 436.615 Z" fill-rule="evenodd" style=""/>
    <path fill="#00f5ff" d="M 568.141 431.785 C 576.748 431.785 583.469 433.496 583.64 435.867 C 583.737 438.583 575.764 441.099 565.796 441.603 C 564.874 441.639 563.964 441.66 563.076 441.66 C 554.452 441.66 547.659 439.94 547.574 437.476 C 547.478 434.86 555.45 432.343 565.418 431.84 C 566.342 431.803 567.254 431.785 568.141 431.785 Z" fill-rule="evenodd" style=""/>
    <path fill="#00f5ff" d="M 568.998 433.167 C 575.983 433.167 581.267 434.205 581.267 435.765 C 581.364 435.967 581.267 436.169 581.173 436.268 C 580.123 434.987 575.238 434.066 568.954 434.066 C 567.848 434.066 566.696 434.097 565.512 434.157 C 557.633 434.558 551.085 436.066 550.041 437.678 C 549.944 437.578 549.851 437.376 549.851 437.277 C 549.757 435.463 556.779 433.653 565.512 433.249 C 566.707 433.194 567.873 433.167 568.998 433.167 Z" fill-rule="evenodd" style=""/>
    <path fill="#00f5ff" d="M 561.687 433.988 C 565.335 433.988 567.777 434.694 568.075 436.067 C 568.738 438.583 561.335 442.711 551.654 445.127 C 547.005 446.322 542.699 446.904 539.39 446.904 C 535.742 446.904 533.304 446.195 532.957 444.822 C 532.385 442.309 539.789 438.182 549.472 435.765 C 554.076 434.57 558.378 433.988 561.687 433.988 Z" fill-rule="evenodd" style=""/>
    <path fill="#00f5ff" d="M 567.031 431.339 L 568.075 436.066 L 532.957 444.925 L 531.913 440.194 L 567.031 431.339 Z" fill-rule="evenodd" style=""/>
    <path fill="#00f5ff" d="M 560.68 429.257 C 564.32 429.257 566.733 429.966 567.031 431.339 C 567.694 433.955 560.29 437.979 550.61 440.496 C 546.015 441.642 541.721 442.201 538.415 442.201 C 534.755 442.201 532.305 441.515 532.007 440.194 C 531.341 437.578 538.744 433.551 548.427 431.034 C 553.077 429.839 557.382 429.257 560.68 429.257 Z" fill-rule="evenodd" style=""/>
    <path fill="#00f5ff" d="M 560.876 430.533 C 563.15 430.533 564.587 430.895 564.752 431.641 C 564.848 431.84 564.752 432.042 564.752 432.141 C 564.177 431.686 562.862 431.456 561.033 431.456 C 558.039 431.456 553.672 432.063 548.903 433.249 C 541.308 435.161 535.139 437.979 534.38 439.792 C 534.286 439.69 534.189 439.59 534.095 439.388 C 533.714 437.678 540.264 434.459 548.712 432.343 C 553.544 431.148 557.92 430.533 560.876 430.533 Z" fill-rule="evenodd" style=""/>
    <path fill="#00f5ff" d="M 522.326 369.946 C 531.34 369.946 538.65 377.693 538.65 387.255 C 538.65 396.717 531.34 404.465 522.326 404.465 C 513.402 404.465 506.092 396.717 506.092 387.255 C 506.092 377.693 513.402 369.946 522.326 369.946 Z" fill-rule="evenodd" style=""/>
    <path fill="#00f5ff" d="M 520.425 369.946 C 529.349 369.946 536.656 377.693 536.656 387.255 C 536.656 396.717 529.349 404.465 520.425 404.465 C 511.407 404.465 504.194 396.717 504.194 387.255 C 504.194 377.693 511.407 369.946 520.425 369.946 Z" fill-rule="evenodd" style=""/>
    <path fill="#ffffff" d="M 519.048 379.8 C 519.159 379.8 519.269 379.803 519.381 379.809 C 519.452 379.806 519.523 379.806 519.594 379.806 C 522.735 379.806 525.572 381.993 526.5 385.243 L 528.779 385.243 L 528.779 386.751 L 526.69 386.751 L 526.69 387.457 L 526.69 388.16 L 528.779 388.16 L 528.779 389.569 L 526.5 389.569 C 525.59 392.758 522.844 395.018 519.773 395.018 C 519.642 395.018 519.511 395.012 519.381 395.006 C 519.269 395.009 519.159 395.012 519.048 395.012 C 517.178 395.012 515.417 394.216 514.162 392.791 L 513.972 392.589 L 515.3 391.28 L 515.491 391.482 C 516.37 392.511 517.659 393.102 518.98 393.102 C 519.082 393.102 519.184 393.099 519.287 393.093 C 519.361 393.096 519.435 393.099 519.506 393.099 C 521.609 393.099 523.583 391.711 524.317 389.569 L 517.768 389.569 L 517.768 388.16 L 524.696 388.16 C 524.696 387.859 524.696 387.659 524.696 387.457 C 524.696 387.255 524.696 386.953 524.696 386.751 L 517.864 386.751 L 517.864 385.243 L 524.317 385.243 C 523.558 383.128 521.469 381.719 519.287 381.719 C 517.864 381.719 516.439 382.325 515.491 383.432 L 515.3 383.631 L 513.972 382.223 L 514.162 382.024 C 515.417 380.596 517.178 379.8 519.048 379.8 Z" fill-rule="evenodd" style=""/>
    <path fill="#00f5ff" d="M 313.194 439.838 C 321.926 439.838 328.701 441.645 328.787 444.119 C 328.787 446.735 320.814 449.252 310.849 449.553 C 309.916 449.593 309.002 449.611 308.108 449.611 C 299.444 449.611 292.806 447.891 292.721 445.429 C 292.623 442.81 300.597 440.294 310.564 439.893 C 311.454 439.857 312.334 439.838 313.194 439.838 Z" fill-rule="evenodd" style=""/>
    <path fill="#00f5ff" d="M 328.599 439.187 L 328.787 444.02 L 292.721 445.429 L 292.529 440.595 L 328.599 439.187 Z" fill-rule="evenodd" style=""/>
    <path fill="#00f5ff" d="M 313.008 435.008 C 321.741 435.008 328.51 436.806 328.599 439.186 C 328.693 441.905 320.72 444.421 310.752 444.723 C 309.822 444.762 308.905 444.78 308.009 444.78 C 299.331 444.78 292.615 443.06 292.529 440.595 C 292.436 437.88 300.409 435.463 310.373 435.062 C 311.267 435.026 312.149 435.008 313.008 435.008 Z" fill-rule="evenodd" style=""/>
    <path fill="#00f5ff" d="M 313.017 436.323 C 320.481 436.323 326.14 437.464 326.226 439.086 C 326.226 439.289 326.226 439.491 326.035 439.591 C 325.042 438.188 319.869 437.319 313.339 437.319 C 312.377 437.319 311.386 437.337 310.373 437.376 C 302.591 437.678 296.041 439.086 294.996 440.798 C 294.902 440.698 294.806 440.496 294.806 440.294 C 294.712 438.583 301.641 436.773 310.373 436.369 C 311.276 436.338 312.157 436.323 313.017 436.323 Z" fill-rule="evenodd" style=""/>
    <path fill="#00f5ff" d="M 308.94 432.892 C 317.618 432.892 324.336 434.609 324.421 437.075 C 324.515 439.792 316.542 442.206 306.577 442.61 C 305.681 442.647 304.802 442.662 303.94 442.662 C 295.21 442.662 288.441 440.864 288.353 438.483 C 288.259 435.765 296.231 433.249 306.197 432.947 C 307.13 432.91 308.046 432.892 308.94 432.892 Z" fill-rule="evenodd" style=""/>
    <path fill="#00f5ff" d="M 324.231 432.244 L 324.421 437.075 L 288.353 438.483 L 288.162 433.653 L 324.231 432.244 Z" fill-rule="evenodd" style=""/>
    <path fill="#00f5ff" d="M 308.842 428.062 C 317.507 428.062 324.146 429.779 324.231 432.244 C 324.327 434.86 316.355 437.376 306.387 437.777 C 305.493 437.813 304.612 437.831 303.752 437.831 C 295.019 437.831 288.25 436.033 288.162 433.653 C 288.068 431.034 296.135 428.418 306.103 428.117 C 307.033 428.08 307.949 428.062 308.842 428.062 Z" fill-rule="evenodd" style=""/>
    <path fill="#00f5ff" d="M 308.746 429.378 C 316.209 429.378 321.869 430.518 321.954 432.141 C 321.954 432.343 321.858 432.443 321.764 432.645 C 320.76 431.227 315.487 430.277 308.86 430.277 C 307.963 430.277 307.041 430.295 306.103 430.331 C 298.224 430.633 291.77 432.141 290.632 433.753 C 290.535 433.653 290.535 433.451 290.441 433.352 C 290.441 431.538 297.37 429.727 306.103 429.426 C 307.004 429.393 307.887 429.378 308.746 429.378 Z" fill-rule="evenodd" style=""/>
    <path fill="#00f5ff" d="M 308.842 424.034 C 317.507 424.034 324.146 425.754 324.231 428.216 C 324.327 430.935 316.355 433.351 306.387 433.753 C 305.493 433.789 304.612 433.807 303.752 433.807 C 295.019 433.807 288.25 432.009 288.162 429.625 C 288.068 426.909 296.135 424.493 306.103 424.092 C 307.033 424.053 307.949 424.034 308.842 424.034 Z" fill-rule="evenodd" style=""/>
    <path fill="#00f5ff" d="M 324.137 423.385 L 324.231 428.216 L 288.162 429.625 L 288.068 424.795 L 324.137 423.385 Z" fill-rule="evenodd" style=""/>
    <path fill="#00f5ff" d="M 308.546 419.108 C 317.279 419.108 324.048 420.906 324.137 423.286 C 324.231 426.004 316.164 428.521 306.197 428.822 C 305.266 428.858 304.349 428.876 303.456 428.876 C 294.792 428.876 288.153 427.157 288.068 424.695 C 287.974 422.079 295.947 419.563 305.912 419.159 C 306.808 419.122 307.688 419.108 308.546 419.108 Z" fill-rule="evenodd" style=""/>
    <path fill="#00f5ff" d="M 308.558 420.523 C 316.038 420.523 321.764 421.662 321.764 423.286 C 321.764 423.488 321.67 423.587 321.573 423.79 C 320.572 422.371 315.296 421.421 308.669 421.421 C 307.773 421.421 306.851 421.439 305.912 421.476 C 298.129 421.778 291.579 423.286 290.535 424.897 C 290.441 424.795 290.347 424.695 290.347 424.493 C 290.25 422.683 297.179 420.87 305.912 420.568 C 306.814 420.537 307.699 420.523 308.558 420.523 Z" fill-rule="evenodd" style=""/>
    <path fill="#00f5ff" d="M 303.886 417.013 C 312.849 417.013 319.872 418.754 319.96 421.274 C 320.054 423.889 311.986 426.405 302.116 426.807 C 301.387 426.831 300.67 426.84 299.964 426.84 C 291.002 426.84 283.979 425.099 283.891 422.58 C 283.797 419.964 291.769 417.447 301.737 417.046 C 302.463 417.025 303.18 417.013 303.886 417.013 Z" fill-rule="evenodd" style=""/>
    <path fill="#00f5ff" d="M 319.769 416.34 L 319.96 421.171 L 283.891 422.58 L 283.703 417.75 L 319.769 416.34 Z" fill-rule="evenodd" style=""/>
    <path fill="#00f5ff" d="M 304.182 412.162 C 312.912 412.162 319.684 413.96 319.769 416.34 C 319.866 419.059 311.893 421.575 301.925 421.877 C 300.995 421.913 300.079 421.934 299.182 421.934 C 290.503 421.934 283.788 420.215 283.703 417.749 C 283.606 415.134 291.676 412.617 301.547 412.216 C 302.44 412.18 303.32 412.162 304.182 412.162 Z" fill-rule="evenodd" style=""/>
    <path fill="#00f5ff" d="M 304.865 413.547 C 312.012 413.547 317.396 414.666 317.396 416.241 C 317.396 416.443 317.396 416.642 317.302 416.745 C 316.226 415.342 311.042 414.473 304.574 414.473 C 303.621 414.473 302.639 414.491 301.641 414.53 C 293.764 414.832 287.308 416.241 286.17 417.952 C 286.076 417.852 285.979 417.65 285.979 417.447 C 285.886 415.638 292.814 413.927 301.547 413.625 C 302.685 413.571 303.795 413.547 304.865 413.547 Z" fill-rule="evenodd" style=""/>
    <path fill="#00f5ff" d="M 412.16 435.986 C 420.522 435.986 427.027 437.681 427.027 440.095 C 427.218 442.711 419.245 445.226 409.277 445.73 C 408.344 445.767 407.425 445.785 406.528 445.785 C 397.853 445.785 391.14 444.074 391.055 441.702 C 390.959 438.987 398.931 436.471 408.899 436.067 C 410.008 436.012 411.098 435.986 412.16 435.986 Z" fill-rule="evenodd" style=""/>
    <path fill="#00f5ff" d="M 426.933 435.161 L 427.121 439.992 L 391.055 441.702 L 390.865 436.773 L 426.933 435.161 Z" fill-rule="evenodd" style=""/>
    <path fill="#00f5ff" d="M 411.972 431.152 C 420.335 431.152 426.848 432.85 426.933 435.264 C 427.027 437.88 419.054 440.396 409.087 440.9 C 408.162 440.936 407.254 440.954 406.364 440.954 C 397.756 440.954 391.035 439.244 390.865 436.872 C 390.771 434.157 398.743 431.641 408.708 431.236 C 409.818 431.179 410.911 431.152 411.972 431.152 Z" fill-rule="evenodd" style=""/>
    <path fill="#407bff" d="M 412.091 432.467 C 419.176 432.467 424.572 433.587 424.654 435.161 C 424.654 435.264 424.56 435.463 424.464 435.566 C 423.416 434.281 418.527 433.363 412.248 433.363 C 411.138 433.363 409.985 433.391 408.802 433.451 C 400.926 433.852 394.375 435.363 393.331 436.975 C 393.238 436.872 393.238 436.673 393.14 436.571 C 393.14 434.76 400.072 432.947 408.802 432.545 C 409.929 432.491 411.027 432.467 412.091 432.467 Z" fill-rule="evenodd" style=""/>
    <path fill="#00f5ff" d="M 412.091 432.467 C 419.176 432.467 424.572 433.587 424.654 435.161 C 424.654 435.264 424.56 435.463 424.464 435.566 C 423.416 434.281 418.527 433.363 412.248 433.363 C 411.138 433.363 409.985 433.391 408.802 433.451 C 400.926 433.852 394.375 435.363 393.331 436.975 C 393.238 436.872 393.238 436.673 393.14 436.571 C 393.14 434.76 400.072 432.947 408.802 432.545 C 409.929 432.491 411.027 432.467 412.091 432.467 Z" fill-rule="evenodd" style=""/>
    <path fill="#00f5ff" d="M 415.959 428.635 C 424.321 428.635 430.835 430.334 430.92 432.748 C 431.013 435.363 423.041 437.979 413.073 438.384 C 411.964 438.438 410.874 438.465 409.812 438.465 C 401.447 438.465 394.933 436.77 394.851 434.356 C 394.757 431.641 402.73 429.124 412.695 428.72 C 413.804 428.666 414.897 428.635 415.959 428.635 Z" fill-rule="evenodd" style=""/>
    <path fill="#00f5ff" d="M 430.729 427.914 L 430.92 432.748 L 394.851 434.356 L 394.66 429.525 L 430.729 427.914 Z" fill-rule="evenodd" style=""/>
    <path fill="#00f5ff" d="M 415.767 423.805 C 424.131 423.805 430.644 425.504 430.729 427.914 C 430.823 430.533 422.85 433.049 412.885 433.551 C 411.961 433.59 411.05 433.608 410.156 433.608 C 401.538 433.608 394.746 431.897 394.66 429.525 C 394.566 426.807 402.54 424.294 412.504 423.89 C 413.617 423.832 414.707 423.805 415.767 423.805 Z" fill-rule="evenodd" style=""/>
    <path fill="#407bff" d="M 415.887 425.121 C 422.972 425.121 428.368 426.24 428.45 427.815 C 428.45 428.017 428.356 428.117 428.262 428.319 C 427.186 426.915 422.073 426.047 415.56 426.047 C 414.601 426.047 413.611 426.065 412.601 426.104 C 404.721 426.505 398.171 428.017 397.127 429.727 C 397.033 429.525 396.939 429.426 396.939 429.224 C 396.842 427.414 403.868 425.6 412.601 425.199 C 413.725 425.145 414.826 425.121 415.887 425.121 Z" fill-rule="evenodd" style=""/>
    <path fill="#00f5ff" d="M 415.887 425.121 C 422.972 425.121 428.368 426.24 428.45 427.815 C 428.45 428.017 428.356 428.117 428.262 428.319 C 427.186 426.915 422.073 426.047 415.56 426.047 C 414.601 426.047 413.611 426.065 412.601 426.104 C 404.721 426.505 398.171 428.017 397.127 429.727 C 397.033 429.525 396.939 429.426 396.939 429.224 C 396.842 427.414 403.868 425.6 412.601 425.199 C 413.725 425.145 414.826 425.121 415.887 425.121 Z" fill-rule="evenodd" style=""/>
    <path fill="#00f5ff" d="M 414.946 419.807 C 423.55 419.807 430.271 421.518 430.445 423.889 C 430.539 426.608 422.565 429.124 412.601 429.525 C 411.488 429.582 410.398 429.61 409.337 429.61 C 400.974 429.61 394.461 427.911 394.375 425.501 C 394.282 422.885 402.254 420.266 412.219 419.864 C 413.144 419.825 414.055 419.807 414.946 419.807 Z" fill-rule="evenodd" style=""/>
    <path fill="#00f5ff" d="M 430.254 419.059 L 430.445 423.889 L 394.376 425.501 L 394.185 420.67 L 430.254 419.059 Z" fill-rule="evenodd" style=""/>
    <path fill="#00f5ff" d="M 414.869 414.974 C 423.422 414.974 430.083 416.606 430.254 419.059 C 430.347 421.778 422.375 424.293 412.41 424.695 C 411.3 424.752 410.208 424.779 409.146 424.779 C 400.784 424.779 394.27 423.08 394.185 420.67 C 394.091 417.952 402.064 415.436 412.032 415.034 C 412.996 414.995 413.943 414.974 414.869 414.974 Z" fill-rule="evenodd" style=""/>
    <path fill="#407bff" d="M 415.35 416.265 C 422.497 416.265 427.881 417.382 427.881 418.96 C 427.881 419.159 427.881 419.261 427.787 419.46 C 426.748 418.109 421.959 417.252 415.782 417.252 C 414.607 417.252 413.383 417.285 412.126 417.348 C 404.247 417.65 397.699 419.159 396.655 420.87 C 396.558 420.67 396.464 420.567 396.464 420.368 C 396.37 418.555 403.393 416.745 412.032 416.34 C 413.167 416.29 414.28 416.265 415.349 416.265 L 415.35 416.265 Z" fill-rule="evenodd" style=""/>
    <path fill="#00f5ff" d="M 415.35 416.265 C 422.497 416.265 427.881 417.382 427.881 418.96 C 427.881 419.159 427.881 419.261 427.787 419.46 C 426.748 418.109 421.959 417.252 415.782 417.252 C 414.607 417.252 413.383 417.285 412.126 417.348 C 404.247 417.65 397.699 419.159 396.655 420.87 C 396.558 420.67 396.464 420.567 396.464 420.368 C 396.37 418.555 403.393 416.745 412.032 416.34 C 413.167 416.29 414.28 416.265 415.349 416.265 L 415.35 416.265 Z" fill-rule="evenodd" style=""/>
    <path fill="#00f5ff" d="M 418.67 412.461 C 427.346 412.461 434.061 414.171 434.146 416.543 C 434.334 419.261 426.267 421.778 416.396 422.179 C 415.275 422.236 414.177 422.263 413.11 422.263 C 404.696 422.263 398.257 420.564 398.172 418.154 C 398.078 415.535 406.05 413.022 415.922 412.518 C 416.855 412.479 417.774 412.461 418.67 412.461 Z" fill-rule="evenodd" style=""/>
    <path fill="#00f5ff" d="M 434.05 411.713 L 434.24 416.543 L 398.172 418.153 L 397.984 413.323 L 434.05 411.713 Z" fill-rule="evenodd" style=""/>
    <path fill="#00f5ff" d="M 418.482 407.63 C 427.158 407.63 433.871 409.341 433.956 411.712 C 434.146 414.43 426.077 416.944 416.206 417.348 C 415.085 417.405 413.987 417.433 412.92 417.433 C 404.505 417.433 398.066 415.734 397.984 413.323 C 397.887 410.704 405.86 408.188 415.731 407.687 C 416.667 407.648 417.583 407.63 418.482 407.63 Z" fill-rule="evenodd" style=""/>
    <path fill="#407bff" d="M 418.644 408.945 C 426.023 408.945 431.594 409.998 431.677 411.612 C 431.677 411.812 431.677 412.014 431.583 412.114 C 430.547 410.761 425.69 409.905 419.49 409.905 C 418.311 409.905 417.085 409.938 415.828 410.002 C 407.949 410.403 401.495 411.812 400.451 413.522 C 400.357 413.423 400.26 413.221 400.26 413.022 C 400.166 411.208 407.189 409.398 415.828 408.994 C 416.789 408.96 417.731 408.945 418.644 408.945 Z" fill-rule="evenodd" style=""/>
    <path fill="#00f5ff" d="M 418.644 408.945 C 426.023 408.945 431.594 409.998 431.677 411.612 C 431.677 411.812 431.677 412.014 431.583 412.114 C 430.547 410.761 425.69 409.905 419.49 409.905 C 418.311 409.905 417.085 409.938 415.828 410.002 C 407.949 410.403 401.495 411.812 400.451 413.522 C 400.357 413.423 400.26 413.221 400.26 413.022 C 400.166 411.208 407.189 409.398 415.828 408.994 C 416.789 408.96 417.731 408.945 418.644 408.945 Z" fill-rule="evenodd" style=""/>
    <path fill="#00f5ff" d="M 412.951 406.221 C 421.558 406.221 428.279 407.932 428.45 410.303 C 428.546 413.022 420.574 415.535 410.606 416.039 C 409.682 416.078 408.77 416.096 407.88 416.096 C 399.258 416.096 392.469 414.385 392.384 412.014 C 392.287 409.296 400.26 406.779 410.228 406.279 C 411.152 406.239 412.063 406.221 412.951 406.221 Z" fill-rule="evenodd" style=""/>
    <path fill="#00f5ff" d="M 428.262 405.472 L 428.45 410.303 L 392.384 412.014 L 392.193 407.081 L 428.262 405.472 Z" fill-rule="evenodd" style=""/>
    <path fill="#00f5ff" d="M 412.763 401.391 C 421.367 401.391 428.089 403.102 428.262 405.472 C 428.356 408.188 420.383 410.704 410.416 411.208 C 409.493 411.247 408.585 411.265 407.698 411.265 C 399.088 411.265 392.364 409.546 392.193 407.081 C 392.099 404.465 400.072 401.948 410.037 401.445 C 410.962 401.409 411.872 401.391 412.763 401.391 Z" fill-rule="evenodd" style=""/>
    <path fill="#407bff" d="M 413.357 402.778 C 420.503 402.778 425.889 403.898 425.889 405.472 C 425.889 405.573 425.792 405.775 425.698 405.874 C 424.731 404.592 419.786 403.671 413.486 403.671 C 412.373 403.671 411.221 403.702 410.037 403.762 C 402.158 404.163 395.705 405.672 394.66 407.283 C 394.469 407.183 394.469 406.981 394.469 406.882 C 394.375 405.068 401.304 403.258 410.037 402.854 C 411.175 402.802 412.285 402.778 413.357 402.778 Z" fill-rule="evenodd" style=""/>
    <path fill="#00f5ff" d="M 413.357 402.778 C 420.503 402.778 425.889 403.898 425.889 405.472 C 425.889 405.573 425.792 405.775 425.698 405.874 C 424.731 404.592 419.786 403.671 413.486 403.671 C 412.373 403.671 411.221 403.702 410.037 403.762 C 402.158 404.163 395.705 405.672 394.66 407.283 C 394.469 407.183 394.469 406.981 394.469 406.882 C 394.375 405.068 401.304 403.258 410.037 402.854 C 411.175 402.802 412.285 402.778 413.357 402.778 Z" fill-rule="evenodd" style=""/>
    <path fill="#00f5ff" d="M 417.216 398.947 C 425.63 398.947 432.069 400.646 432.152 403.056 C 432.343 405.672 424.276 408.188 414.402 408.692 C 413.469 408.731 412.552 408.75 411.653 408.75 C 402.977 408.75 396.265 407.039 396.179 404.667 C 396.085 401.948 404.059 399.433 413.929 399.031 C 415.051 398.974 416.149 398.947 417.216 398.947 Z" fill-rule="evenodd" style=""/>
    <path fill="#00f5ff" d="M 432.058 398.126 L 432.249 402.957 L 396.179 404.667 L 395.989 399.734 L 432.058 398.126 Z" fill-rule="evenodd" style=""/>
    <path fill="#00f5ff" d="M 416.482 394.044 C 425.161 394.044 431.876 395.764 431.964 398.225 C 432.152 400.841 424.085 403.358 414.214 403.862 C 413.281 403.901 412.362 403.919 411.465 403.919 C 402.789 403.919 396.074 402.208 395.989 399.837 C 395.895 397.118 403.868 394.602 413.739 394.098 C 414.67 394.062 415.586 394.044 416.482 394.044 Z" fill-rule="evenodd" style=""/>
    <path fill="#407bff" d="M 417.148 395.432 C 424.279 395.432 429.602 396.548 429.685 398.126 C 429.685 398.225 429.685 398.428 429.591 398.527 C 428.541 397.245 423.584 396.325 417.284 396.325 C 416.172 396.325 415.017 396.355 413.833 396.416 C 405.956 396.817 399.501 398.325 398.456 399.936 C 398.362 399.837 398.268 399.635 398.268 399.535 C 398.171 397.722 405.197 395.911 413.833 395.507 C 414.971 395.456 416.081 395.432 417.148 395.432 Z" fill-rule="evenodd" style=""/>
    <path fill="#00f5ff" d="M 417.148 395.432 C 424.279 395.432 429.602 396.548 429.685 398.126 C 429.685 398.225 429.685 398.428 429.591 398.527 C 428.541 397.245 423.584 396.325 417.284 396.325 C 416.172 396.325 415.017 396.355 413.833 396.416 C 405.956 396.817 399.501 398.325 398.456 399.936 C 398.362 399.837 398.268 399.635 398.268 399.535 C 398.171 397.722 405.197 395.911 413.833 395.507 C 414.971 395.456 416.081 395.432 417.148 395.432 Z" fill-rule="evenodd" style=""/>
    <path fill="#00f5ff" d="M 407.345 393.715 C 408.404 393.715 409.497 393.742 410.606 393.797 C 420.574 394.201 428.546 396.817 428.45 399.432 C 428.279 401.803 421.558 403.515 412.88 403.515 C 411.983 403.515 411.067 403.497 410.131 403.46 C 400.26 403.056 392.287 400.44 392.384 397.824 C 392.466 395.41 398.98 393.715 407.345 393.715 Z" fill-rule="evenodd" style=""/>
    <path fill="#00f5ff" d="M 407.507 388.881 C 408.574 388.881 409.675 388.909 410.796 388.966 C 420.761 389.37 428.734 391.887 428.64 394.602 C 428.469 397.055 421.809 398.687 413.187 398.687 C 412.254 398.687 411.295 398.669 410.322 398.627 C 400.451 398.126 392.478 395.609 392.572 392.99 C 392.657 390.58 399.096 388.881 407.507 388.881 Z" fill-rule="evenodd" style=""/>
    <path fill="#407bff" d="M 407.385 390.197 C 408.455 390.197 409.565 390.221 410.703 390.276 C 419.432 390.677 426.361 392.49 426.267 394.3 C 426.267 394.502 426.267 394.602 426.077 394.804 C 425.129 393.093 418.579 391.582 410.703 391.181 C 409.69 391.141 408.697 391.123 407.735 391.123 C 401.208 391.123 396.031 391.992 395.041 393.395 C 394.945 393.193 394.851 393.093 394.851 392.891 C 394.933 391.316 400.257 390.197 407.385 390.197 Z" fill-rule="evenodd" style=""/>
    <path fill="#00f5ff" d="M 407.385 390.197 C 408.455 390.197 409.565 390.221 410.703 390.276 C 419.432 390.677 426.361 392.49 426.267 394.3 C 426.267 394.502 426.267 394.602 426.077 394.804 C 425.129 393.093 418.579 391.582 410.703 391.181 C 409.69 391.141 408.697 391.123 407.735 391.123 C 401.208 391.123 396.031 391.992 395.041 393.395 C 394.945 393.193 394.851 393.093 394.851 392.891 C 394.933 391.316 400.257 390.197 407.385 390.197 Z" fill-rule="evenodd" style=""/>
    <path fill="#00f5ff" d="M 403.945 386.392 C 404.878 386.392 405.837 386.41 406.81 386.449 C 416.775 386.854 424.748 389.47 424.56 392.086 C 424.475 394.499 418.035 396.195 409.624 396.195 C 408.554 396.195 407.456 396.168 406.335 396.113 C 396.464 395.709 388.491 393.193 388.585 390.477 C 388.67 388.025 395.326 386.392 403.945 386.392 Z" fill-rule="evenodd" style=""/>
    <path fill="#00f5ff" d="M 388.776 385.644 L 424.844 387.256 L 424.654 392.086 L 388.585 390.477 L 388.776 385.644 Z" fill-rule="evenodd" style=""/>
    <path fill="#00f5ff" d="M 403.583 381.631 C 404.69 381.631 405.834 381.662 407.001 381.719 C 416.965 382.123 424.938 384.64 424.748 387.355 C 424.663 389.726 417.95 391.437 409.345 391.437 C 408.455 391.437 407.544 391.419 406.62 391.383 C 396.655 390.879 388.682 388.363 388.776 385.747 C 388.858 383.258 395.232 381.631 403.583 381.631 Z" fill-rule="evenodd" style=""/>
    <path fill="#407bff" d="M 403.618 382.85 C 404.679 382.85 405.78 382.874 406.904 382.929 C 415.637 383.33 422.565 385.143 422.471 386.953 C 422.471 387.155 422.471 387.355 422.281 387.458 C 421.333 385.747 414.783 384.235 406.904 383.934 C 405.646 383.87 404.42 383.84 403.242 383.84 C 397.044 383.84 392.202 384.694 391.243 386.048 C 391.149 385.846 391.055 385.747 391.055 385.544 C 391.137 383.97 396.532 382.85 403.618 382.85 Z" fill-rule="evenodd" style=""/>
    <path fill="#00f5ff" d="M 403.618 382.85 C 404.679 382.85 405.78 382.874 406.904 382.929 C 415.637 383.33 422.565 385.143 422.471 386.953 C 422.471 387.155 422.471 387.355 422.281 387.458 C 421.333 385.747 414.783 384.235 406.904 383.934 C 405.646 383.87 404.42 383.84 403.242 383.84 C 397.044 383.84 392.202 384.694 391.243 386.048 C 391.149 385.846 391.055 385.747 391.055 385.544 C 391.137 383.97 396.532 382.85 403.618 382.85 Z" fill-rule="evenodd" style=""/>
    <path fill="#00f5ff" d="M 404.557 377.537 C 405.45 377.537 406.36 377.555 407.286 377.594 C 417.25 378.099 425.223 380.614 425.129 383.23 C 425.043 385.641 418.607 387.339 410.193 387.339 C 409.126 387.339 408.025 387.313 406.904 387.255 C 396.939 386.854 388.966 384.337 389.06 381.619 C 389.146 379.248 395.937 377.537 404.556 377.537 L 404.557 377.537 Z" fill-rule="evenodd" style=""/>
    <path fill="#00f5ff" d="M 389.251 376.789 L 425.32 378.4 L 425.129 383.23 L 389.06 381.619 L 389.251 376.789 Z" fill-rule="evenodd" style=""/>
    <path fill="#00f5ff" d="M 404.747 372.707 C 405.638 372.707 406.548 372.725 407.473 372.764 C 417.441 373.265 425.414 375.781 425.32 378.4 C 425.235 380.811 418.721 382.509 410.355 382.509 C 409.297 382.509 408.205 382.482 407.095 382.425 C 397.127 382.024 389.154 379.507 389.251 376.789 C 389.336 374.417 396.129 372.707 404.747 372.707 Z" fill-rule="evenodd" style=""/>
    <path fill="#407bff" d="M 403.893 374.088 C 405.018 374.088 406.184 374.115 407.379 374.173 C 416.112 374.474 423.041 376.285 423.041 378.098 C 423.041 378.298 422.947 378.5 422.85 378.599 C 421.805 376.888 415.258 375.479 407.379 375.078 C 406.121 375.015 404.895 374.981 403.723 374.981 C 397.545 374.981 392.753 375.838 391.718 377.19 C 391.624 377.09 391.527 376.888 391.527 376.689 C 391.61 375.126 396.905 374.088 403.893 374.088 Z" fill-rule="evenodd" style=""/>
    <path fill="#00f5ff" d="M 403.893 374.088 C 405.018 374.088 406.184 374.115 407.379 374.173 C 416.112 374.474 423.041 376.285 423.041 378.098 C 423.041 378.298 422.947 378.5 422.85 378.599 C 421.805 376.888 415.258 375.479 407.379 375.078 C 406.121 375.015 404.895 374.981 403.723 374.981 C 397.545 374.981 392.753 375.838 391.718 377.19 C 391.624 377.09 391.527 376.888 391.527 376.689 C 391.61 375.126 396.905 374.088 403.893 374.088 Z" fill-rule="evenodd" style=""/>
    <path fill="#00f5ff" d="M 400.647 370.29 C 401.574 370.29 402.522 370.308 403.487 370.347 C 413.455 370.751 421.427 373.367 421.333 375.983 C 421.248 378.394 414.735 380.092 406.369 380.092 C 405.311 380.092 404.218 380.065 403.108 380.008 C 393.14 379.607 385.167 377.09 385.264 374.372 C 385.35 371.922 392.079 370.29 400.647 370.29 Z" fill-rule="evenodd" style=""/>
    <path fill="#00f5ff" d="M 385.549 369.442 L 421.618 371.152 L 421.333 375.983 L 385.358 374.372 L 385.549 369.442 Z" fill-rule="evenodd" style=""/>
    <path fill="#00f5ff" d="M 400.951 365.36 C 401.842 365.36 402.753 365.378 403.677 365.417 C 413.645 365.918 421.618 368.434 421.521 371.053 C 421.436 373.515 414.641 375.235 406.019 375.235 C 405.128 375.235 404.221 375.217 403.299 375.177 C 393.331 374.673 385.358 372.16 385.455 369.442 C 385.54 367.071 392.33 365.36 400.951 365.36 Z" fill-rule="evenodd" style=""/>
    <path fill="#407bff" d="M 400.462 366.651 C 401.472 366.651 402.516 366.675 403.583 366.724 C 412.316 367.128 419.338 368.938 419.244 370.751 C 419.244 370.95 419.148 371.053 419.054 371.252 C 418.01 369.542 411.46 368.033 403.583 367.628 C 402.57 367.592 401.58 367.571 400.621 367.571 C 394.111 367.571 388.998 368.44 387.922 369.843 C 387.826 369.644 387.826 369.542 387.731 369.343 C 387.814 367.84 393.294 366.651 400.462 366.651 Z" fill-rule="evenodd" style=""/>
    <path fill="#00f5ff" d="M 400.462 366.651 C 401.472 366.651 402.516 366.675 403.583 366.724 C 412.316 367.128 419.338 368.938 419.244 370.751 C 419.244 370.95 419.148 371.053 419.054 371.252 C 418.01 369.542 411.46 368.033 403.583 367.628 C 402.57 367.592 401.58 367.571 400.621 367.571 C 394.111 367.571 388.998 368.44 387.922 369.843 C 387.826 369.644 387.826 369.542 387.731 369.343 C 387.814 367.84 393.294 366.651 400.462 366.651 Z" fill-rule="evenodd" style=""/>
    <path fill="#00f5ff" d="M 405.991 364.023 C 407.058 364.023 408.156 364.05 409.277 364.108 C 419.148 364.509 427.027 367.025 427.027 369.744 C 427.027 372.115 420.243 373.826 411.624 373.826 C 410.734 373.826 409.823 373.808 408.899 373.768 C 398.931 373.265 390.958 370.751 391.055 368.132 C 391.137 365.722 397.576 364.023 405.991 364.023 Z" fill-rule="evenodd" style=""/>
    <path fill="#00f5ff" d="M 391.243 363.203 L 427.312 364.913 L 427.121 369.744 L 391.055 368.132 L 391.243 363.203 Z" fill-rule="evenodd" style=""/>
    <path fill="#00f5ff" d="M 406.204 359.193 C 407.265 359.193 408.355 359.22 409.468 359.277 C 419.432 359.679 427.406 362.194 427.312 364.913 C 427.226 367.285 420.434 368.996 411.816 368.996 C 410.925 368.996 410.014 368.977 409.087 368.938 C 399.122 368.434 391.149 365.918 391.243 363.302 C 391.328 360.892 397.841 359.193 406.204 359.193 Z" fill-rule="evenodd" style=""/>
    <path fill="#407bff" d="M 406.085 360.508 C 407.149 360.508 408.247 360.532 409.374 360.584 C 418.104 360.988 425.032 362.798 425.032 364.611 C 425.032 364.711 424.938 364.913 424.844 365.012 C 423.8 363.402 417.25 361.893 409.374 361.492 C 408.191 361.431 407.038 361.402 405.928 361.402 C 399.648 361.402 394.76 362.321 393.712 363.604 C 393.616 363.504 393.522 363.302 393.522 363.203 C 393.604 361.627 398.999 360.508 406.085 360.508 Z" fill-rule="evenodd" style=""/>
    <path fill="#00f5ff" d="M 406.085 360.508 C 407.149 360.508 408.247 360.532 409.374 360.584 C 418.104 360.988 425.032 362.798 425.032 364.611 C 425.032 364.711 424.938 364.913 424.844 365.012 C 423.8 363.402 417.25 361.893 409.374 361.492 C 408.191 361.431 407.038 361.402 405.928 361.402 C 399.648 361.402 394.76 362.321 393.712 363.604 C 393.616 363.504 393.522 363.302 393.522 363.203 C 393.604 361.627 398.999 360.508 406.085 360.508 Z" fill-rule="evenodd" style=""/>
    <path fill="#00f5ff" d="M 406.395 361.431 C 407.359 361.431 408.355 361.452 409.374 361.492 C 417.25 361.893 423.8 363.402 424.844 365.012 C 423.769 366.416 418.585 367.285 412.117 367.285 C 411.164 367.285 410.182 367.266 409.183 367.227 C 401.304 366.826 394.757 365.314 393.712 363.604 C 394.785 362.288 399.89 361.431 406.395 361.431 Z" fill-rule="evenodd" style=""/>
    <path fill="#00f5ff" d="M 402.192 356.677 C 403.259 356.677 404.36 356.703 405.481 356.761 C 415.446 357.162 423.419 359.679 423.325 362.397 C 423.157 364.807 416.709 366.506 408.361 366.506 C 407.302 366.506 406.212 366.479 405.1 366.422 C 395.135 366.02 387.162 363.402 387.256 360.786 C 387.341 358.375 393.781 356.677 402.192 356.677 Z" fill-rule="evenodd" style=""/>
    <path fill="#00f5ff" d="M 387.447 355.955 L 423.516 357.567 L 423.325 362.397 L 387.256 360.786 L 387.447 355.955 Z" fill-rule="evenodd" style=""/>
    <path fill="#00f5ff" d="M 402.411 351.846 C 403.47 351.846 404.559 351.873 405.672 351.93 C 415.637 352.332 423.61 354.848 423.516 357.567 C 423.43 359.938 416.639 361.648 408.02 361.648 C 407.126 361.648 406.216 361.63 405.291 361.591 C 395.326 361.087 387.353 358.571 387.447 355.955 C 387.615 353.544 394.063 351.846 402.411 351.846 Z" fill-rule="evenodd" style=""/>
    <path fill="#00f5ff" d="M 402.289 353.161 C 403.35 353.161 404.451 353.185 405.575 353.237 C 414.308 353.641 421.333 355.451 421.237 357.265 C 421.237 357.464 421.143 357.567 421.046 357.766 C 420.004 356.054 413.455 354.546 405.575 354.145 C 404.565 354.106 403.574 354.085 402.616 354.085 C 396.103 354.085 390.989 354.954 389.913 356.357 C 389.82 356.157 389.82 356.054 389.82 355.855 C 389.82 354.278 395.203 353.161 402.289 353.161 Z" fill-rule="evenodd" style=""/>
    <path fill="#00f5ff" d="M 407.945 321.904 C 409.866 321.904 411.823 322.269 413.739 323.044 C 422.091 326.366 426.361 336.229 423.231 345.186 C 420.801 352.129 414.609 356.353 408.057 356.353 C 406.156 356.353 404.226 355.997 402.348 355.251 C 393.9 351.93 389.629 341.964 392.762 333.109 C 395.257 326.182 401.387 321.904 407.945 321.904 Z" fill-rule="evenodd" style=""/>
    <path fill="#00f5ff" d="M 406.273 322.755 C 410.85 322.755 415.392 324.791 418.579 328.782 C 424.464 336.027 423.61 346.997 416.775 353.137 C 413.73 355.874 410.006 357.21 406.292 357.21 C 401.671 357.21 397.067 355.14 393.806 351.124 C 388.016 343.877 388.87 333.01 395.705 326.87 C 398.774 324.109 402.536 322.755 406.273 322.755 Z" fill-rule="evenodd" style=""/>
    <path fill="#ffffff" d="M 406.335 334.618 L 403.393 336.027 C 402.823 336.329 402.348 336.733 401.97 337.237 C 401.78 337.638 401.78 338.241 401.97 338.646 C 402.158 339.147 402.539 339.448 403.014 339.551 C 403.131 339.569 403.245 339.575 403.358 339.575 C 403.879 339.575 404.349 339.397 404.815 339.147 L 407.757 337.84 L 406.335 334.618 Z M 408.614 340.055 L 405.29 341.663 C 403.677 342.369 403.202 343.374 403.677 344.381 C 403.771 344.985 404.246 345.389 404.721 345.489 L 404.721 345.389 C 405.387 345.389 406.05 345.287 406.619 344.985 L 410.036 343.274 L 408.614 340.055 Z M 408.233 330.895 L 413.929 344.282 L 410.89 345.691 L 411.366 346.695 L 409.943 347.299 L 409.562 346.394 L 408.139 347.1 L 408.517 348.005 L 407.095 348.708 L 406.716 347.703 C 405.939 348.074 405.063 348.283 404.195 348.283 C 403.893 348.283 403.592 348.258 403.299 348.207 C 402.254 348.005 401.4 347.199 400.926 346.192 C 400.544 345.489 400.45 344.583 400.544 343.778 C 400.735 342.972 401.21 342.266 401.78 341.766 C 401.114 341.766 400.544 341.563 400.072 341.162 C 399.5 340.758 399.121 340.254 398.837 339.651 C 398.362 338.646 398.455 337.436 399.027 336.531 C 399.5 335.725 400.166 335.022 401.02 334.518 L 400.641 333.511 L 402.064 332.907 L 402.442 333.812 L 403.771 333.109 L 403.393 332.205 L 404.815 331.498 L 405.196 332.404 L 408.233 330.895 Z" fill-rule="evenodd" style=""/>
    <path fill="#407bff" d="M 270.627 430.732 C 272.668 430.732 274.02 431.137 274.21 431.942 C 274.494 433.451 270.13 435.967 264.242 437.578 C 261.394 438.369 258.73 438.749 256.713 438.749 C 254.631 438.749 253.236 438.345 253.043 437.578 C 252.664 436.066 257.029 433.451 262.913 431.942 C 265.858 431.137 268.587 430.732 270.627 430.732 Z" fill-rule="evenodd" style=""/>
    <path fill="#407bff" d="M 273.45 429.124 L 274.116 431.942 L 253.043 437.578 L 252.38 434.76 L 273.45 429.124 Z" fill-rule="evenodd" style=""/>
    <path fill="#407bff" d="M 269.879 427.914 C 271.908 427.914 273.26 428.319 273.45 429.124 C 273.831 430.732 269.464 433.149 263.579 434.76 C 260.685 435.566 257.979 435.967 255.951 435.967 C 253.922 435.967 252.57 435.566 252.38 434.76 C 251.998 433.149 256.366 430.732 262.25 429.124 C 265.145 428.319 267.851 427.914 269.879 427.914 Z" fill-rule="evenodd" style=""/>
    <path fill="#ffffff" d="M 269.879 427.914 C 271.908 427.914 273.26 428.319 273.45 429.124 C 273.831 430.732 269.464 433.149 263.579 434.76 C 260.685 435.566 257.979 435.967 255.951 435.967 C 253.922 435.967 252.57 435.566 252.38 434.76 C 251.998 433.149 256.366 430.732 262.25 429.124 C 265.145 428.319 267.851 427.914 269.879 427.914 Z" fill-rule="evenodd" style=""/>
    <path fill="#407bff" d="M 269.751 428.687 C 271.068 428.687 271.905 428.898 272.027 429.323 C 272.027 429.426 272.027 429.525 272.027 429.625 C 271.723 429.341 271.028 429.209 270.05 429.209 C 268.266 429.209 265.537 429.652 262.535 430.431 C 257.979 431.641 254.277 433.351 253.802 434.459 C 253.708 434.459 253.708 434.356 253.708 434.256 C 253.424 433.149 257.22 431.236 262.344 429.827 C 265.298 429.076 267.964 428.687 269.751 428.687 Z" fill-rule="evenodd" style=""/>
    <path fill="#407bff" d="M 269.751 428.687 C 271.068 428.687 271.905 428.898 272.027 429.323 C 272.027 429.426 272.027 429.525 272.027 429.625 C 271.723 429.341 271.028 429.209 270.05 429.209 C 268.266 429.209 265.537 429.652 262.535 430.431 C 257.979 431.641 254.277 433.351 253.802 434.459 C 253.708 434.459 253.708 434.356 253.708 434.256 C 253.424 433.149 257.22 431.236 262.344 429.827 C 265.298 429.076 267.964 428.687 269.751 428.687 Z" fill-rule="evenodd" style=""/>
    <path fill="#407bff" d="M 270.033 429.251 C 271.02 429.251 271.723 429.375 272.027 429.625 C 271.646 430.732 267.944 432.545 263.295 433.753 C 260.455 434.506 257.834 434.908 256.036 434.908 C 254.949 434.908 254.161 434.76 253.802 434.459 C 254.277 433.351 257.979 431.641 262.535 430.431 C 265.528 429.655 268.245 429.251 270.033 429.251 Z" fill-rule="evenodd" style=""/>
    <path fill="#00f5ff" d="M 251.921 440.245 C 252.562 440.245 253.222 440.261 253.899 440.294 C 259.877 440.595 264.718 442.107 264.624 443.718 C 264.535 445.19 260.478 446.159 255.137 446.159 C 254.638 446.159 254.129 446.15 253.611 446.132 C 247.634 445.83 242.793 444.321 242.887 442.711 C 242.887 441.28 246.788 440.245 251.921 440.245 Z" fill-rule="evenodd" style=""/>
    <path fill="#00f5ff" d="M 242.981 439.793 L 264.814 440.798 L 264.624 443.718 L 242.887 442.711 L 242.981 439.793 Z" fill-rule="evenodd" style=""/>
    <path fill="#00f5ff" d="M 252.018 437.328 C 252.659 437.328 253.318 437.343 253.993 437.376 C 259.971 437.678 264.814 439.187 264.718 440.798 C 264.718 442.23 260.819 443.262 255.686 443.262 C 255.043 443.262 254.382 443.247 253.708 443.214 C 247.727 442.913 242.887 441.401 242.981 439.793 C 243.066 438.359 246.902 437.328 252.018 437.328 Z" fill-rule="evenodd" style=""/>
    <path fill="#00f5ff" d="M 251.566 438.212 C 252.342 438.212 253.156 438.233 253.993 438.281 C 259.214 438.483 263.389 439.591 263.389 440.698 C 263.389 440.798 263.389 440.9 263.295 441 C 262.629 439.992 258.642 439.086 253.899 438.785 C 253.278 438.758 252.673 438.746 252.086 438.746 C 248.168 438.746 245.067 439.307 244.407 440.095 C 244.407 439.992 244.309 439.893 244.309 439.793 C 244.309 438.858 247.411 438.212 251.566 438.212 Z" fill-rule="evenodd" style=""/>
    <path fill="#00f5ff" d="M 267.931 410.285 C 273.214 410.285 278.393 413.019 281.517 418.052 C 286.454 426.004 284.366 436.673 276.867 441.905 C 274.116 443.823 271.009 444.741 267.933 444.741 C 262.62 444.741 257.402 442.007 254.277 436.974 C 249.438 429.021 251.526 418.254 259.024 413.121 C 261.773 411.203 264.869 410.285 267.931 410.285 Z" fill-rule="evenodd" style=""/>
    <path fill="#00f5ff" d="M 266.294 411.664 C 275.007 411.664 283.259 419.183 282.658 429.929 C 282.101 439.898 274.33 446.188 266.302 446.188 C 262.015 446.188 257.649 444.39 254.277 440.396 C 248.296 433.248 248.962 422.381 255.607 416.039 C 258.828 413.015 262.601 411.664 266.294 411.664 Z" fill-rule="evenodd" style=""/>
    <path fill="#ffffff" d="M 265.463 424.197 C 265.113 424.197 264.706 424.327 264.242 424.596 L 266.237 426.909 C 266.712 426.306 266.806 425.501 266.522 424.795 C 266.257 424.402 265.904 424.197 265.463 424.197 Z M 267.091 431.034 C 266.712 431.538 266.615 432.343 266.9 432.947 C 267.108 433.33 267.424 433.505 267.822 433.505 C 268.161 433.505 268.556 433.378 268.988 433.149 L 267.091 431.034 Z M 260.828 420.77 L 262.344 422.48 C 263.645 421.481 264.902 420.978 266.018 420.978 C 267.264 420.978 268.334 421.608 269.085 422.885 C 270.414 425.096 269.273 427.311 268.135 429.124 L 270.508 431.74 C 271.552 430.633 272.215 429.224 272.597 427.715 L 274.97 429.124 C 274.494 430.835 273.544 432.443 272.406 433.753 L 273.925 435.566 L 272.406 436.974 L 270.886 435.264 C 269.645 436.25 268.402 436.754 267.287 436.754 C 266.015 436.754 264.908 436.1 264.148 434.76 C 262.913 432.645 264.055 430.533 265.099 428.72 L 262.629 426.004 C 261.872 426.807 261.3 427.914 260.922 429.021 L 258.739 427.613 C 259.215 426.306 259.877 424.997 260.828 423.989 L 259.309 422.278 L 260.828 420.77 Z" fill-rule="evenodd" style=""/>
    <path fill="#00f5ff" d="M 458.615 441.857 C 463.734 441.857 467.567 442.889 467.652 444.321 C 467.746 445.93 462.906 447.441 456.925 447.743 C 456.41 447.758 455.901 447.767 455.402 447.767 C 450.047 447.767 445.915 446.799 445.915 445.326 C 445.822 443.718 450.662 442.107 456.64 441.905 C 457.318 441.872 457.975 441.857 458.615 441.857 Z" fill-rule="evenodd" style=""/>
    <path fill="#00f5ff" d="M 467.555 441.401 L 467.652 444.321 L 445.915 445.326 L 445.822 442.409 L 467.555 441.401 Z" fill-rule="evenodd" style=""/>
    <path fill="#00f5ff" d="M 458.521 438.936 C 463.637 438.936 467.473 439.971 467.555 441.401 C 467.652 443.012 462.812 444.52 456.737 444.822 C 456.071 444.858 455.42 444.874 454.788 444.874 C 449.72 444.874 445.822 443.839 445.822 442.408 C 445.725 440.698 450.568 439.187 456.546 438.987 C 457.221 438.954 457.881 438.936 458.521 438.936 Z" fill-rule="evenodd" style=""/>
    <path fill="#00f5ff" d="M 458.504 439.754 C 462.815 439.754 466.132 440.336 466.132 441.301 C 466.132 441.401 466.132 441.503 466.039 441.603 C 465.492 440.858 462.63 440.318 458.99 440.318 C 458.208 440.318 457.386 440.342 456.546 440.396 C 451.8 440.595 447.91 441.503 447.245 442.509 C 447.151 442.408 447.151 442.309 447.151 442.206 C 447.151 441.099 451.325 439.992 456.546 439.793 C 457.215 439.766 457.869 439.754 458.504 439.754 Z" fill-rule="evenodd" style=""/>
    <path fill="#00f5ff" d="M 460.897 437.427 C 466.031 437.427 469.928 438.462 469.928 439.893 C 469.928 441.503 465.185 443.012 459.204 443.314 C 458.687 443.332 458.18 443.341 457.682 443.341 C 452.341 443.341 448.281 442.372 448.195 440.9 C 448.098 439.289 452.938 437.678 458.919 437.476 C 459.594 437.443 460.254 437.427 460.897 437.427 Z" fill-rule="evenodd" style=""/>
    <path fill="#00f5ff" d="M 469.835 436.872 L 470.025 439.893 L 448.195 440.798 L 448.098 437.88 L 469.835 436.872 Z" fill-rule="evenodd" style=""/>
    <path fill="#00f5ff" d="M 460.706 434.51 C 465.839 434.51 469.741 435.541 469.741 436.975 C 469.741 438.583 464.995 440.095 459.013 440.396 C 458.339 440.429 457.679 440.444 457.039 440.444 C 451.923 440.444 448.09 439.412 448.004 437.979 C 447.911 436.269 452.75 434.76 458.729 434.558 C 459.403 434.525 460.066 434.51 460.706 434.51 Z" fill-rule="evenodd" style=""/>
    <path fill="#00f5ff" d="M 460.781 435.324 C 465.091 435.324 468.412 435.906 468.412 436.872 C 468.412 436.975 468.412 437.075 468.315 437.174 C 467.769 436.429 464.909 435.888 461.27 435.888 C 460.485 435.888 459.665 435.913 458.826 435.967 C 454.08 436.169 450.187 437.075 449.524 438.082 C 449.524 437.979 449.427 437.88 449.427 437.777 C 449.427 436.673 453.604 435.566 458.826 435.363 C 459.494 435.337 460.148 435.324 460.781 435.324 Z" fill-rule="evenodd" style=""/>
    <path fill="#00f5ff" d="M 460.61 432.031 C 465.726 432.031 469.562 433.066 469.644 434.497 C 469.644 436.108 464.898 437.617 458.919 437.918 C 458.401 437.936 457.892 437.945 457.395 437.945 C 452.039 437.945 447.911 436.977 447.911 435.504 C 447.814 433.893 452.654 432.282 458.635 432.08 C 459.309 432.047 459.97 432.031 460.61 432.031 Z" fill-rule="evenodd" style=""/>
    <path fill="#00f5ff" d="M 469.55 431.538 L 469.644 434.558 L 447.911 435.463 L 447.814 432.545 L 469.55 431.538 Z" fill-rule="evenodd" style=""/>
    <path fill="#00f5ff" d="M 460.49 429.176 C 465.555 429.176 469.464 430.208 469.55 431.641 C 469.55 433.249 464.804 434.76 458.729 435.062 C 458.066 435.095 457.414 435.11 456.78 435.11 C 451.715 435.11 447.814 434.079 447.814 432.645 C 447.72 430.935 452.56 429.426 458.541 429.224 C 459.204 429.191 459.855 429.176 460.49 429.176 Z" fill-rule="evenodd" style=""/>
    <path fill="#00f5ff" d="M 460.311 429.996 C 464.71 429.996 468.127 430.648 468.127 431.538 C 468.127 431.641 468.127 431.74 468.031 431.84 C 467.485 431.094 464.625 430.555 460.983 430.555 C 460.2 430.555 459.381 430.578 458.541 430.633 C 453.795 430.835 449.902 431.74 449.24 432.748 C 449.142 432.645 449.142 432.545 449.142 432.443 C 449.142 431.339 453.32 430.232 458.541 430.029 C 459.144 430.005 459.736 429.996 460.311 429.996 Z" fill-rule="evenodd" style=""/>
    <path fill="#00f5ff" d="M 462.889 427.664 C 468.022 427.664 471.923 428.699 471.923 430.129 C 471.923 431.74 467.177 433.249 461.199 433.551 C 460.681 433.569 460.172 433.577 459.674 433.577 C 454.333 433.577 450.275 432.609 450.187 431.137 C 450.093 429.525 454.933 427.914 460.912 427.715 C 461.588 427.682 462.249 427.664 462.889 427.664 Z" fill-rule="evenodd" style=""/>
    <path fill="#00f5ff" d="M 471.83 427.212 L 471.923 430.129 L 450.187 431.034 L 450.093 428.117 L 471.83 427.212 Z" fill-rule="evenodd" style=""/>
    <path fill="#00f5ff" d="M 462.767 424.746 C 467.834 424.746 471.744 425.781 471.83 427.212 C 471.924 428.822 467.084 430.331 461.102 430.633 C 460.427 430.666 459.768 430.684 459.124 430.684 C 453.991 430.684 450.093 429.649 450.093 428.216 C 449.996 426.608 454.839 425.096 460.818 424.795 C 461.483 424.762 462.135 424.746 462.767 424.746 Z" fill-rule="evenodd" style=""/>
    <path fill="#00f5ff" d="M 462.587 425.567 C 466.99 425.567 470.404 426.221 470.404 427.111 C 470.404 427.212 470.404 427.311 470.31 427.414 C 469.764 426.668 466.901 426.125 463.262 426.125 C 462.479 426.125 461.66 426.152 460.818 426.203 C 456.071 426.405 452.181 427.311 451.516 428.319 C 451.516 428.216 451.422 428.117 451.422 428.017 C 451.422 426.909 455.596 425.802 460.818 425.6 C 461.421 425.576 462.012 425.567 462.587 425.567 Z" fill-rule="evenodd" style=""/>
    <path fill="#00f5ff" d="M 458.994 423.866 C 464.277 423.866 468.412 424.84 468.412 426.405 C 468.506 428.017 463.666 429.525 457.684 429.827 C 457.207 429.842 456.734 429.851 456.273 429.851 C 450.879 429.851 446.764 428.795 446.675 427.311 C 446.581 425.703 451.422 424.191 457.496 423.89 C 458.003 423.871 458.504 423.866 458.994 423.866 Z" fill-rule="evenodd" style=""/>
    <path fill="#00f5ff" d="M 468.315 423.385 L 468.506 426.306 L 446.675 427.311 L 446.581 424.394 L 468.315 423.385 Z" fill-rule="evenodd" style=""/>
    <path fill="#00f5ff" d="M 458.72 420.948 C 464.127 420.948 468.315 422.004 468.315 423.488 C 468.412 425.096 463.569 426.608 457.59 426.909 C 457.113 426.925 456.64 426.934 456.179 426.934 C 450.781 426.934 446.667 425.877 446.581 424.394 C 446.485 422.782 451.325 421.274 457.306 420.972 C 457.784 420.957 458.256 420.948 458.72 420.948 Z" fill-rule="evenodd" style=""/>
    <path fill="#00f5ff" d="M 459.275 421.838 C 463.64 421.838 466.904 422.432 466.986 423.488 C 466.986 423.587 466.892 423.687 466.892 423.687 C 466.266 422.942 463.458 422.402 459.839 422.402 C 459.059 422.402 458.242 422.426 457.4 422.48 C 452.654 422.683 448.668 423.587 448.004 424.596 C 448.004 424.493 447.91 424.394 447.91 424.294 C 447.91 423.286 452.085 422.179 457.306 421.877 C 457.981 421.853 458.641 421.838 459.275 421.838 Z" fill-rule="evenodd" style=""/>
    <path fill="#00f5ff" d="M 466.304 437.213 C 468.332 437.213 471.021 437.59 473.915 438.384 C 479.706 439.992 484.168 442.509 483.789 444.02 C 483.599 444.822 482.244 445.226 480.215 445.226 C 478.187 445.226 475.483 444.822 472.587 444.02 C 466.702 442.509 462.337 439.992 462.622 438.384 C 462.815 437.614 464.207 437.213 466.304 437.213 Z" fill-rule="evenodd" style=""/>
    <path fill="#00f5ff" d="M 463.382 435.566 L 484.452 441.202 L 483.789 444.02 L 462.622 438.384 L 463.382 435.566 Z" fill-rule="evenodd" style=""/>
    <path fill="#00f5ff" d="M 467.015 434.395 C 469.021 434.395 471.685 434.772 474.581 435.566 C 480.372 437.174 484.83 439.69 484.452 441.202 C 484.262 442.004 482.91 442.408 480.881 442.408 C 478.852 442.408 476.147 442.004 473.252 441.202 C 467.368 439.591 463 437.174 463.382 435.566 C 463.575 434.796 464.944 434.395 467.015 434.395 Z" fill-rule="evenodd" style=""/>
    <path fill="#00f5ff" d="M 467.095 435.156 C 468.89 435.156 471.565 435.566 474.487 436.369 C 479.515 437.678 483.408 439.69 483.123 440.798 C 483.123 440.798 483.029 440.9 483.029 441 C 482.554 439.893 478.852 438.182 474.297 436.872 C 471.397 436.121 468.754 435.72 466.97 435.72 C 465.891 435.72 465.126 435.864 464.804 436.169 C 464.71 436.067 464.71 435.967 464.804 435.867 C 464.887 435.391 465.74 435.156 467.095 435.156 Z" fill-rule="evenodd" style=""/>
    <path fill="#00f5ff" d="M 484.882 441.857 C 489.949 441.857 493.859 442.889 493.944 444.321 C 493.944 445.93 489.198 447.441 483.123 447.743 C 482.614 447.758 482.113 447.767 481.621 447.767 C 476.337 447.767 472.2 446.799 472.114 445.326 C 472.114 443.718 476.858 442.107 482.933 441.905 C 483.599 441.872 484.25 441.857 484.882 441.857 Z" fill-rule="evenodd" style=""/>
    <path fill="#00f5ff" d="M 493.848 441.401 L 493.944 444.321 L 472.114 445.226 L 472.018 442.309 L 493.848 441.401 Z" fill-rule="evenodd" style=""/>
    <path fill="#00f5ff" d="M 484.722 438.936 C 489.855 438.936 493.754 439.971 493.754 441.401 C 493.848 443.012 489.008 444.52 483.029 444.822 C 482.352 444.858 481.695 444.874 481.055 444.874 C 475.936 444.874 472.103 443.839 472.018 442.408 C 471.924 440.698 476.764 439.187 482.745 438.987 C 483.419 438.954 484.079 438.936 484.722 438.936 Z" fill-rule="evenodd" style=""/>
    <path fill="#00f5ff" d="M 484.728 439.754 C 489.084 439.754 492.343 440.336 492.425 441.301 C 492.425 441.401 492.331 441.503 492.331 441.603 C 491.705 440.858 488.896 440.318 485.275 440.318 C 484.495 440.318 483.678 440.342 482.839 440.396 C 478.093 440.595 474.106 441.503 473.443 442.509 C 473.443 442.408 473.346 442.309 473.346 442.206 C 473.346 441.099 477.524 439.992 482.745 439.793 C 483.425 439.766 484.088 439.754 484.728 439.754 Z" fill-rule="evenodd" style=""/>
    <path fill="#00f5ff" d="M 372.172 441.655 C 377.393 441.655 381.382 442.698 381.468 444.219 C 381.562 445.83 376.531 447.441 370.362 447.64 C 369.679 447.676 369.011 447.692 368.361 447.692 C 363.14 447.692 359.151 446.648 359.066 445.127 C 358.972 443.516 363.906 441.905 370.171 441.702 C 370.854 441.669 371.523 441.655 372.172 441.655 Z" fill-rule="evenodd" style=""/>
    <path fill="#00f5ff" d="M 381.371 441.099 L 381.468 444.119 L 359.066 445.127 L 358.972 442.107 L 381.371 441.099 Z" fill-rule="evenodd" style=""/>
    <path fill="#00f5ff" d="M 372.01 438.634 C 377.297 438.634 381.277 439.678 381.277 441.202 C 381.371 442.81 376.437 444.421 370.265 444.723 C 369.779 444.737 369.301 444.747 368.828 444.747 C 363.32 444.747 358.972 443.691 358.972 442.206 C 358.878 440.496 363.812 438.987 369.981 438.685 C 370.675 438.652 371.353 438.634 372.01 438.634 Z" fill-rule="evenodd" style=""/>
    <path fill="#407bff" d="M 372.337 439.425 C 376.653 439.425 379.852 440.152 379.852 441.099 C 379.852 441.202 379.852 441.301 379.852 441.401 C 379.206 440.541 376.132 440.049 372.174 440.049 C 371.498 440.049 370.797 440.064 370.077 440.095 C 365.141 440.294 361.154 441.202 360.491 442.309 C 360.394 442.206 360.394 442.107 360.394 442.004 C 360.394 440.9 364.666 439.793 370.077 439.491 C 370.854 439.446 371.611 439.425 372.337 439.425 Z" fill-rule="evenodd" style=""/>
    <path fill="#407bff" d="M 372.337 439.425 C 376.653 439.425 379.852 440.152 379.852 441.099 C 379.852 441.202 379.852 441.301 379.852 441.401 C 379.206 440.541 376.132 440.049 372.174 440.049 C 371.498 440.049 370.797 440.064 370.077 440.095 C 365.141 440.294 361.154 441.202 360.491 442.309 C 360.394 442.206 360.394 442.107 360.394 442.004 C 360.394 440.9 364.666 439.793 370.077 439.491 C 370.854 439.446 371.611 439.425 372.337 439.425 Z" fill-rule="evenodd" style=""/>
    <path fill="#00f5ff" d="M 372.174 440.049 C 376.132 440.049 379.206 440.541 379.852 441.401 C 379.095 442.408 375.108 443.413 370.171 443.616 C 369.466 443.645 368.774 443.661 368.108 443.661 C 364.21 443.661 361.14 443.166 360.492 442.309 C 361.154 441.202 365.141 440.294 370.077 440.095 C 370.797 440.064 371.498 440.049 372.174 440.049 Z" fill-rule="evenodd" style=""/>
    <path fill="#00f5ff" d="M 374.334 437.029 C 379.63 437.029 383.755 438.149 383.839 439.591 C 383.839 441.301 378.904 442.81 372.735 443.112 C 372.052 443.145 371.381 443.163 370.729 443.163 C 365.494 443.163 361.439 442.119 361.439 440.595 C 361.345 438.987 366.279 437.376 372.451 437.075 C 373.091 437.044 373.719 437.029 374.334 437.029 Z" fill-rule="evenodd" style=""/>
    <path fill="#00f5ff" d="M 383.65 436.571 L 383.839 439.591 L 361.439 440.595 L 361.248 437.578 L 383.65 436.571 Z" fill-rule="evenodd" style=""/>
    <path fill="#00f5ff" d="M 373.791 434.03 C 379.3 434.03 383.65 435.089 383.65 436.571 C 383.744 438.281 378.81 439.893 372.638 440.095 C 371.956 440.128 371.287 440.143 370.635 440.143 C 365.397 440.143 361.334 439.099 361.248 437.578 C 361.248 435.967 366.185 434.356 372.354 434.054 C 372.84 434.039 373.321 434.03 373.791 434.03 Z" fill-rule="evenodd" style=""/>
    <path fill="#00f5ff" d="M 374.682 434.896 C 378.955 434.896 382.225 435.623 382.225 436.571 C 382.225 436.673 382.225 436.773 382.131 436.872 C 381.482 436.012 378.409 435.52 374.511 435.52 C 373.845 435.52 373.156 435.536 372.451 435.566 C 367.514 435.765 363.527 436.673 362.865 437.777 C 362.768 437.678 362.674 437.578 362.674 437.476 C 362.674 436.369 367.039 435.161 372.451 434.959 C 373.213 434.917 373.962 434.896 374.682 434.896 Z" fill-rule="evenodd" style=""/>
    <path fill="#00f5ff" d="M 378.62 433.249 L 378.81 436.268 L 356.408 437.277 L 356.22 434.256 L 378.62 433.249 Z" fill-rule="evenodd" style=""/>
    <path fill="#407bff" d="M 369.207 430.687 C 374.485 430.687 378.535 431.807 378.62 433.249 C 378.713 434.86 373.78 436.47 367.608 436.773 C 366.916 436.806 366.239 436.821 365.579 436.821 C 360.292 436.821 356.302 435.777 356.22 434.256 C 356.123 432.545 361.154 431.034 367.323 430.732 C 367.967 430.702 368.595 430.687 369.207 430.687 Z" fill-rule="evenodd" style=""/>
    <path fill="#00f5ff" d="M 369.207 430.687 C 374.485 430.687 378.535 431.807 378.62 433.249 C 378.713 434.86 373.78 436.47 367.608 436.773 C 366.916 436.806 366.239 436.821 365.579 436.821 C 360.292 436.821 356.302 435.777 356.22 434.256 C 356.123 432.545 361.154 431.034 367.323 430.732 C 367.967 430.702 368.595 430.687 369.207 430.687 Z" fill-rule="evenodd" style=""/>
    <path fill="#407bff" d="M 369.235 431.505 C 373.773 431.505 377.194 432.169 377.194 433.149 C 377.194 433.249 377.194 433.352 377.1 433.451 C 376.523 432.663 373.361 432.105 369.298 432.105 C 368.692 432.105 368.063 432.117 367.42 432.141 C 362.577 432.343 358.496 433.352 357.833 434.356 C 357.737 434.256 357.737 434.157 357.737 434.054 C 357.737 432.947 362.008 431.84 367.42 431.538 C 368.04 431.517 368.647 431.505 369.235 431.505 Z" fill-rule="evenodd" style=""/>
    <path fill="#407bff" d="M 369.235 431.505 C 373.773 431.505 377.194 432.169 377.194 433.149 C 377.194 433.249 377.194 433.352 377.1 433.451 C 376.523 432.663 373.361 432.105 369.298 432.105 C 368.692 432.105 368.063 432.117 367.42 432.141 C 362.577 432.343 358.496 433.352 357.833 434.356 C 357.737 434.256 357.737 434.157 357.737 434.054 C 357.737 432.947 362.008 431.84 367.42 431.538 C 368.04 431.517 368.647 431.505 369.235 431.505 Z" fill-rule="evenodd" style=""/>
    <path fill="#00f5ff" d="M 369.252 432.105 C 373.259 432.105 376.44 432.675 377.1 433.551 C 376.437 434.558 372.354 435.463 367.514 435.665 C 366.666 435.717 365.838 435.743 365.047 435.743 C 361.317 435.743 358.38 435.186 357.833 434.356 C 358.403 433.352 362.483 432.443 367.42 432.141 C 368.043 432.117 368.658 432.105 369.252 432.105 Z" fill-rule="evenodd" style=""/>
    <path fill="#00f5ff" d="M 369.421 429.176 C 374.642 429.176 378.628 430.219 378.713 431.74 C 378.81 433.351 373.78 434.959 367.608 435.264 C 367.121 435.279 366.643 435.285 366.173 435.285 C 360.676 435.285 356.402 434.229 356.314 432.748 C 356.22 431.034 361.154 429.426 367.42 429.224 C 368.103 429.191 368.771 429.176 369.42 429.176 L 369.421 429.176 Z" fill-rule="evenodd" style=""/>
    <path fill="#00f5ff" d="M 369.233 426.156 C 374.471 426.156 378.523 427.199 378.523 428.72 C 378.62 430.331 373.683 431.942 367.514 432.244 C 367.027 432.259 366.546 432.268 366.077 432.268 C 360.568 432.268 356.22 431.209 356.22 429.727 C 356.123 428.017 361.06 426.505 367.229 426.203 C 367.912 426.17 368.581 426.156 369.233 426.156 Z" fill-rule="evenodd" style=""/>
    <path fill="#407bff" d="M 369.585 426.946 C 373.899 426.946 377.1 427.673 377.1 428.62 C 377.1 428.72 377.1 428.822 377.1 428.922 C 376.451 428.062 373.381 427.57 369.423 427.57 C 368.746 427.57 368.043 427.585 367.323 427.613 C 362.483 427.815 358.403 428.822 357.737 429.827 C 357.643 429.727 357.643 429.625 357.643 429.525 C 357.643 428.418 361.914 427.311 367.323 427.01 C 368.103 426.967 368.86 426.946 369.585 426.946 Z" fill-rule="evenodd" style=""/>
    <path fill="#00f5ff" d="M 369.585 426.946 C 373.899 426.946 377.1 427.673 377.1 428.62 C 377.1 428.72 377.1 428.822 377.1 428.922 C 376.451 428.062 373.381 427.57 369.423 427.57 C 368.746 427.57 368.043 427.585 367.323 427.613 C 362.483 427.815 358.403 428.822 357.737 429.827 C 357.643 429.727 357.643 429.625 357.643 429.525 C 357.643 428.418 361.914 427.311 367.323 427.01 C 368.103 426.967 368.86 426.946 369.585 426.946 Z" fill-rule="evenodd" style=""/>
    <path fill="#00f5ff" d="M 369.423 427.57 C 373.379 427.57 376.437 428.062 377.006 428.922 C 376.34 430.029 372.26 430.935 367.42 431.137 C 366.711 431.167 366.023 431.179 365.357 431.179 C 361.458 431.179 358.386 430.687 357.737 429.827 C 358.403 428.822 362.389 427.815 367.323 427.613 C 368.043 427.585 368.746 427.57 369.423 427.57 Z" fill-rule="evenodd" style=""/>
    <path fill="#00f5ff" d="M 352.623 436.372 C 353.568 436.372 354.205 436.597 354.416 437.075 C 355.079 438.483 351.189 441.905 345.683 444.623 C 341.941 446.431 338.427 447.52 336.396 447.52 C 335.491 447.52 334.879 447.303 334.671 446.838 C 334.009 445.326 337.901 442.004 343.31 439.289 C 347.074 437.43 350.575 436.372 352.623 436.372 Z" fill-rule="evenodd" style=""/>
    <path fill="#00f5ff" d="M 353.181 434.459 L 354.416 437.075 L 334.671 446.937 L 333.533 444.219 L 353.181 434.459 Z" fill-rule="evenodd" style=""/>
    <path fill="#407bff" d="M 351.527 433.722 C 352.418 433.722 353.007 433.927 353.181 434.356 C 353.846 435.867 349.954 439.289 344.545 441.905 C 340.792 443.79 337.224 444.9 335.198 444.9 C 334.302 444.9 333.709 444.683 333.533 444.219 C 332.87 442.71 336.76 439.388 342.172 436.673 C 345.93 434.785 349.504 433.722 351.527 433.722 Z" fill-rule="evenodd" style=""/>
    <path fill="#00f5ff" d="M 351.527 433.722 C 352.418 433.722 353.007 433.927 353.181 434.356 C 353.846 435.867 349.954 439.289 344.545 441.905 C 340.792 443.79 337.224 444.9 335.198 444.9 C 334.302 444.9 333.709 444.683 333.533 444.219 C 332.87 442.71 336.76 439.388 342.172 436.673 C 345.93 434.785 349.504 433.722 351.527 433.722 Z" fill-rule="evenodd" style=""/>
    <path fill="#00f5ff" d="M 350.933 434.589 C 351.473 434.589 351.827 434.706 351.946 434.959 C 351.946 434.959 351.946 435.161 351.946 435.264 C 351.755 435.153 351.468 435.098 351.101 435.098 C 349.462 435.098 346.23 436.154 342.741 437.88 C 338.47 440.095 335.146 442.508 334.862 443.718 C 334.768 443.616 334.768 443.616 334.671 443.516 C 334.293 442.508 337.71 439.69 342.457 437.376 C 346.078 435.644 349.328 434.589 350.933 434.589 Z" fill-rule="evenodd" style=""/>
    <path fill="#00f5ff" d="M 356.772 439.741 C 361.905 439.741 365.807 440.776 365.807 442.207 C 365.901 443.818 361.06 445.326 355.079 445.628 C 354.405 445.661 353.745 445.679 353.104 445.679 C 347.988 445.679 344.153 444.644 344.07 443.214 C 343.973 441.603 348.816 440.095 354.794 439.793 C 355.469 439.756 356.132 439.741 356.772 439.741 Z" fill-rule="evenodd" style=""/>
    <path fill="#00f5ff" d="M 365.709 439.289 L 365.901 442.206 L 344.07 443.214 L 343.973 440.194 L 365.709 439.289 Z" fill-rule="evenodd" style=""/>
    <path fill="#00f5ff" d="M 356.675 436.824 C 361.791 436.824 365.627 437.856 365.709 439.289 C 365.709 440.9 360.963 442.408 354.985 442.711 C 354.311 442.744 353.647 442.758 353.007 442.758 C 347.874 442.758 343.973 441.727 343.973 440.294 C 343.879 438.685 348.719 437.174 354.7 436.872 C 355.375 436.839 356.035 436.824 356.675 436.824 Z" fill-rule="evenodd" style=""/>
    <path fill="#407bff" d="M 356.459 437.645 C 360.864 437.645 364.287 438.308 364.287 439.289 C 364.287 439.389 364.287 439.491 364.287 439.591 C 363.638 438.731 360.636 438.239 356.815 438.239 C 356.163 438.239 355.488 438.251 354.794 438.281 C 350.048 438.583 346.062 439.389 345.398 440.396 C 345.302 440.396 345.302 440.294 345.302 440.194 C 345.302 439.086 349.479 437.979 354.7 437.678 C 355.298 437.654 355.887 437.645 356.459 437.645 Z" fill-rule="evenodd" style=""/>
    <path fill="#00f5ff" d="M 356.459 437.645 C 360.864 437.645 364.287 438.308 364.287 439.289 C 364.287 439.389 364.287 439.491 364.287 439.591 C 363.638 438.731 360.636 438.239 356.815 438.239 C 356.163 438.239 355.488 438.251 354.794 438.281 C 350.048 438.583 346.062 439.389 345.398 440.396 C 345.302 440.396 345.302 440.294 345.302 440.194 C 345.302 439.086 349.479 437.979 354.7 437.678 C 355.298 437.654 355.887 437.645 356.459 437.645 Z" fill-rule="evenodd" style=""/>
  </g>
</svg>