<svg width="305" height="305" viewBox="0 0 305 305" fill="none" xmlns="http://www.w3.org/2000/svg">
<path d="M131.972 6.24276C131.972 6.24276 182.549 -0.190391 222.82 36.4445C263.091 73.0794 274.802 130.899 285.534 177.512C296.266 224.125 275.386 264.584 235.936 276.496C196.486 288.408 178.876 254.278 129.85 242.117C80.8226 229.956 66.0044 234.085 31.1633 197.267C-3.67791 160.45 3.31464 93.0052 46.2368 51.366C89.1589 9.72688 131.972 6.24276 131.972 6.24276Z" fill="#00F5FF"/>
<path opacity="0.75" d="M131.972 6.24276C131.972 6.24276 182.549 -0.190391 222.82 36.4445C263.091 73.0794 274.802 130.899 285.534 177.512C296.266 224.125 275.386 264.584 235.936 276.496C196.486 288.408 178.876 254.278 129.85 242.117C80.8226 229.956 66.0044 234.085 31.1633 197.267C-3.67791 160.45 3.31464 93.0052 46.2368 51.366C89.1589 9.72688 131.972 6.24276 131.972 6.24276Z" fill="white"/>
<path d="M278.529 209.13L29.5823 191.594" stroke="#1F2A3F" stroke-width="0.873633" stroke-miterlimit="10"/>
<path d="M42.3574 192.342V164.329" stroke="#1F2A3F" stroke-width="0.873633" stroke-miterlimit="10"/>
<path d="M65.8889 193.838V166.573" stroke="#1F2A3F" stroke-width="0.873633" stroke-miterlimit="10"/>
<path d="M93.1538 196.075V168.069" stroke="#1F2A3F" stroke-width="0.873633" stroke-miterlimit="10"/>
<path d="M123.41 198.319V168.811" stroke="#1F2A3F" stroke-width="0.873633" stroke-miterlimit="10"/>
<path d="M154.779 200.186V168.811" stroke="#1F2A3F" stroke-width="0.873633" stroke-miterlimit="10"/>
<path d="M186.155 201.682V171.802" stroke="#1F2A3F" stroke-width="0.873633" stroke-miterlimit="10"/>
<path d="M219.591 205.956V173.669" stroke="#1F2A3F" stroke-width="0.873633" stroke-miterlimit="10"/>
<path d="M257.491 207.282V176.284" stroke="#1F2A3F" stroke-width="0.873633" stroke-miterlimit="10"/>
<path d="M278.529 213.496L28.7797 194.963" stroke="#1F2A3F" stroke-width="0.873633" stroke-miterlimit="10"/>
<path d="M270.692 286.851L278.153 287.721" stroke="#1F2A3F" stroke-width="0.873633" stroke-miterlimit="10"/>
<path d="M27.6366 258.534L262.349 285.878" stroke="#1F2A3F" stroke-width="0.873633" stroke-miterlimit="10"/>
<path d="M279.977 170.179L36.5262 159.738V27.0623L279.977 16.6221V170.179Z" fill="#1F2A3F"/>
<path d="M273.969 162.949L41.038 153.871V32.9361L273.969 23.8518V162.949Z" stroke="#00F5FF" stroke-width="0.873633" stroke-miterlimit="10"/>
<path d="M116.697 46.6476L52.2443 48.4717C51.8609 48.4603 51.4837 48.3718 51.1353 48.2114C50.7868 48.0511 50.4741 47.8223 50.216 47.5386C49.9578 47.2549 49.7594 46.9221 49.6325 46.5601C49.5057 46.1981 49.4531 45.8143 49.4777 45.4315C49.4777 43.7107 50.6938 42.2757 52.2443 42.2271L116.697 40.1171C117.105 40.1209 117.508 40.2065 117.882 40.369C118.256 40.5316 118.593 40.7676 118.874 41.0632C119.155 41.3587 119.373 41.7077 119.516 42.0894C119.66 42.4712 119.724 42.8778 119.707 43.2851C119.738 44.126 119.442 44.9461 118.88 45.5731C118.319 46.2001 117.537 46.5852 116.697 46.6476Z" fill="#808080"/>
<path d="M77.989 44.5924C78.012 44.2007 77.9555 43.8083 77.8228 43.4391C77.6902 43.0698 77.4841 42.7312 77.2171 42.4437C76.95 42.1562 76.6276 41.9258 76.2691 41.7663C75.9106 41.6068 75.5235 41.5215 75.1312 41.5156L52.2503 42.2635C50.7241 42.3122 49.4837 43.7472 49.4837 45.4679C49.459 45.8507 49.5117 46.2346 49.6385 46.5966C49.7654 46.9586 49.9638 47.2914 50.2219 47.5751C50.4801 47.8588 50.7928 48.0876 51.1412 48.2479C51.4897 48.4082 51.8669 48.4967 52.2503 48.5082L75.1312 47.8454C75.9354 47.7771 76.682 47.4003 77.2147 46.794C77.7474 46.1876 78.0249 45.3987 77.989 44.5924Z" fill="#00F5FF"/>
<path d="M116.697 59.3375L52.2443 60.6813C50.7181 60.7178 49.4777 59.3497 49.4777 57.6411C49.4384 56.8562 49.7046 56.0866 50.2204 55.4938C50.7362 54.9009 51.4615 54.5307 52.2443 54.461L116.697 52.8557C117.106 52.8594 117.509 52.9453 117.883 53.1082C118.257 53.2711 118.595 53.5077 118.876 53.8039C119.157 54.1001 119.375 54.4498 119.518 54.8323C119.661 55.2147 119.725 55.6219 119.707 56.0298C119.731 56.8634 119.431 57.6739 118.87 58.2907C118.308 58.9076 117.53 59.2828 116.697 59.3375Z" fill="#808080"/>
<path d="M94.1083 56.6074C94.1296 56.2089 94.0705 55.8102 93.9344 55.4351C93.7984 55.0599 93.5882 54.716 93.3164 54.4238C93.0446 54.1316 92.7168 53.897 92.3525 53.7342C91.9881 53.5714 91.5948 53.4835 91.1958 53.476L52.2807 54.4488C51.4979 54.5186 50.7726 54.8887 50.2568 55.4816C49.741 56.0745 49.4748 56.844 49.5141 57.6289C49.5141 59.3497 50.7301 60.7178 52.2807 60.6692L91.2262 59.8544C92.0325 59.7891 92.7825 59.4149 93.3196 58.8099C93.8566 58.2049 94.1392 57.4158 94.1083 56.6074Z" fill="#00F5FF"/>
<path d="M116.697 72.0214L52.2443 72.8666C51.8598 72.8488 51.4826 72.7547 51.1348 72.5899C50.7869 72.4251 50.4752 72.1929 50.2178 71.9066C49.9604 71.6204 49.7624 71.2859 49.6354 70.9225C49.5083 70.5591 49.4547 70.1741 49.4777 69.7899C49.4449 69.0091 49.714 68.2457 50.2292 67.6581C50.7443 67.0704 51.466 66.7038 52.2443 66.6341L116.697 65.5275C117.107 65.536 117.51 65.6262 117.884 65.7927C118.258 65.9592 118.596 66.1987 118.876 66.4971C119.156 66.7955 119.374 67.1469 119.517 67.5307C119.66 67.9144 119.724 68.3228 119.707 68.7319C119.736 69.5649 119.436 70.3759 118.874 70.9908C118.311 71.6058 117.53 71.9758 116.697 72.0214Z" fill="#808080"/>
<path d="M105.467 68.9447C105.485 68.5414 105.422 68.1386 105.283 67.7597C105.143 67.3809 104.93 67.0336 104.655 66.7381C104.38 66.4427 104.048 66.205 103.68 66.0389C103.312 65.8728 102.915 65.7816 102.512 65.7707L52.2503 66.6341C51.472 66.7038 50.7503 67.0704 50.2352 67.6581C49.72 68.2457 49.4509 69.0091 49.4837 69.7899C49.4607 70.1741 49.5143 70.5591 49.6414 70.9225C49.7684 71.2859 49.9664 71.6204 50.2238 71.9066C50.4812 72.1929 50.7929 72.4251 51.1407 72.5899C51.4886 72.7547 51.8658 72.8488 52.2503 72.8666L102.512 72.2099C103.333 72.1582 104.101 71.7879 104.653 71.178C105.205 70.5681 105.497 69.7667 105.467 68.9447Z" fill="#00F5FF"/>
<path d="M116.697 84.7114L52.2442 85.0519C51.8592 85.0309 51.482 84.9342 51.1344 84.7672C50.7868 84.6002 50.4755 84.3662 50.2185 84.0787C49.9615 83.7912 49.7638 83.4557 49.6366 83.0916C49.5095 82.7276 49.4555 82.342 49.4776 81.9569C49.4358 81.1758 49.7022 80.4094 50.2196 79.8226C50.737 79.2359 51.464 78.8756 52.2442 78.8194L116.697 78.2114C117.107 78.2231 117.511 78.316 117.885 78.4848C118.258 78.6535 118.595 78.8948 118.875 79.1945C119.155 79.4942 119.373 79.8465 119.515 80.2309C119.658 80.6153 119.723 81.0242 119.707 81.434C119.739 82.2667 119.44 83.0781 118.876 83.6918C118.313 84.3055 117.53 84.6719 116.697 84.7114Z" fill="#00F5FF"/>
<path d="M132.89 46.1794L124.061 46.4348C123.651 46.4351 123.245 46.3524 122.867 46.1917C122.49 46.031 122.149 45.7956 121.865 45.4996C121.581 45.2036 121.36 44.8532 121.214 44.4695C121.069 44.0858 121.004 43.6767 121.021 43.2668C120.998 42.4236 121.302 41.6042 121.868 40.979C122.434 40.3539 123.22 39.9711 124.061 39.9104L132.89 39.6368C133.304 39.6321 133.715 39.7123 134.097 39.8723C134.48 40.0323 134.825 40.2687 135.113 40.5671C135.4 40.8655 135.624 41.2195 135.77 41.6075C135.916 41.9954 135.98 42.409 135.96 42.8229C135.978 43.6698 135.669 44.491 135.097 45.1159C134.525 45.7409 133.735 46.1217 132.89 46.1794Z" fill="#00F5FF"/>
<path d="M132.89 58.997L124.061 59.1794C123.649 59.18 123.24 59.0966 122.861 58.9344C122.482 58.7722 122.14 58.5345 121.856 58.2359C121.571 57.9373 121.35 57.584 121.207 57.1974C121.063 56.8108 121 56.399 121.021 55.9872C120.997 55.1461 121.301 54.3286 121.868 53.707C122.435 53.0855 123.221 52.7083 124.061 52.6551L132.89 52.4362C133.304 52.4383 133.714 52.5239 134.095 52.6877C134.476 52.8516 134.82 53.0904 135.106 53.39C135.393 53.6896 135.616 54.0438 135.763 54.4315C135.91 54.8192 135.977 55.2325 135.96 55.6467C135.984 56.4946 135.677 57.3184 135.104 57.9437C134.53 58.5691 133.737 58.9468 132.89 58.997Z" fill="#00F5FF"/>
<path d="M132.89 71.8086L124.061 71.9241C123.649 71.9172 123.242 71.8279 122.865 71.6616C122.487 71.4952 122.147 71.2552 121.864 70.9556C121.581 70.6559 121.36 70.3027 121.215 69.9167C121.071 69.5306 121.004 69.1196 121.021 68.7076C120.996 67.8685 121.3 67.0529 121.868 66.4349C122.436 65.8169 123.223 65.4454 124.061 65.3998L132.89 65.2478C133.305 65.2548 133.715 65.3445 134.095 65.5116C134.475 65.6787 134.818 65.9198 135.104 66.221C135.39 66.5222 135.613 66.8773 135.76 67.2656C135.907 67.6539 135.975 68.0676 135.96 68.4826C135.987 69.3289 135.68 70.1517 135.106 70.7738C134.531 71.396 133.736 71.7676 132.89 71.8086Z" fill="#00F5FF"/>
<path d="M132.89 84.6323L124.061 84.6749C123.648 84.6639 123.241 84.5712 122.864 84.4019C122.487 84.2327 122.147 83.9903 121.865 83.6889C121.582 83.3875 121.362 83.033 121.217 82.646C121.072 82.2589 121.005 81.847 121.021 81.434C120.994 80.597 121.298 79.7832 121.867 79.1687C122.436 78.5543 123.224 78.1885 124.061 78.1505L132.89 78.0715C133.306 78.0809 133.716 78.1728 134.096 78.3419C134.476 78.511 134.819 78.7539 135.105 79.0565C135.39 79.3591 135.613 79.7154 135.76 80.1047C135.907 80.4941 135.975 80.9087 135.96 81.3246C135.987 82.169 135.679 82.9899 135.104 83.6091C134.53 84.2283 133.734 84.596 132.89 84.6323Z" fill="#00F5FF"/>
<path d="M52.7551 38.9922L63.1284 38.6335" stroke="white" stroke-width="0.873633" stroke-miterlimit="10"/>
<path d="M52.7551 51.7734L63.1284 51.4998" stroke="white" stroke-width="0.873633" stroke-miterlimit="10"/>
<path d="M52.7551 63.904L63.1284 63.7094" stroke="white" stroke-width="0.873633" stroke-miterlimit="10"/>
<path d="M52.7551 76.6852L63.1284 76.5757" stroke="white" stroke-width="0.873633" stroke-miterlimit="10"/>
<path d="M244.649 39.3388L253.344 39.0713" stroke="white" stroke-width="0.873633" stroke-miterlimit="10"/>
<path d="M239.596 46.83L253.344 46.4652" stroke="white" stroke-width="0.873633" stroke-miterlimit="10"/>
<path d="M244.649 54.0475L253.344 53.8529" stroke="white" stroke-width="0.873633" stroke-miterlimit="10"/>
<path d="M248.243 61.338L253.344 61.2468" stroke="white" stroke-width="0.873633" stroke-miterlimit="10"/>
<path d="M244.649 68.7623L253.344 68.6407" stroke="white" stroke-width="0.873633" stroke-miterlimit="10"/>
<path d="M242.326 76.1379L253.344 76.0285" stroke="white" stroke-width="0.873633" stroke-miterlimit="10"/>
<path d="M244.649 83.471L253.344 83.4223" stroke="white" stroke-width="0.873633" stroke-miterlimit="10"/>
<path d="M240.435 90.8344L253.344 90.8162" stroke="white" stroke-width="0.873633" stroke-miterlimit="10"/>
<path d="M244.649 98.1797L253.344 98.204" stroke="white" stroke-width="0.873633" stroke-miterlimit="10"/>
<path d="M255.655 39.0287L258.294 38.9497" stroke="white" stroke-width="0.873633" stroke-miterlimit="10"/>
<path d="M255.655 46.4044L258.294 46.3314" stroke="white" stroke-width="0.873633" stroke-miterlimit="10"/>
<path d="M255.655 53.8043L258.294 53.7435" stroke="white" stroke-width="0.873633" stroke-miterlimit="10"/>
<path d="M255.697 61.2043L258.263 61.1556" stroke="white" stroke-width="0.873633" stroke-miterlimit="10"/>
<path d="M255.655 68.6042L258.294 68.5677" stroke="white" stroke-width="0.873633" stroke-miterlimit="10"/>
<path d="M255.655 76.0102H258.239" stroke="white" stroke-width="0.873633" stroke-miterlimit="10"/>
<path d="M255.655 83.4163H258.294" stroke="white" stroke-width="0.873633" stroke-miterlimit="10"/>
<path d="M255.606 90.8101H258.263" stroke="white" stroke-width="0.873633" stroke-miterlimit="10"/>
<path d="M255.655 98.2101H258.294" stroke="white" stroke-width="0.873633" stroke-miterlimit="10"/>
<path d="M260.841 38.8402L265.359 38.7004" stroke="white" stroke-width="0.873633" stroke-miterlimit="10"/>
<path d="M260.841 46.2645L265.359 46.1429" stroke="white" stroke-width="0.873633" stroke-miterlimit="10"/>
<path d="M260.841 53.6888L265.359 53.5854" stroke="white" stroke-width="0.873633" stroke-miterlimit="10"/>
<path d="M260.957 61.107L265.359 61.0279" stroke="white" stroke-width="0.873633" stroke-miterlimit="10"/>
<path d="M260.841 68.5312L265.359 68.4704" stroke="white" stroke-width="0.873633" stroke-miterlimit="10"/>
<path d="M260.939 75.9555L265.359 75.9129" stroke="white" stroke-width="0.873633" stroke-miterlimit="10"/>
<path d="M260.841 83.3798H265.359" stroke="white" stroke-width="0.873633" stroke-miterlimit="10"/>
<path d="M260.805 90.804H265.384" stroke="white" stroke-width="0.873633" stroke-miterlimit="10"/>
<path d="M260.841 98.2283H265.359" stroke="white" stroke-width="0.873633" stroke-miterlimit="10"/>
<path d="M145.045 92.2816L233.467 92.2208" stroke="#999999" stroke-width="0.873633" stroke-miterlimit="10"/>
<path d="M145.045 86.6572L233.467 86.2923" stroke="#999999" stroke-width="0.873633" stroke-miterlimit="10"/>
<path d="M145.045 81.0266L233.467 80.3639" stroke="#999999" stroke-width="0.873633" stroke-miterlimit="10"/>
<path d="M233.765 103.914V77.1594C233.765 77.1594 231.692 74.5266 223.136 75.013C214.672 75.4995 212.641 82.9785 203.679 87.3321C194.716 91.6857 190.594 84.6628 183.297 84.6992C176 84.7357 172.443 92.8106 167.208 95.8691C161.973 98.9276 157.37 95.4739 151.149 96.2218C149.403 96.42 147.755 97.1344 146.416 98.2738C145.077 99.4132 144.109 100.926 143.634 102.618L143.549 103.372L233.765 103.914Z" fill="#00F5FF"/>
<path d="M233.765 103.914V89.2231C230.84 89.065 224.772 89.5515 218.327 94.9205C211.881 100.29 200.383 97.4561 197.002 96.2218C191.621 94.2517 185.449 94.1544 179.314 98.0459C173.179 101.937 168.193 101.56 162.508 101.53C158.489 101.53 153.825 102.746 151.472 103.421L233.765 103.914Z" fill="#808080"/>
<path d="M166.132 145.595L150.402 145.103C149.669 145.056 148.984 144.728 148.487 144.188C147.991 143.647 147.723 142.936 147.738 142.202C147.726 141.846 147.786 141.49 147.914 141.157C148.043 140.824 148.237 140.52 148.486 140.264C148.735 140.008 149.033 139.805 149.362 139.667C149.691 139.529 150.045 139.458 150.402 139.46L166.132 139.892C166.876 139.934 167.576 140.263 168.084 140.809C168.591 141.355 168.868 142.077 168.856 142.823C168.866 143.185 168.802 143.546 168.67 143.884C168.537 144.221 168.337 144.529 168.083 144.788C167.829 145.047 167.525 145.251 167.19 145.39C166.854 145.529 166.495 145.599 166.132 145.595Z" fill="#808080"/>
<path d="M197.89 146.58L181.558 146.076C180.805 146.032 180.098 145.7 179.584 145.148C179.07 144.597 178.788 143.868 178.797 143.114C178.788 142.748 178.853 142.384 178.989 142.043C179.124 141.702 179.326 141.392 179.584 141.132C179.842 140.871 180.149 140.665 180.489 140.526C180.828 140.387 181.192 140.318 181.558 140.324L197.89 140.773C198.656 140.81 199.378 141.141 199.905 141.697C200.432 142.254 200.723 142.993 200.718 143.759C200.725 144.132 200.657 144.503 200.517 144.849C200.378 145.195 200.17 145.509 199.906 145.773C199.642 146.036 199.327 146.244 198.98 146.383C198.634 146.521 198.263 146.589 197.89 146.58Z" fill="#808080"/>
<path d="M230.178 147.59L213.225 147.061C212.447 147.024 211.713 146.687 211.178 146.12C210.644 145.553 210.351 144.8 210.361 144.02C210.355 143.643 210.424 143.269 210.566 142.919C210.708 142.57 210.919 142.253 211.186 141.987C211.454 141.721 211.772 141.512 212.123 141.373C212.473 141.233 212.848 141.166 213.225 141.175L230.178 141.643C230.965 141.671 231.71 142.004 232.257 142.571C232.804 143.138 233.109 143.896 233.108 144.683C233.117 145.069 233.047 145.453 232.902 145.811C232.757 146.169 232.541 146.494 232.267 146.766C231.993 147.038 231.666 147.251 231.307 147.393C230.948 147.534 230.564 147.601 230.178 147.59Z" fill="#808080"/>
<path d="M49.3743 130.333L136.581 132.395" stroke="#999999" stroke-width="0.873633" stroke-miterlimit="10"/>
<path d="M49.3743 125.706L136.581 127.512" stroke="#999999" stroke-width="0.873633" stroke-miterlimit="10"/>
<path d="M49.3743 121.079L136.581 122.623" stroke="#999999" stroke-width="0.873633" stroke-miterlimit="10"/>
<path d="M49.3743 116.445L136.581 117.735" stroke="#999999" stroke-width="0.873633" stroke-miterlimit="10"/>
<path d="M49.3743 111.818L136.581 112.852" stroke="#999999" stroke-width="0.873633" stroke-miterlimit="10"/>
<path d="M49.3743 107.191L136.581 107.963" stroke="#999999" stroke-width="0.873633" stroke-miterlimit="10"/>
<path d="M49.3743 102.564L136.581 103.074" stroke="#999999" stroke-width="0.873633" stroke-miterlimit="10"/>
<path d="M49.3743 97.9365L136.581 98.1918" stroke="#999999" stroke-width="0.873633" stroke-miterlimit="10"/>
<path d="M59.8935 135.587L51.5389 135.362V117.011L59.8935 117.139V135.587Z" fill="#808080"/>
<path d="M71.7445 135.903L63.2622 135.678V112.007L71.7445 112.11V135.903Z" fill="#00F5FF"/>
<path d="M83.7777 136.225L75.1677 135.994V108.085L83.7777 108.17V136.225Z" fill="#808080"/>
<path d="M95.9934 136.554L87.2496 136.323V96.5076L95.9934 96.5258V136.554Z" fill="#00F5FF"/>
<path d="M108.398 136.888L99.52 136.651V108.31L108.398 108.395V136.888Z" fill="#808080"/>
<path d="M120.996 137.229L111.979 136.985V117.333L120.996 117.467V137.229Z" fill="#00F5FF"/>
<path d="M133.796 137.569L124.632 137.326V125.299L133.796 125.475V137.569Z" fill="#808080"/>
<path d="M51.9341 139.995L58.7321 140.196" stroke="white" stroke-width="0.873633" stroke-linecap="round" stroke-linejoin="round"/>
<path d="M63.7424 140.348L70.6438 140.555" stroke="white" stroke-width="0.873633" stroke-linecap="round" stroke-linejoin="round"/>
<path d="M75.7272 140.707L82.738 140.913" stroke="white" stroke-width="0.873633" stroke-linecap="round" stroke-linejoin="round"/>
<path d="M87.9003 141.065L95.0144 141.278" stroke="white" stroke-width="0.873633" stroke-linecap="round" stroke-linejoin="round"/>
<path d="M100.262 141.436L107.485 141.649" stroke="white" stroke-width="0.873633" stroke-linecap="round" stroke-linejoin="round"/>
<path d="M112.812 141.813L120.151 142.032" stroke="white" stroke-width="0.873633" stroke-linecap="round" stroke-linejoin="round"/>
<path d="M125.563 142.19L133.018 142.415" stroke="white" stroke-width="0.873633" stroke-linecap="round" stroke-linejoin="round"/>
<path d="M240.678 110.809V106.443L252.541 106.534V110.924L240.678 110.809Z" fill="#00F5FF"/>
<path d="M240.678 116.914V112.554L255.892 112.718V117.12L240.678 116.914Z" fill="#808080"/>
<path d="M240.678 123.018V118.659L258.513 118.914V123.322L240.678 123.018Z" fill="#00F5FF"/>
<path d="M240.678 129.129V124.764L266.034 125.22V129.646L240.678 129.129Z" fill="#808080"/>
<path d="M240.678 135.234V130.874L258.513 131.251V135.66L240.678 135.234Z" fill="#00F5FF"/>
<path d="M240.678 141.339V136.979L252.912 137.283V141.673L240.678 141.339Z" fill="#808080"/>
<path d="M240.678 147.45V143.084L248.084 143.297V147.675L240.678 147.45Z" fill="#00F5FF"/>
<path d="M170.674 121.815C170.674 129.233 164.946 135.1 157.935 134.924C150.924 134.748 145.391 128.692 145.391 121.389C145.391 114.086 150.985 108.212 157.935 108.273C164.885 108.334 170.674 114.427 170.674 121.815Z" fill="#808080"/>
<path d="M158.537 108.31C158.337 108.31 158.142 108.273 157.929 108.273C150.979 108.212 145.385 114.086 145.385 121.389C145.385 128.692 150.979 134.766 157.929 134.924C158.136 134.924 158.33 134.924 158.537 134.924V108.31Z" fill="#00F5FF"/>
<path d="M166.709 121.723C166.709 126.831 162.769 130.887 157.935 130.777C153.101 130.668 149.246 126.509 149.246 121.456C149.246 116.403 153.126 112.335 157.929 112.402C162.733 112.469 166.709 116.64 166.709 121.723Z" fill="#1F2A3F"/>
<path d="M202.147 122.331C202.147 129.883 196.206 135.86 188.934 135.678C181.661 135.496 175.915 129.324 175.915 121.888C175.915 114.451 181.716 108.468 188.934 108.51C196.151 108.553 202.147 114.792 202.147 122.331Z" fill="#00F5FF"/>
<path d="M198.006 122.277C198.031 123.486 197.813 124.688 197.365 125.811C196.917 126.935 196.247 127.957 195.397 128.816C194.546 129.676 193.531 130.356 192.413 130.816C191.294 131.277 190.094 131.507 188.885 131.495C183.893 131.385 179.874 127.123 179.874 121.973C179.849 120.773 180.063 119.58 180.504 118.463C180.946 117.347 181.605 116.33 182.444 115.472C183.283 114.614 184.285 113.931 185.391 113.465C186.497 112.998 187.685 112.757 188.885 112.755C193.913 112.809 198.006 117.072 198.006 122.277Z" fill="#1F2A3F"/>
<path d="M234.756 122.897C234.778 124.699 234.437 126.488 233.753 128.156C233.069 129.824 232.057 131.337 230.777 132.606C229.497 133.875 227.974 134.874 226.3 135.543C224.626 136.211 222.835 136.537 221.033 136.499C217.397 136.366 213.955 134.826 211.434 132.203C208.913 129.579 207.51 126.079 207.522 122.441C207.502 120.657 207.838 118.887 208.509 117.234C209.18 115.581 210.173 114.078 211.43 112.812C212.687 111.546 214.184 110.543 215.832 109.861C217.481 109.179 219.248 108.831 221.033 108.839C224.709 108.907 228.21 110.421 230.779 113.052C233.347 115.683 234.776 119.22 234.756 122.897Z" fill="#808080"/>
<path d="M221.683 108.875C221.464 108.875 221.251 108.839 221.033 108.839C219.248 108.831 217.481 109.179 215.832 109.861C214.184 110.543 212.687 111.546 211.43 112.812C210.173 114.078 209.18 115.581 208.509 117.234C207.838 118.887 207.502 120.657 207.522 122.441C207.51 126.079 208.913 129.579 211.434 132.203C213.955 134.826 217.397 136.366 221.033 136.499C221.251 136.499 221.464 136.499 221.683 136.499V108.875Z" fill="#00F5FF"/>
<path d="M230.488 122.824C230.502 124.067 230.268 125.3 229.797 126.451C229.326 127.601 228.629 128.645 227.748 129.521C226.866 130.398 225.817 131.088 224.664 131.551C223.51 132.014 222.275 132.241 221.032 132.218C218.514 132.133 216.128 131.069 214.382 129.252C212.636 127.435 211.667 125.009 211.681 122.489C211.668 121.256 211.9 120.032 212.365 118.89C212.83 117.747 213.518 116.709 214.389 115.835C215.259 114.961 216.295 114.269 217.436 113.8C218.576 113.331 219.799 113.093 221.032 113.101C223.569 113.155 225.983 114.206 227.753 116.025C229.522 117.844 230.504 120.286 230.488 122.824Z" fill="#1F2A3F"/>
<path d="M155.236 122.222L161.012 122.325" stroke="white" stroke-width="0.873633" stroke-miterlimit="10"/>
<path d="M186.222 122.757L192.217 122.86" stroke="white" stroke-width="0.873633" stroke-miterlimit="10"/>
<path d="M217.798 123.304L224.018 123.414" stroke="white" stroke-width="0.873633" stroke-miterlimit="10"/>
<path d="M186.489 51.4211L186.532 50.9586L186.398 51.0925L186.489 51.4211Z" fill="#808080"/>
<path d="M168.552 58.2374L168.862 58.286L169.574 58.067L168.552 57.7384L168.692 58.0731L168.278 58.1704L168.552 58.2374Z" fill="#808080"/>
<path d="M176.608 63.8918L175.04 63.2838L174.76 63.448L174.803 63.2108L174.298 62.8703L173.72 63.1135L173.909 62.8277L173.477 62.7061L173.337 62.9007L173.605 62.3839L173.276 61.6603L172.905 61.338L172.078 61.2286L171.47 60.6205H171.16L171.215 60.4199L170.899 60.2922V60.1523L170.723 60.0976L170.309 60.2739L169.628 60.0976L169.281 59.7753L169.221 59.9334L168.929 60.1341L169.002 60.4868L168.777 60.4077L168.868 60.0854L168.838 59.9152L168.892 59.8665L168.947 59.7145L168.339 60.049H168.236L167.749 60.7847H167.707L167.573 60.5901L167.275 60.4381L166.971 60.5719H166.63L166.284 60.1159L166.411 59.1004L166.174 58.9119H165.323L165.238 58.8572L165.366 58.3221H165.408L165.657 57.5073H165.141L164.666 58.2431L164.01 58.3586L163.766 58.2309L163.42 57.6715V56.346L163.359 56.0358L163.414 55.7987L164.137 55.2332L164.843 55.3913L164.94 55.3062L165.128 55.4521L165.037 55.1967L165.372 55.0386L165.457 55.1055L165.737 55.0569L165.937 55.215H166.083L166.284 55.1359L166.819 56.352H166.983L167.074 56.0602L166.776 54.8441L167.743 53.7557V53.5976L167.798 53.5064H167.944L167.998 53.3604L167.853 53.1111V52.9956L167.713 52.7889L167.798 52.7037V52.3815H167.871L167.907 52.9105L168.005 52.8375L168.047 52.4119H168.199L168.309 52.1018L168.74 51.9254H168.418L168.759 51.7917L168.868 51.6883H169.044L168.99 51.4998L169.154 51.1046L169.433 50.831H169.701L170.309 50.3628V50.4661L170.504 50.5452L170.072 50.7701V51.0438L170.352 50.9769L170.552 50.7701L171.045 50.606L171.136 50.5816L171.422 50.454L171.343 50.3567V50.1864L170.996 50.5391L170.619 50.4722L170.388 50.2655V50.0101L170.291 49.931V49.8337L170.504 49.5176L169.579 49.7121L169.111 50.1803L169.646 49.475L169.871 49.396L170.029 49.1771L171.367 49.0615L172.34 48.4535V48.3501L172.279 48.2832L172.352 48.1495L172.237 47.961L172.012 48.0035V47.8029L171.47 48.0157L171.422 47.9184L171.975 47.6569L170.935 47.0002V46.9334L171.106 46.8239L170.437 45.6078L170.242 45.8632L170.169 46.149L170.096 46.2402H169.969L169.756 46.3922L169.403 46.0821L169.312 45.6565L169.385 45.4436L168.898 45.2916L168.455 44.8903L168.242 44.9754L167.591 44.8903L167.5 45.0727L167.64 45.2369L167.524 45.474L167.67 45.8328L167.457 46.3557L167.774 46.6415L167.822 47.1766L167.488 47.5414L167.19 47.6752L167.36 48.4474L167.317 48.6541L167.348 48.7757H167.251L167.135 48.9338L166.959 48.8609L166.582 48.3136V47.7481L166.46 47.5961L164.697 46.903L164.381 47.0185V46.8969L164.131 46.3861L163.9 46.3253L164.034 45.4558L164.758 44.6836L164.113 44.3978L164.849 44.5194L164.904 44.3066L165.214 44.3552L165.518 43.9904L164.983 43.7411V43.6073L165.408 43.8323L165.724 43.5587L165.603 43.4188L165.767 43.3337L165.907 43.4432H166.132L166.016 43.2729L166.053 43.206L166.272 43.2851H166.454L166.77 43.0175L166.594 42.5797V42.4764L166.807 42.3852L166.679 42.1359L165.943 41.917V42.148L166.01 42.2696L165.974 42.3791L165.834 42.4885L165.73 42.7378L165.639 42.5858L165.609 42.7804L165.688 42.9263L165.542 43.054L165.281 42.6953L165.372 42.5858V42.4338L165.232 42.2696L165.031 42.221L164.855 42.598L164.788 42.3061L164.867 42.1055L164.654 42.0142L164.496 42.0629V41.8562L164.618 41.8014L164.302 41.5217V41.3089L164.028 41.0961L163.979 40.9927L164.131 40.859L164.18 40.6157H164.508L164.818 40.1232L164.247 39.9469L163.803 40.0381L163.864 40.184H163.724L163.839 41.017L163.712 41.163L163.779 41.3028H163.602V41.9595L164.028 42.1237L163.955 42.446L164.058 42.3548L164.156 42.4885L163.803 42.7439V42.981L163.687 43.0723L163.578 42.8777V42.6892L163.335 42.6162L163.493 42.5797L163.602 42.4824L163.846 42.452L163.73 42.2453H163.56L163.736 42.2027L163.371 42.069L162.915 42.3122L163.262 42.5676L163.079 42.7013V42.8594L161.912 42.7986L161.723 42.6953L161.614 42.5068H161.267L160.957 42.677L161.055 42.7743L161.529 42.5919L161.182 42.8108V43.3337L161.048 43.2729V43.0723L159.583 42.975L159.82 42.7804L159.741 42.598L158.373 42.2392L157.656 42.3852V42.2271L157.589 42.0386L157.303 42.3912L156.987 41.917L156.859 41.9656L156.628 42.2696L155.758 42.7196L155.807 42.5858L156.549 42.1115H156.367L155.649 42.4581L155.491 42.373L155.205 42.6223L155.29 42.7621L151.751 42.069L151.685 41.9474H151.326L151.222 41.8501L150.955 41.923L151.034 41.8136L150.87 41.7285L150.128 42.0568L150.177 42.1845L149.714 42.2453L149.471 42.4885L149.386 42.75L148.857 42.8838L148.802 43.0418L149.374 43.6134H149.727L149.794 43.8201L150.018 43.8688L149.325 44.0147V43.8931H149.064L148.948 44.039H148.766L148.486 44.2336L148.79 44.3674L148.748 44.4829L148.906 44.6593H149.514L149.885 44.4951L149.824 44.6653V44.9876L149.569 45.018L149.459 45.2187L149.246 45.17L149.161 45.4193L148.954 45.6017L148.851 45.8206L149.04 45.9605V46.1915L149.295 46.4712L149.544 46.4165L149.648 46.3132L149.714 46.83H150.359L150.444 46.7023H150.669L150.602 47.207L149.994 47.815L149.672 47.8637L149.52 48.1312L151.508 46.678L151.344 46.5868L152.08 45.7781L152.207 45.8328V45.924L151.995 45.9787L151.91 46.2037V46.38L151.837 46.4895L151.922 46.5685L152.335 46.2949H152.633V46.1672L152.542 46.0274L152.609 45.9058L153.04 45.9909L152.949 46.076V46.1611L153.241 46.0943L153.284 46.1368L153.977 46.1915L154.165 46.3314L154.421 46.228L154.378 46.38L154.986 46.8178L155.108 46.6962L155.278 46.7935V46.5868H155.357V46.903L155.199 46.8665L155.059 46.9151L155.394 47.4502V47.0246L155.424 47.1948L155.546 47.1097V46.9334L155.667 47.0975L155.6 47.2678L155.485 47.3347V47.5901L155.57 47.4988L155.704 47.4624L155.886 47.6205L155.801 47.5049V47.3712L155.959 47.6083L155.856 47.736L155.673 47.6387L155.704 48.0643L155.777 47.9792L155.892 48.0278L155.941 47.888L156.044 47.9306L156.142 47.8698V48.04H156.233L156.324 48.1616L156.263 48.265L156.3 48.4474H156.482L156.531 48.5873L156.792 48.7879L156.841 49.1649L157.394 49.4142L157.473 49.5601L157.759 49.6513L157.941 49.9067L157.978 50.156L157.911 50.4053L157.814 50.0466V49.9432L157.206 49.4142L156.707 49.323L157.376 49.931L157.674 50.6303L157.704 52.9409L158.41 54.1144L158.847 54.2725L159.747 55.9203H159.577L160.07 56.2973L160.13 56.6013L160.599 57.1547L160.702 57.0756L160.659 56.881L160.477 56.7959L159.869 55.6163V55.4886L159.705 55.4096L159.516 54.8623H159.595L159.918 54.9839L159.997 55.592L161.565 57.562V57.7445L161.498 57.8296L161.669 58.1336L163.207 58.9362H164.022L164.247 59.1369L164.484 59.3619L165.195 59.5747L165.268 59.5382H165.329L165.384 59.7206L165.712 60.0976V60.1949L165.767 60.4077L165.889 60.3773L166.74 60.9854L166.904 60.9306L166.843 60.7969L166.953 60.6753L167.19 60.584L167.445 61.0766L167.482 61.9947L167.153 62.4264V62.4568L167.007 62.548L166.88 63.3507L167.007 63.4784H167.111L167.013 63.6304L166.837 63.8432L166.922 64.1776L166.855 64.2445L167.986 66.4092L169.202 67.3212L168.321 74.0098L168.418 74.1739L168.515 73.7301L168.594 73.6388L168.649 73.7301L168.57 74.7698L168.461 74.8428V75.0009L168.327 74.9401L168.418 74.7759L168.309 74.5996L168.375 74.7941L168.138 74.9583V75.0738L168.005 75.2259H168.278V75.3475L168.211 75.4995H168.412V75.5968H168.144L167.998 75.7305L168.078 75.84L168.187 75.7609H168.272L168.053 76.0163L168.15 76.1927L168.309 75.9798L168.248 76.3386L168.12 76.4967V76.7277L168.339 76.6912L168.382 76.7764L168.284 76.8919H168.412H168.485L168.619 76.9466L168.43 77.0378L168.369 77.1838L168.527 77.123H168.856L168.467 77.2871V77.3358L168.904 77.1898L168.631 77.4148H168.406V77.579L168.728 77.6884L168.692 77.6033L169.129 77.123L169.069 77.3844H169.263L169.142 77.4939V77.6641L169.05 77.4635L169.008 77.6155L168.904 77.5729L168.74 77.7675L168.898 77.804L169.002 78.0229L169.081 77.8283L169.233 78.0533L169.306 77.9682L169.531 78.1506V77.9864L170.194 77.8648L169.525 77.3601V77.2567L169.446 77.123L169.257 77.0257V76.9892H169.458L169.324 76.5757L169.367 76.3507L170.011 75.5603L170.054 75.3171L169.841 75.2563L169.689 74.8853L170.042 74.6482L170.303 73.9185L170.425 73.9976L170.51 73.8091L170.358 73.8517L170.242 73.7909L170.2 73.3774L170.54 73.4747L170.789 73.3287V72.9213L170.868 72.8241L171.416 72.7815L171.823 72.5444L172.018 72.2221L171.622 71.535H171.695L172.06 71.6566L172.547 71.6019L173.209 70.3858V70.6959L173.702 69.948L173.83 69.042L174.669 68.434L175.222 68.361L175.83 67.0537L175.885 65.8376L175.927 65.7646L176.061 65.8072L176.736 64.7492L176.694 64.0378L176.505 63.8979L176.608 63.8918Z" fill="#808080"/>
<path d="M168.315 57.7141L166.886 56.9905L166.132 57.3127L166.497 57.1121L167.518 57.556L167.622 57.7505L168.315 57.7141Z" fill="#808080"/>
<path d="M167.433 58.2066L167.871 58.2857L167.433 58.2066Z" fill="#808080"/>
<path d="M169.865 58.1822L170.218 58.1701L169.865 58.1822Z" fill="#808080"/>
<path d="M164.66 62.8095L164.794 63.0582L164.66 62.8095Z" fill="#808080"/>
<path d="M179.643 41.3576L178.785 41.3393L178.883 40.9441L179.667 41.2177L179.74 40.8894L179.181 40.336L179.497 40.3725L179.703 40.1111L179.187 40.1171L179.089 39.959L179.174 39.7523L179.649 39.8982L180.014 39.7888L179.728 39.4908L180.208 39.424L180.263 39.2537L179.874 38.9862L180.251 38.901L180.147 38.4511L179.764 38.3599L179.606 38.1714L180.488 38.0984L180.354 37.843L179.995 37.764L180.293 37.6849L179.685 37.6059L179.819 37.1438L180.561 36.5357L180.415 36.3472L180.056 36.4871L180.348 36.2743L180.895 36.1648L180.494 36.0736L181.838 35.4412L181.096 35.2284L180.658 35.4777L180.214 35.5203L180.026 35.4473L179.235 36.0615L179.594 35.5385L179.46 35.1859L178.493 35.6662L178.943 35.3318L177.32 35.4838L179.764 34.8879L176.341 34.4562L175.976 34.6812L174.353 34.7542L174.565 34.973L174.182 35.1129L174.73 35.4899L173.398 35.1251L173.659 35.4595L173.362 35.4838L172.966 35.2528L172.948 35.5629L172.772 35.7392L172.656 35.2406L171.124 35.6905L171.185 36.0615L170.777 36.0007L169.811 36.6391L170.333 36.7121L170.157 37.1681L168.673 37.7153L168.801 37.8978L170.066 38.1653L168.971 38.3599L169.354 38.4632L169.361 38.6578L169.616 38.8098L170.716 38.6761L171.75 39.1078L172.504 40.33L172.395 40.6401L172.498 40.9684L172.82 40.7982L172.899 41.0414L173.307 41.2542L173.222 41.3576L172.65 41.3272L173.228 41.6129L173.416 41.8622L173.374 42.2027L173.1 42.2271L172.753 42.7743L172.96 42.981L172.796 43.206L173.094 43.5526L173.13 43.9722L173.635 44.8417L174.955 45.6443L175.113 45.4497L175.204 44.6714L175.563 44.185L175.569 44.0087L175.654 43.8931L175.611 43.7107L175.642 43.6134L176.146 43.1756L176.25 43.1695L176.298 43.2972L176.7 43.1878L177.442 42.3912L179.564 41.4852L179.643 41.3576Z" fill="#808080"/>
<path d="M173.155 41.8259L172.985 41.6495L172.565 41.5764L172.535 41.7894L172.772 41.9416L173.155 41.8259Z" fill="#808080"/>
<path d="M164.508 39.5212L165.104 39.7097L165.256 39.6307L167.001 39.6489L167.19 39.2537L165.037 39.1382L165.104 38.9071L164.083 38.5909L163.548 38.6943L164.502 39.1443L164.508 39.5212Z" fill="#808080"/>
<path d="M167.147 45.2362L167.178 44.9633L167.147 45.2362Z" fill="#808080"/>
<path d="M162.35 42.0203L162.648 41.996L161.936 41.4974L161.79 40.257L161.377 40.3786L161.644 40.634L161.352 40.5124L161.128 40.5184L161.267 41.1082L161.134 41.242L160.975 40.8285L160.58 40.6644L160.744 40.865L160.495 40.8954L160.094 40.6583L159.954 40.8893L159.796 40.8225L159.832 40.5367L158.914 40.9684L158.853 41.1386L159.036 41.4609L159.534 41.3697L158.981 41.6372L160.319 41.8622L159.157 42.1054L160.398 42.6527L161.34 42.3061L162.441 42.4034L162.301 42.1906L162.137 42.1845L162.35 42.0203Z" fill="#808080"/>
<path d="M166.32 45.0243L166.679 44.7383L166.32 45.0243Z" fill="#808080"/>
<path d="M172.334 48.7453L172.231 48.6663L171.604 49.9128L172.437 49.8824L172.383 50.0587L172.565 49.9675L172.966 50.0587L172.857 49.7121L172.772 49.6574L172.784 49.4142L172.425 49.3291L172.328 49.1892L172.164 49.2014L172.182 49.025L172.334 48.7453Z" fill="#808080"/>
<path d="M170.461 49.2561L171.051 49.4691L170.461 49.2561Z" fill="#808080"/>
<path d="M167.001 44.4039L166.028 43.6499L165.791 43.8201L165.554 44.489L165.822 44.4708L165.931 44.6653L166.29 44.4282L167.001 44.4039Z" fill="#808080"/>
<path d="M162.063 39.5818L161.869 39.4665L162.063 39.5818Z" fill="#808080"/>
<path d="M168.096 42.8962L168.127 42.5676L167.853 42.5007L167.658 42.8841L168.096 42.8962Z" fill="#808080"/>
<path d="M162.976 41.3038L163.354 41.176L163.634 40.5675L163.506 40.5432L163.475 40.6405L163.214 40.531L163.488 40.2632L163.336 40.0381L162.575 40.3789L162.806 40.5857L162.386 40.5553L162.976 41.3038Z" fill="#808080"/>
<path d="M157.96 41.6555L159.553 40.4516L159.291 40.1901L158.306 39.9712L157.643 40.1111L157.741 40.336L157.4 41.0779L157.96 41.6555Z" fill="#808080"/>
<path d="M164.988 38.2261L164.782 38.4202L164.988 38.2261Z" fill="#808080"/>
<path d="M158.787 39.4667L159.115 39.2111L158.787 39.4667Z" fill="#808080"/>
<path d="M155.856 48.3015L156.178 48.8248L156.075 48.4536L155.856 48.3015Z" fill="#808080"/>
<path d="M164.284 38.1653L163.663 38.3174L164.284 38.1653Z" fill="#808080"/>
<path d="M168.947 41.1204L168.625 41.1387L167.658 40.561L167.421 40.7738L167.293 40.7252L166.941 40.865L166.953 40.4516L166.801 40.1658L166.387 40.1779L165.931 40.3968L165.998 40.7556L165.889 40.9866L166.114 41.163L165.755 41.011L165.706 40.7009L165.822 40.3482L166.035 40.1232L165.195 40.3908L165.001 41.242L165.451 41.3271L165.402 41.4366L165.086 41.4792L166.612 41.8987L166.831 41.7832L167.311 41.844L167.281 41.692L167.33 41.5704L168.023 42.1054L167.81 42.3183L168.144 42.1967L168.661 42.6588V43.0844L169.014 43.0418L169.342 43.2182L169.032 43.4006L168.491 43.1878L168.436 43.6012L167.652 43.808L167.53 44.1181L168.528 44.0451L168.777 44.2883L168.898 44.5985L170.072 45.0423L169.513 44.41L170.412 44.489L169.731 43.5222L169.792 43.2486L170.096 43.358L170.406 43.6985L170.85 43.4736L171.13 43.1513L169.659 42.1845L169.95 42.0994L169.707 41.9656L169.829 41.8501L169.713 41.6494L169.561 41.7406L169.598 41.546L169.117 41.3211L168.844 41.394L168.765 41.3211L168.947 41.1204Z" fill="#808080"/>
<path d="M166.916 40.1111L167.044 40.4092L167.366 40.5188L167.878 40.4031L167.336 40.1171L166.916 40.1111Z" fill="#808080"/>
<path d="M160.733 38.214L160.605 38.1227L160.07 38.3357L160.35 38.5426L160.733 38.214Z" fill="#808080"/>
<path d="M161.839 37.6363L162.119 37.7822L161.784 37.8552L163.012 38.0741L162.927 37.8066L162.447 37.4782L161.699 37.3809L161.839 37.6363Z" fill="#808080"/>
<path d="M159.953 38.2989L159.674 38.2383L159.953 38.2989Z" fill="#808080"/>
<path d="M161.906 38.5425L161.584 38.2626L161.906 38.5425Z" fill="#808080"/>
<path d="M159.468 39.0895L159.498 39.2537L159.316 39.4604L159.534 39.4544L159.157 39.6064L159.723 39.6429L159.887 39.5638L160.295 39.582L159.984 39.7888L159.972 40.0138L161.498 39.6429L161.578 39.1382L161.34 39.2476L160.951 38.7733L160.726 39.047L160.744 39.2111L160.903 39.3875L159.693 38.9314L159.468 39.0895Z" fill="#808080"/>
<path d="M158.087 39.3267L158.403 39.1686L158.549 39.3571L158.993 38.822L159.054 39.0409L159.419 38.8767V38.6943L159.553 38.5605L159.382 38.4572L159.255 38.5545L158.975 38.5362L158.008 39.1929L158.087 39.3267Z" fill="#808080"/>
<path d="M160.27 38.0256L160.885 37.9161L160.422 37.8065L160.021 38.0134L160.27 38.0256Z" fill="#808080"/>
<path d="M163.633 37.0586L163.839 37.314H164.46L164.083 37.5329L164.885 37.9282L165.189 37.9038L165.621 37.4113L165.98 37.2593L165.566 37.0039L165.469 36.7789L164.083 36.1952L164.107 36.3047L163.785 36.5357L163.821 36.8033L163.633 37.0586Z" fill="#808080"/>
<path d="M163.523 38.1353L163.901 38.044L163.919 37.8615L163.25 37.6241L163.523 38.1353Z" fill="#808080"/>
<path d="M163.127 37.0888L162.842 36.9796L163.127 37.0888Z" fill="#808080"/>
<path d="M164.077 39.3388L163.542 39.6005L164.18 39.7526L164.077 39.3388Z" fill="#808080"/>
<path d="M162.733 38.7004L162.8 38.9801L162.55 38.9132L162.477 39.0895L162.35 39.1078L161.997 38.749L161.973 39.053L162.307 39.3145L162.818 39.2841L162.769 39.5881L163.213 39.6003L163.39 39.3936L163.371 39.1503L163.128 38.7855L162.733 38.7004Z" fill="#808080"/>
<path d="M164.776 35.9459L164.897 35.9763L164.983 36.0675L164.916 36.2378L165.11 36.3776L165.651 36.3837L165.712 36.4993L167.226 36.2196V36.4263L166.527 36.6269L166.795 36.9431L165.761 36.6817L165.773 37.0708L166.582 37.6302L166.01 37.5208L165.463 37.8187H165.968L165.925 37.9707L166.168 38.2869L165.889 38.2626L165.518 38.0559L165.481 38.4511L165.049 38.7125L167.451 38.6882L167.549 38.4693L166.849 38.3964L166.855 38.2504L167.415 38.2139L167.451 37.9707L167.853 37.9282L168.278 37.4113L167.707 37.2897L168.187 37.1316L168.455 36.8945L168.868 36.9127L170.437 35.8912L169.798 35.873L170.954 35.4838L171.014 35.2406L170.437 35.0339L169.95 35.1251L170.035 34.9731L165.913 35.4534L165.566 35.721L165.238 35.6784L165.068 35.8365L164.612 35.8973L164.776 35.9459Z" fill="#808080"/>
<path d="M149.125 48.3557L149.404 48.1859L149.125 48.3557Z" fill="#808080"/>
<path d="M151.588 46.9334L151.399 47.1829L151.247 47.2559L151.338 47.4385H151.448L151.721 47.2012L151.642 47.0612L151.794 46.976L151.752 46.8604L151.588 46.9334Z" fill="#808080"/>
<path d="M148.803 46.3071L148.614 46.3862L148.906 46.4774L148.949 46.3131L148.803 46.3071Z" fill="#808080"/>
<path d="M185.2 51.9741L185.012 52.0529L185.2 51.9741Z" fill="#808080"/>
<path d="M190.114 53.099L189.633 53.0564L189.499 53.1233L189.822 53.2085L190.114 53.099Z" fill="#808080"/>
<path d="M191.755 53.1539L191.877 52.9956L191.871 52.947L191.56 53.0626L191.457 53.2391L191.755 53.1539Z" fill="#808080"/>
<path d="M181.157 43.7958L181.497 43.4432L181.224 42.975L181.078 42.9932L180.871 42.8837L180.847 43.0358L180.506 43.0783L180.397 43.0418L180.251 43.1574L180.166 43.1087L180.062 43.1878L180.038 43.3033L179.892 43.3823L179.837 43.1817L179.509 42.9446L179.539 43.0844L179.46 43.0783L179.32 43.1452L179.211 43.3094L179.679 43.358L179.637 43.4796L179.278 43.6316H179.594L179.734 43.8019L179.551 44.0026L179.825 43.9843L180.22 44.1485L181.157 43.7958Z" fill="#808080"/>
<path d="M182.428 48.3754L183.067 48.1198V47.5052L183.231 47.3835L183.109 47.1097L182.592 47.2192L182.695 47.3348L182.519 47.4383L182.288 47.4505L182.415 47.8095L182.355 48.0164L182.209 48.1868L182.428 48.3754Z" fill="#808080"/>
<path d="M183.078 45.9605L182.938 46.1849L183.078 45.9605Z" fill="#808080"/>
<path d="M183.029 46.2949L183.181 46.4348L183.102 46.6172L183.218 46.751L183.042 46.909L183.194 46.8422L183.285 46.9881L183.406 46.7935L183.425 46.9638L183.346 47.2131L183.662 47.1705L183.808 47.4867L183.789 47.7117L183.571 47.7238L183.504 47.7664L183.437 47.9245L183.565 48.0157L183.358 48.1859L183.443 48.2893L183.796 48.3501L183.814 48.4109L183.577 48.4535L183.297 48.8487L183.461 48.7393L183.619 48.7758L183.717 48.6602L184.045 48.5751L184.215 48.6177L184.762 48.4048L184.671 48.3562L184.689 48.2103L184.866 47.967L184.531 47.8333V47.6995L184.008 46.8543L183.808 46.8239L184.057 46.222L183.65 46.2159L183.577 46.1368L183.741 45.924L183.777 45.7781L183.68 45.8814L183.443 45.8936L183.157 46.3436L183.029 46.2949Z" fill="#808080"/>
<path d="M187.024 47.1952L187.183 46.9883L187.237 46.7205L187.164 46.7814L187.091 46.7205L186.945 46.7996L187.031 47.0187L186.97 47.0917L187.024 47.1952Z" fill="#808080"/>
<path d="M188.532 46.0091L188.386 46.3377L188.532 46.0091Z" fill="#808080"/>
<path d="M189.401 45.5896L189.262 45.6078L189.401 45.5896Z" fill="#808080"/>
<path d="M189.219 45.9174L189.444 45.7415L189.304 45.699L189.219 45.9174Z" fill="#808080"/>
<path d="M188.429 36.1709H189.225L188.769 36.3594L189.542 36.5114L190.375 35.9946L189.615 35.8912L189.493 35.9642L189.371 35.8061L189.329 36.0493L189.159 35.9459L188.976 35.9398L188.739 35.7939L188.751 35.9034L188.593 35.8608L188.599 36.0007L188.435 35.873L188.344 35.9702L188.453 36.0736L188.429 36.1709Z" fill="#808080"/>
<path d="M186.915 37.0162L187.067 37.1319L186.781 36.8033L186.915 37.0162Z" fill="#808080"/>
<path d="M187.116 36.5661L186.988 36.8093L187.207 37.0769L187.517 37.089L187.748 36.7789L187.766 36.9309L187.955 36.9005L188.04 36.9796L187.438 37.2654L187.632 37.3505L188.07 37.314L187.468 37.5329L187.687 37.7214L187.9 37.7397L187.797 37.8369L187.973 37.9525L188.119 37.8977L188.63 36.9249L188.897 36.8276L188.94 36.8823L188.97 37.0708L189.049 37.1559L189.013 37.3931L189.219 37.4356L189.341 37.5572L189.803 37.2532L189.469 37.1681L189.432 37.0708L189.262 37.0039L189.14 36.8701L189.098 36.7303L188.538 36.5357L188.453 36.3472L188.277 36.4384L188.332 36.2621L188.107 36.177L187.991 36.0675L187.906 36.3047L188.04 36.6756L187.651 36.2499L187.566 36.4506L187.505 36.4992L187.341 36.3533L187.523 36.2682L187.401 36.2256L187.061 36.256L186.885 36.3472V36.5965L187.116 36.5661Z" fill="#808080"/>
<path d="M215.572 50.1621L215.384 50.2533L215.256 50.5512V50.7458L215.493 50.6607L215.359 50.4783L215.888 50.533L216.357 50.2898L216.727 49.8459L216.29 49.9858L215.797 49.5966L215.651 49.6757L215.572 50.1621Z" fill="#808080"/>
<path d="M213.012 53.1781L212.915 53.3545L213.043 53.2815L213.164 53.8353L213.414 53.4032L213.365 53.245L213.213 53.1172L213.012 53.1781Z" fill="#808080"/>
<path d="M214.478 52.2051L214.338 52.4605L213.596 52.5882L213.249 52.8861V53.0382L214.058 52.7949L214.155 53.0138L214.417 52.9956L214.496 52.8193L214.569 52.7828L215.019 52.7645L215.153 52.6125L215.365 52.57L215.481 51.8221L215.688 51.5424L215.578 50.8735L215.292 50.9708L215.14 51.6457L214.794 52.0774L214.648 51.9984L214.478 52.2051Z" fill="#808080"/>
<path d="M213.706 53.2816L213.9 53.1904L214.052 52.9652L213.827 52.9409L213.614 53.0139L213.584 53.3486L213.706 53.2816Z" fill="#808080"/>
<path d="M210.878 56.3101L211.158 55.5251L210.756 55.8841L210.878 56.3101Z" fill="#808080"/>
<path d="M208.556 57.2582L208.671 56.954L208.397 56.9418L208.178 57.2887L208.556 57.2582Z" fill="#808080"/>
<path d="M211.955 59.6172L211.693 59.8667L211.499 59.8181L211.237 59.9945L211.152 60.2562L211.517 60.0615L211.699 60.4935L211.937 60.6213L211.925 60.2988L212.168 60.1832L212.113 59.6294L211.955 59.6172Z" fill="#808080"/>
<path d="M210.671 57.866L210.793 58.4011L211.498 58.7599L211.766 59.4044L211.942 59.1855L211.881 58.8815L211.474 58.468L211.164 58.4133L211.048 58.1822L211.2 57.8235L211.152 57.331L210.823 57.3066L210.781 57.8964L210.671 57.866Z" fill="#808080"/>
<path d="M210.799 58.6201L211.011 58.8809L210.799 58.6201Z" fill="#808080"/>
<path d="M210.386 59.4898L210.1 59.9097L210.507 59.4837L210.568 59.2099L210.386 59.4898Z" fill="#808080"/>
<path d="M211.734 59.4956L211.571 59.6162L211.734 59.4956Z" fill="#808080"/>
<path d="M211.499 59.283L211.158 58.991L211.17 59.3317L211.292 59.2587L211.34 59.7333L211.584 59.3256L211.499 59.283Z" fill="#808080"/>
<path d="M217.883 63.144L217.61 63.3326L217.129 63.3631L217.494 63.5395L217.963 63.2718L218.029 63.0466L217.883 63.144Z" fill="#808080"/>
<path d="M218.18 63.1129L218.108 62.8582L218.041 62.8764L218.18 63.1129Z" fill="#808080"/>
<path d="M216.946 63.4905L214.672 62.3535L214.107 62.8277L213.87 62.2075L213.353 62.1406L213.164 62.3048L213.28 62.3717L213.408 62.5419L213.766 62.5541L213.748 62.6332L213.42 62.7122L213.56 62.9311L214.776 63.3507L214.903 63.6364L214.897 63.8614L214.684 64.0682L215.207 64.0256L215.688 64.3175L216.095 63.9526L216.563 64.0621L217.062 64.5485L217.536 64.6336L217.5 64.4816L217.111 64.1958L216.898 63.6547L216.946 63.4905Z" fill="#808080"/>
<path d="M202.043 59.7388L201.952 60.3048L202.068 60.676L202.408 60.3109L202.043 59.7388Z" fill="#808080"/>
<path d="M195.099 65.3025L195.02 65.3815L194.99 65.5579L194.746 65.7828L194.74 65.9166L193.993 66.3179L193.792 68.2029L193.938 68.6711L194.327 68.7744L194.552 68.6772L195.209 66.2146L195.342 66.1842L195.099 65.3025Z" fill="#808080"/>
<path d="M196.054 59.1368L196.278 59.0822L196.054 59.1368Z" fill="#808080"/>
<path d="M216.649 73.043L216.265 72.9274L216.369 73.4325L216.667 73.8159L216.795 73.7185L216.843 73.5846L216.977 73.6151L217.032 72.9518L216.649 73.043Z" fill="#808080"/>
<path d="M212.976 65.0104L213.267 64.9316L212.976 65.0104Z" fill="#808080"/>
<path d="M214.386 71.5227L214.659 71.4803L214.386 71.5227Z" fill="#808080"/>
<path d="M218.278 69.2305L218.211 68.6224L217.719 68.0752L217.64 67.8137L217.548 67.7347L217.421 67.7469L217.202 67.2057L216.685 66.8713L216.259 65.6309L216.083 65.6369L215.797 64.6823L215.651 64.8647L215.481 66.1842L215.286 66.4821L214.216 65.7889L214.253 65.4545L214.399 65.3329L214.472 65.1627L214.423 65.041L214.338 65.1444L214.253 65.0106L214.082 65.0958L213.438 64.81L213.523 64.9742L213.176 65.0958L212.86 65.5883L212.872 65.8011L212.611 65.8437L212.222 65.5214L212.094 65.6065L212.027 65.7221L211.851 65.7342L211.814 65.8437L211.705 65.9288L211.662 66.1781L211.498 66.1599L211.535 66.3483L211.462 66.4821L211.377 66.2936L211.2 66.397L211.188 66.6889L210.866 67.0537L209.498 67.6252L209.376 67.8077L209.352 67.6557L209.236 67.8381L209.206 68.5252L209.334 68.8596L209.2 68.7319L209.267 68.9082L209.109 68.7745L209.723 70.3797L209.674 70.7141L209.546 70.927L209.607 71.0911L209.771 71.2492L210.203 71.2918L213.189 70.2581L213.857 70.5135L213.87 70.6655L214.07 70.8783L214.125 71.158L214.727 70.6594L214.49 71.2188L214.697 71.1945L214.824 71.1215L214.794 71.3952L214.958 71.383L215.268 72.0518L215.955 72.3315L216.241 72.143L216.332 72.1856L216.375 72.2586L216.436 72.2099L216.661 72.4228L216.977 72.1005L217.445 72.0032L218.278 69.2305Z" fill="#808080"/>
<path d="M221.507 74.8729L221.592 74.7577L221.507 74.8729Z" fill="#808080"/>
<path d="M195.02 41.4429L195.434 41.3394L195.233 41.1812L195.02 41.4429Z" fill="#808080"/>
<path d="M195.902 40.1962L195.938 40.3786L196.023 40.2935L196.48 40.5975L197.057 40.5793L196.753 40.2874L196.674 39.7523L197.3 38.7733L199.605 37.4964L196.875 38.3842L196.638 38.8828L196.449 38.9983L196.364 39.3206L196.011 39.5638L196.084 39.7341L195.677 40.0563L195.902 40.1962Z" fill="#808080"/>
<path d="M204.596 34.9487L204.299 35.0033L204.596 34.9487Z" fill="#808080"/>
<path d="M216.077 38.8344L215.785 38.5301L215.414 38.737L216.077 38.8344Z" fill="#808080"/>
<path d="M215.547 38.3599L215.335 38.463L215.547 38.3599Z" fill="#808080"/>
<path d="M205.114 35.6663L204.962 35.8915L205.978 36.2323L206.234 35.7576L205.735 35.496L205.114 35.6663Z" fill="#808080"/>
<path d="M206.135 36.6756L207.497 36.2743L207.205 36.0675L206.883 36.1527L206.907 36.0189L206.78 35.8608L206.543 35.9642L206.464 36.1709L206.293 36.3168L206.135 36.6756Z" fill="#808080"/>
<path d="M214.867 38.0863L215.809 37.9951L215.791 37.7032L216.205 37.9707L216.363 37.7458L216.308 37.5329L215.821 37.4417L215.499 37.5451L215.068 37.3262L214.684 37.9282L214.867 38.0863Z" fill="#808080"/>
<path d="M215.998 46.909L215.852 46.6111L215.712 49.3291L215.858 49.1588L216.053 49.3412L215.858 48.8244L215.925 48.417L216.192 48.3805L216.265 48.3319L215.998 46.909Z" fill="#808080"/>
<path d="M208.993 38.4389L208.859 38.5606L209.261 38.4754L208.993 38.4389Z" fill="#808080"/>
<path d="M217.257 38.044L217.799 37.9101L216.861 37.6789L216.703 37.8553L217.257 38.044Z" fill="#808080"/>
<path d="M204.767 35.4722L204.713 35.5695L204.554 35.6608L204.755 35.8069L205.631 35.3931L205.692 35.1801L205.431 34.8089L204.859 35.1253L204.761 35.3018L204.767 35.4722Z" fill="#808080"/>
<path d="M226.256 41.996L226.511 42.0507L226.462 41.9778H226.511H226.633L226.778 41.7649L226.024 41.3819H225.727L225.86 41.4609L225.83 41.6251L225.684 41.5582V41.3028L225.599 41.1691L222.346 40.0989L222.273 40.2631L222.382 40.4637L222.328 40.7069L221.792 40.4333L222.066 40.2874L221.78 40.1658L221.513 40.409H220.26L220.218 40.6461L220.157 40.4029L219.859 40.2935L219.901 40.1293L219.531 39.7827L218.15 39.8618L218.089 39.7401L217.433 39.5212V39.4422L217.615 39.3388L216.892 39.2294L216.758 39.4787H216.515L216.691 39.351L216.442 39.2719L216.563 39.2051H216.74L215.523 39.0287L215.475 39.1443L215.067 39.3936H215.25L215.189 39.5273L215.256 39.6976H214.861L214.8 39.7523V39.8557L214.307 39.6368L214.046 39.7401L213.584 39.6003L213.316 40.0624L213.176 40.0138L212.635 39.4361H212.891L212.745 38.901L212.593 38.7916H212.21L211.754 38.5605L211.535 38.822V39.0105L210.398 39.0287L210.489 38.9071H209.309V39.0409L209.273 38.7977L209.157 38.7673L208.926 38.8159L208.671 38.6761L208.415 38.8463L208.549 38.8828L207.57 39.2598L207.625 39.0835L208.841 38.372L208.95 38.2322L209.218 38.1045L209.321 37.9525L209.224 37.8674L209.334 37.8187L209.261 37.5877H209.115L209.066 37.3809L208.136 37.3262L207.99 37.4235L207.71 37.466L207.868 37.2228L207.26 37.1742L207.534 37.0465V36.9492L207.114 36.8398L206.816 36.9188L206.421 37.3627L206.464 37.466L205.995 37.5816L206.141 37.6971L205.491 37.7761L205.552 37.6363L205.339 37.7032H205.193L204.834 37.8187L204.968 37.916L203.642 38.3295L203.612 38.3903L203.527 38.4572L203.588 38.5423H203.399L203.618 38.6943H203.448L203.618 38.8524V38.9618L202.335 39.126L202.268 39.5577L202.566 39.728L202.694 39.9651L201.648 39.6246L201.508 39.7523L201.721 39.8678L201.295 39.9712L201.794 40.3421L201.757 40.4151L201.502 40.2752H201.125L201.167 39.8618L201.07 39.5577L200.955 39.9226L200.693 40.0867L200.602 40.2387L200.857 40.5793L200.736 41.2542H200.906L201.161 41.1873L201.587 41.3332L201.672 41.5278L201.569 41.7102L201.824 41.8987H201.575L201.478 41.7467L201.532 41.5643L201.277 41.3089L200.936 41.4244L200.985 41.7649L200.432 42.446H199.824L199.714 42.3426L200.085 42.4095L200.59 41.8987L200.693 41.5217L200.517 41.3089L200.566 40.5549L200.383 40.2813L200.553 39.6733L199.854 39.5699L199.197 40.5549L199.319 40.5853L199.21 41.0779L199.471 41.1812L199.562 41.3819L199.696 41.4548L199.562 41.7041L197.398 40.8225L197.464 41.0292L197.768 41.2055L197.866 41.4062L197.799 41.546L197.531 41.692V41.4609L197.398 41.3515L197.063 41.5521H196.692L196.486 41.7224H196.188L196.346 41.4062L196.042 41.5156L195.999 41.6555L195.902 41.5947L194.947 42.0203L194.898 42.2879L194.521 42.3548L194.351 42.1723V42.0142L194.704 41.923L194.57 41.692L194.017 41.5825L194.12 41.8501L194.035 42.1298L194.187 42.4338L194.12 42.6284H194.023L193.962 42.5615L193.737 42.5189L193.196 42.8777L193.299 43.2911L192.807 43.2243L192.558 43.0662L192.424 43.206L192.491 43.352L192.703 43.4249V43.5769L192.539 43.6134L192.168 43.4371L191.998 43.1148V42.7986L191.39 42.2818L192.764 42.6953L193.403 42.3548V42.0629L191.481 41.2481L191.645 41.1873L191.499 41.1204L191.214 41.1569H190.952L190.812 41.0353H190.922L191.22 40.9137L191.104 40.7921L190.825 40.6765L190.6 40.8346V40.6948L190.508 40.561L190.241 40.9015V40.6705L189.894 41.0049L189.931 40.8468L190.071 40.6461V40.5549L189.949 40.6705H189.797L189.754 40.7677L189.56 40.865L189.481 41.1083L189.402 40.9502L189.566 40.7191L189.311 40.7921V40.9562L189.25 41.011H189.086L189.207 41.1326H189.104L188.988 41.0535L188.915 41.1083L188.964 41.2663L188.891 41.2177H188.769V41.0718H188.617L188.557 41.1447V41.2603L188.484 41.3211L188.259 41.3576L188.149 41.5339H188.283L188.313 41.6251V41.6859H188.198L188.107 41.6251L187.985 41.6981L188.034 41.4913L187.426 42.0446H187.499L188.137 41.8136V41.9474L188.076 41.9899L187.991 41.9413L187.517 42.6284L187.48 42.8108L187.31 42.8473L187.28 43.2486L186.994 43.3337L187.115 43.4796L186.854 43.6134L186.617 43.96L186.495 43.8566V43.9965L186.167 44.1789L186.282 44.2762H186.094L185.729 44.5012H185.644L185.547 44.6167L185.632 44.7383L185.565 45.1883L185.68 45.2247L185.833 45.1579L185.875 45.2308L185.76 45.3403H185.674L185.601 45.4132V45.5592H185.839L185.729 45.7173L185.96 45.9179L186.216 45.9848L186.617 45.6321L186.769 45.5957L186.824 45.4132L187.359 46.909H187.529L187.675 46.678H187.857L187.985 46.5624L188.058 46.5989L188.161 46.3253H188.082L188.113 45.8024L188.563 45.2308L188.356 44.9754L188.204 44.9329L188.173 44.6532L188.569 43.9053L189.11 43.4675V43.2243L189.189 43.0236L189.335 42.8898L189.681 42.8594L189.858 42.9385L189.937 43.127L189.061 44.0877V44.939L189.639 45.1579L190.514 44.9268L190.606 44.8903L190.746 45.0484L190.934 45.091L189.645 45.4072L189.511 45.5531L189.56 45.7051L189.688 45.7902L189.73 45.8875V46.1307L189.548 46.228L189.353 45.9787L189.146 46.0942L189.025 46.532V46.8726L189.061 46.909L188.988 47.0428H188.739V47.1036L188.617 47.1766L188.514 47.0246L187.638 47.3894L187.505 47.3164V47.1705L187.061 47.4016L186.714 47.1827L186.611 47.0002H186.878L186.799 46.8482H186.702L186.763 46.6901L186.903 46.605L186.799 46.4895V46.1064L186.507 46.2888V46.3983L186.337 46.3253L186.228 46.5077L186.441 47.438L186.349 47.5353H186.021V47.584L185.747 47.6265L185.662 47.7968H185.559L185.455 47.8576L185.182 48.2954L184.957 48.3988L184.458 49.0068L184.185 48.9034L184.057 49.0068L184.087 49.2683H183.905L183.771 49.1953H183.558L183.425 49.3169V49.4689L183.905 49.6209L184.203 50.1317L184.069 50.8796L182.701 50.7823L182.519 50.9161V52.7402H182.975L183.236 53.0199L183.297 53.0138L183.905 52.8983L184.47 52.2903V51.9254L185.079 51.4086L185.17 51.2019V51.135L185.352 50.8857L185.747 50.9769L186.392 50.5816L187.894 51.968V52.4301L188.131 52.0714L188.034 51.8829L188.24 51.7673H188.405L187.188 50.5512V50.3019L187.286 50.156H187.426L187.499 50.3323L187.669 50.4114L187.863 50.7519L188.593 51.2323L188.648 51.7491L188.794 51.9558L188.915 52.1687L189.262 52.2963H189.031L189.189 52.6733L189.396 52.7767L189.377 52.5274H189.529L189.432 52.4362L189.511 52.3815H189.669L189.596 52.1808H189.414L189.487 52.047L189.311 51.7734L189.42 51.7005H189.596L189.639 51.512L189.773 51.5606L189.937 51.4633L190.21 51.6032L190.417 51.4572L190.709 51.4208L190.545 51.2687L190.417 50.8978L190.636 50.6303V50.4965L190.861 50.156L191.153 49.7121L191.396 49.6635V49.8277L191.755 49.8763L191.463 50.0648L191.682 50.1743V50.3627L192.363 50.1499L192.138 50.0891L191.962 49.8946L192.916 49.5115L192.649 49.7L192.728 49.8337L192.424 50.1499L193.403 50.8857L193.482 51.141L193.433 51.2262L192.643 51.4086L191.864 51.135L190.715 51.4268L190.606 51.6214L190.15 51.6761L190.101 51.8585L190.192 51.9254V52.418L190.448 52.6368L190.557 52.6733L190.691 52.8253L191.153 52.6673L191.451 52.8557L191.676 52.8071L191.883 52.6551L192.053 52.6977L192.217 52.6429L192.016 53.6219L192.132 53.6766L192.016 53.628L191.81 54.2299L189.87 54.0901L189.262 53.8225L188.775 54.1144L188.806 54.4367L188.064 54.2907L187.705 53.9806L187.061 53.8469L186.714 53.5793L186.884 53.403L186.933 52.8557L186.903 52.7645L184.835 52.8983L184.075 53.3665L183.254 53.1719L183.011 53.6766L182.683 53.8651L182.397 54.3151V54.6921L180.816 57.1242L180.986 57.7992L180.828 58.6991L180.865 59.0943V59.2403V59.3558L182.744 61.338L183.856 61.1982L184.021 61.259L185.151 60.7665L185.48 60.8516L185.802 61.3137L186.349 61.2103L186.441 61.3441L186.605 61.3806L186.666 61.6238L186.623 61.8427L186.568 62.171L186.532 62.2197L186.617 62.3474L186.41 62.6088L187.371 64.433L187.334 64.6945L187.474 65.2113L187.018 66.7497L188.405 71.2553L188.611 71.4195L190.077 71.085L191.36 69.6257L191.475 69.0906L191.39 68.9934L191.998 68.5069L191.913 67.3334L193.202 66.0322L192.795 63.8675L195.531 59.3558L195.391 59.2707L193.895 59.5686L193.78 59.4288L193.664 59.3801L193.792 59.2585L191.414 54.5096L191.785 55.1177L191.919 54.765L193.816 59.0214L195.592 58.3586L195.804 58.1032L196.413 57.9086L196.498 57.7141L196.741 57.6593L196.887 57.4283L197.027 57.3492L197.1 57.0087L197.464 56.5709V56.4372L197.276 56.1757L196.911 56.0298L196.729 55.4582L196.467 55.7987L195.786 56.1149H195.744L195.652 55.9568V55.5676L195.507 55.8109L194.935 54.5948V54.5522L195.342 54.4428L195.689 55.0508L196.461 55.4035L196.814 55.2819L196.984 55.6041L199.1 55.7379L199.246 56.0419L199.678 56.3642H199.921L199.617 56.4919L200.085 56.9114L200.389 56.5162L201.435 60.1645L201.848 59.7693L202.189 58.164L203.448 56.9966L203.515 56.7351L204.427 56.2973L205.035 57.5134L205.004 57.9147L205.095 58.0485H205.314L205.503 57.7931L205.618 57.8904L206.524 61.3502L207.169 61.8123L207.011 60.9185L206.074 59.7024L206.226 58.7903L206.415 58.7234L206.834 59.0153L206.895 59.2403H207.035V59.374H207.211L207.333 59.4956L207.272 59.7145L207.382 59.8118L207.698 59.4044L208.142 59.2038L208.312 58.8693L208.263 58.2613L207.534 57.0087L207.972 56.4858L208.361 56.4432L208.47 56.7655L208.531 56.656L209.279 56.1392L209.887 56.0662L210.641 55.3244V55.0812L210.799 54.9961L211.225 54.2056L210.921 54.0779L211.158 53.9442L210.823 53.6523H211.146L210.75 53.0138L210.556 52.8618L210.769 52.4909L211.279 52.2173L211.152 52.0592L210.933 51.968L210.635 52.193L210.495 51.9923L210.264 51.9133V51.5971L211.188 51.1107L211 51.6518H211.158L211.571 51.3782H211.681L211.936 51.518L211.802 51.7917L211.845 51.9437L211.954 52.0045L212.131 51.9619H212.179L212.252 52.0957L212.185 52.9044L212.836 52.6308L212.927 52.5213L212.635 51.743L212.435 51.5363L212.501 51.3113L212.891 51.0316L212.97 50.7276L213.28 50.4053L213.462 50.2837L213.724 50.4418L215.177 48.7332L215.59 47.0367L215.195 46.6476H215.001L214.861 46.8361H214.733V46.5868L214.593 46.7692L214.563 46.5138H214.307V46.3253L216.132 44.714L217.67 44.5924L217.998 44.714L217.883 44.8782L218.74 44.7079L218.649 44.6289V44.416L219.257 43.735L219.634 43.6864L219.78 43.7533L219.944 43.6742L219.835 43.9114L219.962 44.0086L219.901 44.112L220.552 43.7654L220.601 43.5161L220.99 43.352V43.4128L219.379 45.1761L219.166 45.2308L218.88 46.1247L219.135 47.663L219.488 47.2799L219.537 47.0185L219.689 46.903L219.859 46.8604V46.6476L220.072 46.4104L220.345 46.3496L220.303 46.1003L220.467 45.7902H220.643L220.534 45.626L220.576 45.2065H220.43L220.4 44.945L220.765 44.3917H220.966L221.051 44.4343L221.276 44.185L221.324 44.4039L221.537 44.264L222.103 44.2032L222.273 44.3552L222.364 44.2032L223.854 43.2851H224.304V43.0844L223.811 42.4399L223.623 42.3973L223.848 42.3183L223.969 42.4399H224.225L224.529 42.2575L224.596 42.1237L224.553 41.9778V41.8501L224.638 41.7649H224.76V41.8987L224.839 42.069L225.447 42.1906L225.605 42.4034L225.952 42.5493H226.219L226.116 42.4095H226.225V42.0325L226.292 42.0021L226.256 41.996Z" fill="#808080"/>
<path d="M200.256 39.3085L200.012 39.2051L199.915 39.4059L200.256 39.3085Z" fill="#808080"/>
<path d="M201.999 39.3692L201.83 39.4536L201.999 39.3692Z" fill="#808080"/>
<path d="M167.536 56.4493L167.457 56.5223L167.615 56.784L167.536 56.4493Z" fill="#808080"/>
<path d="M171.027 60.2238L171.189 60.1937L171.177 60.055L171.021 60.1093L171.027 60.2238Z" fill="#808080"/>
<path d="M208.044 62.8095L207.929 62.8702L208.044 62.8095Z" fill="#808080"/>
<path d="M211.45 64.1898L211.523 64.1107L210.629 64.2385L210.994 64.3054L211.45 64.1898Z" fill="#808080"/>
<path d="M210.118 64.1229L209.911 64.1533L209.808 64.2933L210.13 64.3419L210.447 64.2324L210.118 64.1229Z" fill="#808080"/>
<path d="M211.79 64.4576L211.845 64.3906L212.338 64.1229L212.003 64.1351L211.614 64.3541L211.51 64.6401L211.79 64.4576Z" fill="#808080"/>
<path d="M212.501 62.8278L213.098 62.98L212.94 62.7244L212.501 62.8278Z" fill="#808080"/>
<path d="M210.86 64.5972L210.446 64.4816L210.647 64.5851L210.86 64.5972Z" fill="#808080"/>
<path d="M212.046 62.846L212.318 62.9248L212.046 62.846Z" fill="#808080"/>
<path d="M210.416 62.694L210.647 63.4966L210.756 63.2473L210.732 62.7913L210.878 62.8886L210.994 63.1439L211.194 63.1683L211.091 62.4751L211.431 62.1954L210.969 62.3535L210.696 62.1163L211.827 61.6481L211.589 61.7576L211.024 61.6968L210.75 61.8305L210.416 62.694Z" fill="#808080"/>
<path d="M212.538 61.6543L212.386 61.563L212.502 62.1107L212.672 61.7212L212.538 61.6543Z" fill="#808080"/>
<path d="M205.564 61.7637L205.703 61.9578L205.564 61.7637Z" fill="#808080"/>
<path d="M205.886 62.396L205.989 62.5295L205.886 62.396Z" fill="#808080"/>
<path d="M209.407 64.2141L209.674 64.2202L209.449 64.0681L209.06 64.0073L209.285 63.831L207.558 63.6486L207.449 63.7945L207.619 63.831L207.735 63.9709L209.407 64.2141Z" fill="#808080"/>
<path d="M208.172 61.9157L208.695 62.8399L208.872 62.9311L209.169 62.8885L209.455 63.0345L209.778 62.9676L210.082 62.019L210.422 61.8001L210.136 60.9975L210.513 60.7178L210.361 60.578L210.161 60.5172L209.96 60.3287L209.613 60.8273L209.498 60.8881L209.34 60.8637L209.145 61.2164L208.817 61.3319L208.671 61.6542L208.318 61.563L208.172 61.9157Z" fill="#808080"/>
<path d="M207.528 63.1865L207.564 62.925L207.655 62.8642L207.662 62.7122L207.479 62.5116L207.449 62.6271L207.54 62.7426L207.4 62.7L205.181 60.7239L207.212 63.5574H207.449L207.528 63.1865Z" fill="#808080"/>
<path d="M187.663 52.3693L187.395 52.3754L187.213 52.4849L187.687 52.7831L187.833 52.3815L187.663 52.3693Z" fill="#808080"/>
<path d="M186.252 51.6153L186.422 52.1691L186.575 52.0596L186.611 51.6579L186.41 51.5728L186.252 51.6153Z" fill="#808080"/>
<path d="M162.216 48.6967C162.226 49.3709 161.976 50.023 161.517 50.517C161.058 51.011 160.426 51.3087 159.753 51.3478C159.426 51.348 159.102 51.2822 158.801 51.1543C158.5 51.0264 158.228 50.8391 158 50.6035C157.773 50.3679 157.596 50.0889 157.479 49.7832C157.363 49.4775 157.309 49.1514 157.321 48.8244C157.309 48.1547 157.554 47.506 158.007 47.0124C158.46 46.5189 159.085 46.2185 159.753 46.1733C160.083 46.1689 160.41 46.2317 160.715 46.3578C161.02 46.4838 161.296 46.6705 161.526 46.9066C161.756 47.1426 161.936 47.423 162.055 47.7307C162.174 48.0385 162.228 48.3671 162.216 48.6967Z" fill="#00F5FF"/>
<path d="M166.041 59.3193C166.041 59.6296 165.923 59.9283 165.711 60.1544C165.498 60.3805 165.207 60.5168 164.897 60.5354C164.745 60.5355 164.594 60.5049 164.454 60.4455C164.313 60.3861 164.186 60.2991 164.08 60.1896C163.974 60.0801 163.891 59.9504 163.836 59.8082C163.781 59.666 163.755 59.5142 163.76 59.3619C163.76 59.0526 163.877 58.7547 164.088 58.5287C164.299 58.3028 164.589 58.1659 164.897 58.1458C165.05 58.1457 165.201 58.1763 165.342 58.2356C165.483 58.295 165.61 58.3819 165.717 58.4913C165.823 58.6007 165.907 58.7303 165.962 58.8725C166.018 59.0147 166.045 59.1667 166.041 59.3193Z" fill="#00F5FF"/>
<path d="M193.822 58.5288C193.836 59.6678 193.404 60.7671 192.62 61.5927C191.835 62.4183 190.759 62.9051 189.621 62.9494C189.065 62.9519 188.514 62.843 188.001 62.6291C187.487 62.4151 187.022 62.1004 186.633 61.7036C186.244 61.3067 185.938 60.8359 185.733 60.3188C185.529 59.8017 185.43 59.2489 185.443 58.693C185.43 57.5581 185.858 56.4623 186.637 55.6373C187.417 54.8124 188.487 54.3229 189.621 54.2725C190.178 54.2675 190.732 54.3746 191.247 54.5874C191.763 54.8002 192.23 55.1144 192.622 55.5114C193.014 55.9084 193.322 56.38 193.529 56.8984C193.735 57.4167 193.835 57.9712 193.822 58.5288Z" fill="#00F5FF"/>
<path d="M202.061 42.3243C202.065 42.8172 201.876 43.2921 201.536 43.6484C201.195 44.0048 200.73 44.2147 200.237 44.2336C199.995 44.2421 199.754 44.2007 199.529 44.1121C199.304 44.0234 199.1 43.8893 198.928 43.7182C198.757 43.5471 198.623 43.3426 198.535 43.1175C198.446 42.8923 198.405 42.6513 198.413 42.4095C198.411 41.9171 198.6 41.4431 198.94 41.087C199.28 40.731 199.745 40.5206 200.237 40.5002C200.479 40.4926 200.719 40.5346 200.944 40.6236C201.169 40.7126 201.373 40.8467 201.544 41.0176C201.715 41.1885 201.849 41.3926 201.938 41.6174C202.027 41.8421 202.069 42.0827 202.061 42.3243Z" fill="#00F5FF"/>
<path d="M206.464 53.0929C206.469 53.6541 206.255 54.1952 205.868 54.6016C205.481 55.0079 204.951 55.2476 204.39 55.2697C204.117 55.273 203.845 55.2214 203.592 55.1179C203.339 55.0144 203.109 54.8611 202.917 54.6672C202.724 54.4733 202.572 54.2426 202.47 53.9889C202.368 53.7352 202.318 53.4636 202.323 53.1902C202.319 52.631 202.533 52.0923 202.918 51.6874C203.304 51.2825 203.832 51.043 204.39 51.0194C204.664 51.0145 204.936 51.0647 205.189 51.1672C205.443 51.2696 205.674 51.4222 205.867 51.6157C206.061 51.8092 206.213 52.0398 206.316 52.2936C206.418 52.5474 206.469 52.8192 206.464 53.0929Z" fill="#00F5FF"/>
<path d="M215.074 40.7617C215.076 41.2434 214.891 41.7073 214.559 42.0563C214.227 42.4053 213.773 42.6125 213.292 42.6345C213.059 42.6394 212.826 42.5972 212.61 42.5105C212.393 42.4238 212.196 42.2943 212.03 42.1297C211.864 41.9651 211.733 41.7689 211.645 41.5527C211.557 41.3364 211.513 41.1046 211.517 40.8711C211.521 40.3952 211.707 39.939 212.037 39.5963C212.368 39.2536 212.817 39.0505 213.292 39.0287C213.524 39.0214 213.755 39.0608 213.971 39.1447C214.187 39.2285 214.385 39.3551 214.551 39.5169C214.717 39.6786 214.849 39.8722 214.939 40.0861C215.029 40.2999 215.075 40.5297 215.074 40.7617Z" fill="#00F5FF"/>
<path d="M207.68 291.959C216.596 291.959 223.823 289.715 223.823 286.948C223.823 284.181 216.596 281.938 207.68 281.938C198.764 281.938 191.536 284.181 191.536 286.948C191.536 289.715 198.764 291.959 207.68 291.959Z" fill="#00F5FF"/>
<path opacity="0.5" d="M207.68 291.959C216.596 291.959 223.823 289.715 223.823 286.948C223.823 284.181 216.596 281.938 207.68 281.938C198.764 281.938 191.536 284.181 191.536 286.948C191.536 289.715 198.764 291.959 207.68 291.959Z" fill="white"/>
<path d="M194.68 260.401C192.719 263.696 191.707 267.469 191.755 271.303C191.755 280.588 197.227 288.122 203.958 288.122C210.69 288.122 216.162 280.588 216.162 271.303C216.212 267.466 215.202 263.689 213.243 260.389L194.68 260.401Z" fill="white" stroke="#1F2A3F" stroke-width="0.873633" stroke-linecap="round" stroke-linejoin="round"/>
<path d="M213.408 260.827C213.493 262.328 209.352 263.563 204.159 263.581C198.966 263.599 194.692 262.395 194.607 260.893C194.522 259.392 198.656 258.163 203.849 258.145C209.042 258.127 213.322 259.325 213.408 260.827Z" fill="white" stroke="#1F2A3F" stroke-width="0.873633" stroke-linecap="round" stroke-linejoin="round"/>
<path d="M212.66 261.933C211.103 261.015 207.832 260.383 204.068 260.401C200.304 260.419 196.978 261.088 195.555 262.049C197.112 262.967 200.389 263.593 204.147 263.581C207.905 263.569 211.267 262.888 212.66 261.933Z" fill="#1F2A3F" stroke="#1F2A3F" stroke-width="0.873633" stroke-linecap="round" stroke-linejoin="round"/>
<path d="M181.315 180.704C181.315 180.704 182.446 182.85 181.436 184.863C180.427 186.876 179.174 188.894 179.928 189.904C180.682 190.913 182.969 192.172 182.701 194.312C182.434 196.452 179.424 200.739 181.315 203.135C183.206 205.531 186.356 205.403 186.477 208.048C186.599 210.693 183.437 212.833 184.337 215.229C185.237 217.625 190.417 218.129 190.417 219.765C190.417 221.401 188.399 223.164 190.04 224.933C191.682 226.703 199.599 231.294 200.736 229.409C201.873 227.524 204.147 222.282 202.651 214.864C202.396 213.618 200.62 213.338 200.371 211.575C200.122 209.811 200.876 206.662 199.611 204.886C198.346 203.111 194.321 202.49 194.072 201.104C193.822 199.718 195.58 196.319 193.816 194.172C192.053 192.026 187.894 191.023 187.894 189.642C187.894 188.262 189.159 186.487 187.389 184.602C185.62 182.717 181.315 180.704 181.315 180.704Z" fill="#00F5FF"/>
<path d="M187.347 195.559C189.973 203.463 194.564 214.207 196.431 219.394C198.699 225.694 200.687 230.254 201.678 236.553C202.147 239.484 202.517 250.167 202.779 260.766" stroke="#1F2A3F" stroke-width="0.873633" stroke-linecap="round" stroke-linejoin="round"/>
<path d="M181.941 181.47C181.941 181.47 184.088 183.233 185.972 190.919C186.1 191.412 186.24 191.935 186.392 192.482" stroke="#1F2A3F" stroke-width="0.873633" stroke-linecap="round" stroke-linejoin="round"/>
<path d="M220.698 195.066C220.442 195.58 220.3 196.144 220.282 196.718C220.265 197.292 220.371 197.863 220.595 198.392C221.403 200.01 222.419 201.621 221.811 202.43C221.203 203.238 219.379 204.254 219.598 205.956C219.816 207.659 222.218 211.1 220.704 213.016C219.19 214.931 216.673 214.84 216.569 216.95C216.466 219.06 219.002 220.78 218.284 222.696C217.567 224.611 213.42 225.013 213.42 226.344C213.42 227.676 215.031 229.068 213.724 230.479C212.416 231.89 206.068 235.574 205.162 234.06C204.256 232.546 202.432 228.363 203.63 222.422C203.831 221.425 205.254 221.206 205.454 219.789C205.655 218.373 205.053 215.855 206.062 214.445C207.072 213.034 210.319 212.529 210.495 211.404C210.671 210.279 209.279 207.568 210.696 205.859C212.112 204.15 215.438 203.336 215.438 202.211C215.438 201.086 214.429 199.687 215.84 198.173C217.25 196.659 220.698 195.066 220.698 195.066Z" fill="#00F5FF"/>
<path d="M215.87 206.947C213.772 213.289 210.094 221.875 208.574 226.022C206.749 231.063 205.181 234.717 204.372 239.758C203.971 242.275 203.661 251.979 203.448 261.039" stroke="#1F2A3F" stroke-width="0.873633" stroke-linecap="round" stroke-linejoin="round"/>
<path d="M220.193 195.674C220.193 195.674 218.479 197.085 216.971 203.232C216.867 203.634 216.758 204.047 216.63 204.491" stroke="#1F2A3F" stroke-width="0.873633" stroke-linecap="round" stroke-linejoin="round"/>
<path d="M186.027 223.62C186.24 224.05 186.358 224.521 186.372 225.001C186.385 225.481 186.295 225.957 186.106 226.399C185.437 227.749 184.592 229.093 185.097 229.767C185.602 230.442 187.122 231.281 186.951 232.716C186.781 234.151 184.762 237.015 186.027 238.615C187.292 240.214 189.396 240.129 189.481 241.898C189.566 243.667 187.456 245.102 188.046 246.702C188.636 248.301 192.089 248.641 192.089 249.742C192.089 250.842 190.74 252.016 191.84 253.196C192.941 254.375 198.231 257.452 198.991 256.187C199.751 254.922 201.271 251.426 200.268 246.458C200.104 245.625 198.912 245.437 198.748 244.257C198.583 243.078 199.082 240.974 198.243 239.794C197.404 238.615 194.704 238.195 194.534 237.265C194.364 236.334 195.543 234.066 194.364 232.631C193.184 231.196 190.405 230.528 190.405 229.591C190.405 228.655 191.25 227.487 190.071 226.223C188.891 224.958 186.027 223.62 186.027 223.62Z" fill="#00F5FF"/>
<path d="M190.059 233.543C191.816 238.84 194.886 246.014 196.139 249.48C197.659 253.694 198.973 256.74 199.647 260.954" stroke="#1F2A3F" stroke-width="0.873633" stroke-linecap="round" stroke-linejoin="round"/>
<path d="M186.447 224.125C186.447 224.125 187.876 225.304 189.14 230.442C189.225 230.771 189.317 231.123 189.42 231.488" stroke="#1F2A3F" stroke-width="0.873633" stroke-linecap="round" stroke-linejoin="round"/>
<path d="M229.418 221.522C229.111 221.891 228.888 222.321 228.764 222.784C228.64 223.247 228.618 223.732 228.7 224.204C229.047 225.675 229.557 227.177 228.913 227.718C228.268 228.259 226.596 228.734 226.432 230.151C226.268 231.567 227.581 234.839 225.988 236.103C224.395 237.368 222.34 236.809 221.872 238.535C221.403 240.262 223.088 242.117 222.17 243.54C221.251 244.963 217.786 244.5 217.536 245.565C217.287 246.629 218.327 248.088 216.995 248.988C215.664 249.888 209.796 251.669 209.346 250.265C208.896 248.86 208.215 245.109 210.325 240.506C210.684 239.733 211.875 239.825 212.313 238.712C212.751 237.599 212.739 235.441 213.827 234.455C214.916 233.47 217.64 233.708 218.011 232.844C218.381 231.981 217.761 229.5 219.227 228.375C220.692 227.25 223.562 227.232 223.775 226.326C223.988 225.42 223.434 224.082 224.875 223.121C226.317 222.161 229.418 221.522 229.418 221.522Z" fill="#00F5FF"/>
<path d="M223.222 230.26C220.303 235.015 215.67 241.296 213.657 244.385C211.225 248.137 208.294 250.538 207.619 254.722C207.412 256.011 207.236 258.37 207.084 261.033" stroke="#1F2A3F" stroke-width="0.873633" stroke-linecap="round" stroke-linejoin="round"/>
<path d="M228.901 221.918C228.901 221.918 227.235 222.738 224.827 227.451C224.675 227.755 224.504 228.059 224.316 228.405" stroke="#1F2A3F" stroke-width="0.873633" stroke-linecap="round" stroke-linejoin="round"/>
<path d="M101.642 299.273C115.508 299.273 126.748 295.933 126.748 291.813C126.748 287.692 115.508 284.352 101.642 284.352C87.7763 284.352 76.5358 287.692 76.5358 291.813C76.5358 295.933 87.7763 299.273 101.642 299.273Z" fill="#00F5FF"/>
<path opacity="0.5" d="M101.642 299.273C115.508 299.273 126.748 295.933 126.748 291.813C126.748 287.692 115.508 284.352 101.642 284.352C87.7763 284.352 76.5358 287.692 76.5358 291.813C76.5358 295.933 87.7763 299.273 101.642 299.273Z" fill="white"/>
<path d="M75.0096 202.363C75.0096 202.363 76.0494 211.556 76.4933 216.305C76.9372 221.054 78.1228 234.547 77.9769 236.182C77.831 237.818 76.3473 254.77 76.3473 261.295C76.3473 267.819 77.2351 277.019 77.2351 277.019C77.2351 277.019 75.7515 279.536 76.0494 280.874C76.3487 281.992 76.5522 283.133 76.6575 284.285C76.69 284.888 76.7899 285.486 76.9554 286.067C76.9554 286.067 79.1809 287.55 80.5186 287.696C81.8563 287.842 84.5195 286.954 84.5195 286.511C84.5195 286.067 85.7052 281.616 85.7052 279.98C85.7052 278.344 85.7052 278.946 86.1552 276.721C86.6051 274.495 91.3418 243.746 91.9377 240.925C92.5336 238.104 93.4214 216.901 93.4214 216.901L94.4611 218.829C94.4611 218.829 96.9784 241.521 96.8325 244.044C96.6866 246.568 95.7927 256.205 96.2245 260.656C96.6562 265.107 97.5622 276.082 97.5622 277.268C97.5622 278.454 97.2642 281.123 97.2642 282.163C97.2642 283.203 96.3765 284.832 96.8203 285.574C97.1844 286.287 97.4815 287.032 97.7081 287.8C97.7081 287.8 103.053 288.687 104.53 288.687C106.008 288.687 107.206 287.356 107.206 287.356V284.832C107.206 283.495 107.498 282.309 107.498 280.977C107.498 279.646 107.65 276.824 107.65 274.745C107.743 272.757 107.946 270.776 108.258 268.81C108.41 267.479 110.483 251.906 110.781 246.118C111.079 240.329 112.411 227.268 112.411 225.207C112.411 223.146 112.265 203.7 112.265 203.7L111.967 200.137C111.967 200.137 96.3947 202.217 88.9765 201.177C81.5583 200.137 75.4778 199.839 75.4778 199.839L75.0096 202.363Z" fill="#1F2A3F" stroke="#1F2A3F" stroke-width="0.873633" stroke-linecap="round" stroke-linejoin="round"/>
<path d="M85.0851 284.151C84.7339 284.458 84.3183 284.683 83.869 284.808C83.0542 285.051 82.5617 285.215 81.911 284.315C81.2604 283.416 79.947 282.358 78.8708 282.844C77.7946 283.33 76.5845 284.06 76.3413 284.668C76.0981 285.276 76.2562 291.205 76.2562 292.354C76.2562 293.503 78.4634 293.983 80.6706 294.069C82.0625 294.086 83.4279 293.688 84.5925 292.925C84.5925 292.925 86.4714 293.084 87.1281 292.269C87.7848 291.454 87.4564 289.569 87.043 288.918C86.6295 288.268 86.3133 287.702 85.7357 286.547C85.3774 285.794 85.157 284.982 85.0851 284.151Z" fill="white" stroke="#1F2A3F" stroke-width="0.873633" stroke-linecap="round" stroke-linejoin="round"/>
<path d="M87.128 292.244C87.3467 291.931 87.4712 291.562 87.4867 291.18C86.4105 291.673 85.1396 291.363 84.6775 291.43C84.106 291.509 82.7987 292.409 79.8557 292.244C78.6108 292.201 77.3852 291.923 76.2439 291.424C76.2439 291.825 76.2439 292.141 76.2439 292.33C76.2439 293.473 78.4511 293.959 80.6583 294.044C82.0502 294.061 83.4155 293.663 84.5802 292.901C84.5802 292.901 86.4713 293.059 87.128 292.244Z" fill="#00F5FF" stroke="#1F2A3F" stroke-width="0.873633" stroke-linecap="round" stroke-linejoin="round"/>
<path d="M84.2642 292.901L84.5925 288.973" stroke="#1F2A3F" stroke-width="0.873633" stroke-linecap="round" stroke-linejoin="round"/>
<path d="M82.5738 284.924C82.2972 284.787 82.0637 284.576 81.8989 284.315C81.2422 283.416 79.9349 282.358 78.8586 282.844C77.9995 283.205 77.2111 283.716 76.5298 284.352C76.8825 285.361 77.7459 287.143 79.4302 287.258C80.8287 287.356 81.8989 286.146 82.5738 284.924Z" fill="#00F5FF" stroke="#1F2A3F" stroke-width="0.873633" stroke-linecap="round" stroke-linejoin="round"/>
<path d="M107.291 286.018C107.291 286.018 106.075 286.346 105.412 285.939C104.749 285.532 103.776 283.081 101.569 283.324C99.3619 283.568 98.3829 285.611 97.9208 285.86C97.4587 286.109 97.3492 286.182 97.1851 286.431C97.0209 286.681 96.9418 293.296 97.0209 293.953C97.0999 294.61 101.764 295.254 104.628 294.932C107.491 294.61 108.464 293.375 108.714 293.211C109.117 293.054 109.468 292.787 109.728 292.441C109.987 292.095 110.146 291.684 110.185 291.253C110.349 289.782 109.857 288.146 109.036 287.575C108.516 287.208 108.026 286.802 107.571 286.359L107.291 286.018Z" fill="white" stroke="#1F2A3F" stroke-width="0.873633" stroke-linecap="round" stroke-linejoin="round"/>
<path d="M104.129 293.047C101.701 293.124 99.2786 292.753 96.9845 291.953C96.9845 292.938 96.9845 293.74 96.9845 293.953C97.0696 294.604 101.727 295.254 104.591 294.932C107.455 294.61 108.428 293.375 108.677 293.211C109.08 293.054 109.431 292.787 109.691 292.441C109.951 292.096 110.11 291.684 110.149 291.253C110.182 290.885 110.182 290.515 110.149 290.147C110.027 290.396 109.887 290.663 109.729 290.925C109.279 291.74 108.051 292.968 104.129 293.047Z" fill="#00F5FF" stroke="#1F2A3F" stroke-width="0.873633" stroke-linecap="round" stroke-linejoin="round"/>
<path d="M107.34 290.256L106.865 294.306" stroke="#1F2A3F" stroke-width="0.873633" stroke-linecap="round" stroke-linejoin="round"/>
<path d="M101.818 288.146C103.284 288.316 104.859 287.155 105.734 286.073C105.621 286.045 105.512 286 105.412 285.939C104.755 285.532 103.776 283.081 101.569 283.324C99.3619 283.568 98.3829 285.611 97.9208 285.86C97.9147 285.86 99.7145 287.903 101.818 288.146Z" fill="#00F5FF" stroke="#1F2A3F" stroke-width="0.873633" stroke-linecap="round" stroke-linejoin="round"/>
<path d="M93.4031 216.901L89.84 215.12" stroke="#636363" stroke-width="0.873633" stroke-linecap="round" stroke-linejoin="round"/>
<path d="M100.931 133.209C100.931 133.209 101.825 131.726 102.147 133.653C102.469 135.581 101.697 137.654 100.663 138.396C99.6295 139.138 99.1796 138.396 99.1796 137.654C99.1796 136.912 100.931 133.209 100.931 133.209Z" fill="white" stroke="#1F2A3F" stroke-width="0.873633" stroke-linecap="round" stroke-linejoin="round"/>
<path d="M83.577 133.951C83.3775 133.876 83.1618 133.855 82.9515 133.889C82.7411 133.923 82.5435 134.013 82.3785 134.147C82.2134 134.282 82.0867 134.458 82.0111 134.657C81.9354 134.857 81.9135 135.072 81.9474 135.283C81.9474 137.064 84.3188 139.588 85.3586 138.992C86.3983 138.396 83.577 133.951 83.577 133.951Z" fill="white" stroke="#1F2A3F" stroke-width="0.873633" stroke-linecap="round" stroke-linejoin="round"/>
<path d="M92.1808 116.591C92.1808 116.591 89.8642 120.446 87.438 121.486C84.3188 122.824 81.8014 126.831 81.9656 130.09C82.1298 133.349 86.8604 144.033 87.6022 144.331C88.344 144.629 97.6897 143.887 97.9877 143.443C98.2856 142.999 99.6173 138.548 100.803 134.243C101.989 129.938 101.989 127.719 101.989 127.719C102.419 126.327 102.625 124.876 102.597 123.42C102.506 121.665 101.827 119.992 100.669 118.671L98.8876 120.896L99.4956 115.856C98.2615 115.708 97.0129 115.966 95.9386 116.591C94.8831 117.292 93.9348 118.142 93.1233 119.115L92.1808 116.591Z" fill="#1F2A3F" stroke="#1F2A3F" stroke-width="0.873633" stroke-linecap="round" stroke-linejoin="round"/>
<path d="M144.242 120.605C144.023 119.942 143.36 119.942 142.807 118.507C142.254 117.072 140.709 117.406 140.265 117.181C139.821 116.956 139.828 116.743 140.046 116.081C140.265 115.418 140.819 113.211 139.828 113.211C138.836 113.211 138.058 115.527 137.839 116.081C137.233 117.076 136.57 118.034 135.851 118.951C135.38 119.068 134.9 119.142 134.416 119.17C133.869 119.17 133.2 120.276 133.096 120.823C133.023 121.17 133.559 122.295 133.972 123.085C134.157 123.742 134.381 124.388 134.641 125.019C134.641 125.019 135.188 125.791 136.848 125.572C138.508 125.353 141.591 127.561 142.035 127.226C142.479 126.892 143.47 124.909 143.908 123.809C144.326 122.795 144.442 121.683 144.242 120.605Z" fill="white" stroke="#1F2A3F" stroke-width="0.873633" stroke-linecap="round" stroke-linejoin="round"/>
<path d="M72.8509 212.852C72.8509 212.852 74.8575 215.892 74.967 217.071C75.0764 218.251 75.0703 220.452 75.1737 221.188C75.2771 221.924 74.8575 222.459 74.3346 222.459C74.1623 222.442 73.9961 222.386 73.8494 222.294C73.7027 222.202 73.5794 222.078 73.4894 221.93C73.5505 222.535 73.6561 223.134 73.8056 223.723C74.0123 224.465 75.1737 225.098 75.0703 225.833C74.967 226.569 73.8056 226.891 72.2186 226.891C71.2606 226.885 70.3265 226.592 69.5365 226.05C68.7465 225.508 68.1368 224.743 67.7859 223.851C66.8373 221.638 65.8888 215.302 65.8888 214.122C65.8888 212.943 71.799 212.006 72.8509 212.852Z" fill="white" stroke="#1F2A3F" stroke-width="0.873633" stroke-linecap="round" stroke-linejoin="round"/>
<path d="M70.6378 216.755C70.6378 216.755 71.0573 217.704 70.2121 219.187C69.6406 220.064 69.2136 221.027 68.9474 222.039C69.1823 222.776 69.5005 223.484 69.8959 224.149C70.3216 224.994 71.7201 224.891 71.7991 225.633C71.8743 226.031 71.7984 226.443 71.5863 226.788" stroke="#1F2A3F" stroke-width="0.873633" stroke-linecap="round" stroke-linejoin="round"/>
<path d="M71.9694 221.273C72.0648 222.103 72.2545 222.919 72.5348 223.705C72.9605 224.763 75.1738 225.396 74.359 226.557" stroke="#1F2A3F" stroke-width="0.873633" stroke-linecap="round" stroke-linejoin="round"/>
<path d="M70.6377 221.717C70.7389 222.403 70.9164 223.076 71.1667 223.723C71.4829 224.331 73.5989 224.988 73.1733 226.679" stroke="#1F2A3F" stroke-width="0.873633" stroke-linecap="round" stroke-linejoin="round"/>
<path d="M73.4895 221.93C73.4895 221.93 73.2767 220.239 73.1733 219.607C73.0976 219.002 73.061 218.393 73.0639 217.783" stroke="#1F2A3F" stroke-width="0.873633" stroke-linecap="round" stroke-linejoin="round"/>
<path d="M108.118 148.07C105.342 145.901 102.088 144.427 98.6263 143.771C92.6917 142.585 84.8297 144.513 81.7164 146.586C80.7873 147.237 80.004 148.075 79.4167 149.045C78.8294 150.016 78.4508 151.098 78.3053 152.223L108.118 148.07Z" fill="white" stroke="#1F2A3F" stroke-width="0.873633" stroke-linecap="round" stroke-linejoin="round"/>
<path d="M132.592 129.975C132.433 129.393 132.433 128.78 132.592 128.199C132.89 127.591 133.036 125.822 133.48 125.378C133.923 124.934 137.189 123.152 139.56 124.192C141.931 125.232 143.123 129.664 143.567 130.716C144.011 131.768 142.679 134.127 142.083 134.425C141.488 134.723 140.898 132.644 140.302 132.054C139.706 131.464 134.653 129.087 132.592 129.975Z" fill="white" stroke="#1F2A3F" stroke-width="0.873633" stroke-linecap="round" stroke-linejoin="round"/>
<path d="M93.4335 147.778C92.8255 147.924 81.5644 149.408 76.5237 150.891C71.483 152.375 67.33 154.303 67.178 156.23C67.026 158.158 62.9217 194.087 62.7636 196.167C62.6055 198.246 64.1013 210.255 64.8431 210.699C65.5849 211.143 68.9961 211.441 70.1818 210.997C70.9191 210.709 71.5791 210.253 72.1093 209.665L72.5531 199.724C72.5531 199.724 72.8511 203.135 73.4409 203.287C80.8401 205.229 88.5186 205.881 96.1393 205.214C108.908 204.175 114.235 202.247 115.269 201.505C116.302 200.764 116.162 198.538 116.162 198.538C116.162 198.538 116.308 196.909 116.308 195.273C116.308 193.637 111.547 160.827 111.547 160.827C111.547 160.827 131.126 155.488 132.61 153.707C134.094 151.925 141.214 132.498 141.214 131.014C141.214 129.531 137.949 127.305 135.577 127.159C133.206 127.013 127.417 138.712 126.086 139.618C124.754 140.524 111.991 145.553 107.236 146.44C102.481 147.328 93.4335 147.778 93.4335 147.778Z" fill="#00F5FF" stroke="#1F2A3F" stroke-width="0.873633" stroke-linecap="round" stroke-linejoin="round"/>
<path d="M88.7333 157.829C88.7333 157.829 90.7398 165.734 96.6379 168.963" stroke="#1F2A3F" stroke-width="0.873633" stroke-linecap="round" stroke-linejoin="round"/>
<path d="M97.4161 172.465C97.862 172.696 98.3181 172.921 98.7842 173.14" stroke="#1F2A3F" stroke-width="0.873633" stroke-linecap="round" stroke-linejoin="round"/>
<path d="M88.7333 166.026C90.6923 168.015 92.8827 169.763 95.2576 171.231" stroke="#1F2A3F" stroke-width="0.873633" stroke-linecap="round" stroke-linejoin="round"/>
<path d="M112.295 166.841L111.547 160.827L104.251 163.527L107.078 164.688C105.698 165.904 103.892 167.619 105.011 167.418C106.485 166.98 107.902 166.368 109.231 165.594L112.295 166.841Z" fill="#1F2A3F" stroke="#1F2A3F" stroke-width="0.873633" stroke-linecap="round" stroke-linejoin="round"/>
<path d="M71.2153 195.425C71.2153 192.756 72.5166 165.576 72.5166 165.576L72.0727 163.648L68.7832 158.407L70.5343 168.543C69.1419 168.111 66.3388 167.37 67.3968 168.786C68.3783 169.977 69.4921 171.052 70.7167 171.991L69.7195 192.093C69.6361 193.771 70.0462 195.437 70.8992 196.884L71.9207 198.623C71.4561 197.621 71.2154 196.53 71.2153 195.425Z" fill="#1F2A3F" stroke="#1F2A3F" stroke-width="0.873633" stroke-linecap="round" stroke-linejoin="round"/>
<path d="M71.9207 198.648C72.0833 199.028 72.2874 199.389 72.5292 199.725L71.9207 198.648Z" fill="#1F2A3F" stroke="#1F2A3F" stroke-width="0.873633" stroke-linecap="round" stroke-linejoin="round"/>
<path d="M115.566 197.796C92.874 208.03 72.553 199.724 72.553 199.724C72.553 199.724 72.8509 203.135 73.4407 203.287C80.8399 205.229 88.5185 205.881 96.1392 205.214C108.908 204.175 114.235 202.247 115.268 201.505C116.302 200.764 116.162 198.538 116.162 198.538C116.162 198.538 116.162 198.198 116.223 197.669L115.566 197.796Z" fill="white" stroke="#1F2A3F" stroke-width="0.873633" stroke-linecap="round" stroke-linejoin="round"/>
<path d="M63.2074 209.215C63.2074 209.215 66.6185 210.699 69.4399 209.823C72.2612 208.948 72.997 208.042 73.4409 208.194C73.8847 208.346 73.8908 211.897 73.4409 212.937C72.9909 213.976 71.9572 214.718 68.844 215.016C65.7308 215.314 64.1012 213.8 63.8033 212.937C63.526 211.71 63.3269 210.467 63.2074 209.215Z" fill="white" stroke="#1F2A3F" stroke-width="0.873633" stroke-linecap="round" stroke-linejoin="round"/>
<path d="M50.9369 290.645C63.1237 290.645 73.003 287.58 73.003 283.799C73.003 280.017 63.1237 276.952 50.9369 276.952C38.7502 276.952 28.8708 280.017 28.8708 283.799C28.8708 287.58 38.7502 290.645 50.9369 290.645Z" fill="#00F5FF"/>
<path opacity="0.5" d="M50.9369 290.645C63.1237 290.645 73.003 287.58 73.003 283.799C73.003 280.017 63.1237 276.952 50.9369 276.952C38.7502 276.952 28.8708 280.017 28.8708 283.799C28.8708 287.58 38.7502 290.645 50.9369 290.645Z" fill="white"/>
<path d="M54.421 128.375C54.421 128.375 56.2452 130.54 56.1539 131.416C56.0823 132.399 56.3159 133.38 56.8228 134.225C57.2545 134.766 58.4463 135.198 58.4463 136.171C58.4058 136.828 58.1803 137.46 57.7957 137.995C57.7957 137.995 58.2335 142.33 57.7957 143.412C57.3579 144.495 55.631 144.495 54.6581 144.495C53.6853 144.495 53.1441 144.385 52.834 144.385C52.5239 144.385 50.5599 142.652 49.0459 138.864C47.5318 135.076 49.2648 129.439 50.5599 128.685C51.855 127.931 54.421 128.375 54.421 128.375Z" fill="white" stroke="#1F2A3F" stroke-width="0.873633" stroke-linecap="round" stroke-linejoin="round"/>
<path d="M53.6671 134.985L58.1059 132.492" stroke="#1F2A3F" stroke-width="0.873633" stroke-linecap="round" stroke-linejoin="round"/>
<path d="M56.1541 132.06C56.1541 132.06 58.5376 131.41 57.6742 134.875" stroke="#1F2A3F" stroke-width="0.873633" stroke-linecap="round" stroke-linejoin="round"/>
<path d="M49.6783 147.803L49.0034 155.859L40.4481 153.84V147.462C40.4481 147.462 46.486 146.118 49.6783 147.803Z" fill="white" stroke="#1F2A3F" stroke-width="0.873633" stroke-linecap="round" stroke-linejoin="round"/>
<path d="M48.7966 124.764C47.2094 125.172 45.5605 125.285 43.9323 125.098C41.4271 124.764 35.9182 125.432 34.4163 129.111C32.9144 132.79 34.7507 136.122 34.5805 137.125C34.4102 138.128 31.7409 139.63 31.7409 141.138C31.7409 142.646 32.9083 143.978 32.4097 145.145C31.9111 146.313 31.072 147.316 31.7409 148.484C32.4097 149.651 35.0851 147.651 35.3892 148.818C35.6932 149.985 38.2288 151.493 39.4023 151.493C40.5758 151.493 41.9074 148.988 42.5763 149.985C43.2452 150.983 44.5768 151.992 45.9145 151.81C47.2522 151.627 47.915 148.556 50.7789 149.803C53.6428 151.049 54.5549 148.441 54.4272 146.155C54.3299 143.978 51.7578 140.974 52.2564 139.302C52.755 137.63 53.7583 136.462 53.4239 134.626C53.0895 132.79 51.5997 132.121 52.4206 130.783C53.2415 129.446 54.4272 129.452 54.7616 127.779C55.096 126.107 54.4272 123.937 51.922 123.602C49.4168 123.268 48.7966 124.764 48.7966 124.764Z" fill="white" stroke="#1F2A3F" stroke-width="0.873633" stroke-linecap="round" stroke-linejoin="round"/>
<path d="M33.717 210.073C33.717 210.073 36.0702 223.498 34.8966 236.426C34.4224 241.612 31.8564 242.974 31.1997 249.851C30.543 256.728 32.8779 270.665 31.7044 278.053C31.5463 279.062 30.3606 281.579 31.7044 282.917C33.0482 284.255 37.7484 283.422 39.0922 283.422C40.436 283.422 43.6221 282.917 43.9566 282.078C44.291 281.239 41.9439 280.4 40.436 277.548C38.7196 274.284 37.7987 270.661 37.7484 266.974C37.7484 263.113 40.0955 252.204 41.9439 243.309C43.7924 234.413 44.7957 229.542 44.7957 224.508V208.699C44.7957 207.859 40.2657 205.847 36.739 206.516C33.2123 207.185 33.717 210.073 33.717 210.073Z" fill="white" stroke="#1F2A3F" stroke-width="0.873633" stroke-linecap="round" stroke-linejoin="round"/>
<path d="M40.4482 277.548C40.1867 277.061 39.9435 276.539 39.7124 275.997C39.2746 276.922 39.1044 278.028 38.2653 278.223C36.7512 278.557 31.7166 278.053 31.7166 278.053C31.5524 279.062 30.3728 281.579 31.7166 282.917C33.0604 284.255 37.7606 283.422 39.1044 283.422C40.4482 283.422 43.6344 282.917 43.9688 282.078C44.3032 281.239 41.9561 280.424 40.4482 277.548Z" fill="#1F2A3F" stroke="#1F2A3F" stroke-width="0.873633" stroke-linecap="round" stroke-linejoin="round"/>
<path d="M38.1313 270.792C37.892 269.534 37.7679 268.255 37.7604 266.974C37.7604 263.113 40.1075 252.204 41.956 243.309C43.8044 234.413 44.8077 229.542 44.8077 224.508V208.699C44.8077 207.859 40.2778 205.847 36.7511 206.516C33.2244 207.185 33.7108 210.042 33.7108 210.042C33.7108 210.042 36.064 223.468 34.8905 236.395C34.4162 241.582 31.8502 242.944 31.1935 249.821C30.7071 254.819 31.8016 263.532 32.0022 270.762C34.0125 271.27 36.1161 271.28 38.1313 270.792Z" fill="#00F5FF" stroke="#1F2A3F" stroke-width="0.873633" stroke-linecap="round" stroke-linejoin="round"/>
<path d="M31.5524 267.655C32.8237 267.915 34.112 268.084 35.4074 268.16C36.4974 268.086 37.5718 267.861 38.5996 267.491L39.1043 271.857C37.5735 272.309 35.9971 272.591 34.4041 272.696C33.5505 272.756 32.6936 272.64 31.8868 272.355C31.8868 272.355 31.5524 268.987 31.5524 267.655Z" fill="white" stroke="#1F2A3F" stroke-width="0.873633" stroke-linecap="round" stroke-linejoin="round"/>
<path d="M31.8928 197.65C31.8928 197.65 30.8835 204.339 31.8928 207.72C32.9022 211.1 35.5837 215.782 36.2586 217.12C36.9335 218.458 37.7666 222.659 37.7666 223.498C37.7666 224.338 38.4354 234.243 37.4321 239.277C36.4289 244.312 35.2492 247.182 35.2492 252.046C35.2492 256.911 37.5963 275.085 37.5963 278.271C37.5963 281.458 36.4228 285.489 37.2619 286.328C38.101 287.167 52.5361 285.459 53.8799 284.954C54.136 284.858 54.3666 284.705 54.5541 284.506C54.7417 284.307 54.881 284.067 54.9615 283.806C55.0419 283.544 55.0614 283.268 55.0183 282.998C54.9752 282.728 54.8707 282.471 54.7129 282.248C54.2082 281.579 48.1642 279.597 47.1609 278.758C46.1576 277.919 45.4827 275.231 45.3368 274.058C45.1908 272.884 45.6712 254.88 46.3461 250.855C47.0211 246.829 49.7026 238.937 51.2105 234.571C52.7185 230.205 55.406 214.767 55.406 209.228C55.4085 205.92 55.2421 202.614 54.9075 199.322C54.9075 199.322 39.2684 200.502 31.8928 197.65Z" fill="white" stroke="#1F2A3F" stroke-width="0.873633" stroke-linecap="round" stroke-linejoin="round"/>
<path d="M53.8738 284.942C54.1285 284.846 54.358 284.693 54.5449 284.496C54.7317 284.298 54.8708 284.06 54.9518 283.8C55.0327 283.54 55.0532 283.265 55.0119 282.996C54.9705 282.727 54.8682 282.472 54.7129 282.248C54.2082 281.579 48.1642 279.597 47.161 278.758C47.002 278.62 46.8629 278.46 46.7475 278.284L46.3219 280.941C45.2725 281.786 43.9721 282.259 42.6249 282.285C40.9467 282.285 38.478 281.19 37.4261 280.685C37.1403 283.227 36.5444 285.769 37.2559 286.31C40.667 288.937 52.53 285.446 53.8738 284.942Z" fill="#1F2A3F" stroke="#1F2A3F" stroke-width="0.873633" stroke-linecap="round" stroke-linejoin="round"/>
<path d="M45.2699 273.437C45.2212 270.227 45.6955 254.539 46.3096 250.861C46.9785 246.829 49.6661 238.943 51.174 234.577C52.682 230.211 55.3696 214.773 55.3696 209.234C55.372 205.926 55.2056 202.62 54.871 199.329C54.871 199.329 39.2684 200.502 31.8928 197.65C31.8928 197.65 30.8835 204.339 31.8928 207.72C32.9022 211.1 35.5837 215.782 36.2586 217.12C36.9335 218.458 37.7666 222.659 37.7666 223.498C37.7666 224.338 38.4354 234.243 37.4321 239.277C36.4289 244.312 35.2492 247.182 35.2492 252.046C35.2492 255.494 36.4289 266.712 37.116 272.805C39.0234 273.339 40.9863 273.652 42.9654 273.735C43.7427 273.729 44.5164 273.629 45.2699 273.437Z" fill="#00F5FF" stroke="#1F2A3F" stroke-width="0.873633" stroke-linecap="round" stroke-linejoin="round"/>
<path d="M37.0916 274.903C38.2128 275.344 39.4076 275.567 40.6122 275.56C42.6249 275.56 45.6469 276.058 45.4766 275.055C45.4242 273.598 45.479 272.138 45.6408 270.689C45.6408 270.689 41.95 271.194 39.7671 270.859C37.5842 270.525 36.2465 270.355 36.2465 270.355C36.2465 270.355 36.587 273.9 37.0916 274.903Z" fill="white" stroke="#1F2A3F" stroke-width="0.873633" stroke-linecap="round" stroke-linejoin="round"/>
<path d="M50.8518 157.702C49.1139 155.48 46.6963 153.889 43.9687 153.172C39.4387 151.998 35.0729 158.711 33.8994 162.402C32.7258 166.093 32.5556 175.998 30.8591 181.032C29.1627 186.067 28.0074 196.142 28.6762 197.316C29.3451 198.489 43.7862 202.18 48.8209 202.18C53.8555 202.18 59.255 198.155 59.4131 196.142C59.5712 194.13 58.574 180.704 57.7349 173.48C56.8958 166.257 50.8518 157.702 50.8518 157.702Z" fill="#1F2A3F" stroke="#1F2A3F" stroke-width="0.873633" stroke-linecap="round" stroke-linejoin="round"/>
<path d="M48.6141 213.539C48.6141 213.539 48.5594 215.867 48.6141 217.236C48.6469 218.487 48.4743 219.736 48.1034 220.933C47.8176 221.838 47.1366 222.465 47.0818 221.838C47.0271 221.212 47.3068 220.075 47.3068 219.564C47.3068 219.054 47.1366 216.725 47.1366 216.725C47.0082 217.566 46.8377 218.4 46.6258 219.224C46.2853 220.531 45.3185 221.893 44.8625 222.009C44.4064 222.124 44.1206 221.723 44.3517 221.103C44.5828 220.483 45.1482 218.671 45.203 218.257C45.2577 217.844 45.2698 216.579 45.2698 216.579C44.8396 217.879 44.3278 219.15 43.7376 220.385C43.2815 221.072 43.2268 221.413 42.7708 221.468C42.3147 221.522 42.3755 220.556 42.6552 219.82C42.9858 218.721 43.2338 217.599 43.3971 216.463C43.3971 216.238 42.8863 217.485 42.26 218.172C41.6337 218.859 41.1777 219.418 40.8919 219.309C40.6061 219.2 41.0074 218.093 41.2385 217.6C41.5064 217.003 41.6964 216.373 41.804 215.728V214.25C41.804 214.25 41.2932 213.107 43.6828 212.712C46.0725 212.316 48.1034 211.86 48.6141 213.539Z" fill="white" stroke="#1F2A3F" stroke-width="0.873633" stroke-linecap="round" stroke-linejoin="round"/>
<path d="M40.284 211.921C40.1385 212.339 40.1308 212.792 40.2621 213.215C40.3935 213.637 40.6569 214.007 41.0136 214.268C42.2662 215.107 46.7354 215.782 48.1643 214.439C48.972 213.763 49.4845 212.799 49.5932 211.751L40.284 211.921Z" fill="white" stroke="#1F2A3F" stroke-width="0.873633" stroke-linecap="round" stroke-linejoin="round"/>
<path d="M41.6216 159.714C41.6216 159.714 37.9308 165.758 37.9308 169.619C37.9308 173.48 35.9121 200.502 35.7479 203.865C35.5837 207.227 35.9121 209.903 37.9308 211.581C39.9495 213.259 48.1642 213.259 50.3471 212.42C52.53 211.581 54.5427 207.72 54.5427 205.038C54.5427 202.357 52.0254 182.54 51.5024 178.685C50.9795 174.83 50.8275 164.585 49.3195 162.238C47.8116 159.891 47.3008 159.714 47.3008 159.714" fill="#1F2A3F"/>
<path d="M41.6216 159.714C41.6216 159.714 37.9308 165.758 37.9308 169.619C37.9308 173.48 35.9121 200.502 35.7479 203.865C35.5837 207.227 35.9121 209.902 37.9308 211.581C39.9495 213.259 48.1642 213.259 50.3471 212.42C52.53 211.581 54.5427 207.72 54.5427 205.038C54.5427 202.357 52.0254 182.54 51.5024 178.685C50.9795 174.83 50.8275 164.585 49.3195 162.238C47.8116 159.891 47.3008 159.714 47.3008 159.714" stroke="#1F2A3F" stroke-width="0.873633" stroke-linecap="round" stroke-linejoin="round"/>
<path d="M36.1067 197.784C36.1067 197.784 37.1343 174.392 37.9308 169.619C38.4583 166.611 39.3846 163.687 40.6853 160.924" stroke="#636363" stroke-width="0.873633" stroke-linecap="round" stroke-linejoin="round"/>
<path d="M48.3102 161.143C48.3102 161.143 51.2106 166.719 51.3504 172.696C51.4903 178.673 53.5333 197.778 53.5333 197.778" stroke="#636363" stroke-width="0.873633" stroke-linecap="round" stroke-linejoin="round"/>
<path d="M50.6875 166.932L51.1861 163.575" stroke="#636363" stroke-width="0.873633" stroke-linecap="round" stroke-linejoin="round"/>
</svg>
