<svg width="22" height="22" viewBox="0 0 22 22" fill="none" xmlns="http://www.w3.org/2000/svg">
<g id="mail-02" clip-path="url(#clip0_3_83)">
<path id="Icon" d="M18.8233 16.5516L13.0199 11.3098M8.02771 11.3098L2.22432 16.5516M1.78748 6.94161L8.92062 11.9348C9.49824 12.3391 9.78705 12.5413 10.1012 12.6196C10.3787 12.6888 10.6689 12.6888 10.9464 12.6196C11.2606 12.5413 11.5494 12.3391 12.127 11.9348L19.2601 6.94161M5.98091 18.2988H15.0667C16.5345 18.2988 17.2685 18.2988 17.8291 18.0132C18.3222 17.7619 18.7232 17.361 18.9745 16.8678C19.2601 16.3072 19.2601 15.5732 19.2601 14.1054V8.51415C19.2601 7.04631 19.2601 6.31239 18.9745 5.75174C18.7232 5.25859 18.3222 4.85764 17.8291 4.60637C17.2685 4.32071 16.5345 4.32071 15.0667 4.32071H5.98091C4.51307 4.32071 3.77915 4.32071 3.21851 4.60637C2.72536 4.85764 2.32441 5.25859 2.07314 5.75174C1.78748 6.31239 1.78748 7.04631 1.78748 8.51415V14.1054C1.78748 15.5732 1.78748 16.3072 2.07314 16.8678C2.32441 17.361 2.72536 17.7619 3.21851 18.0132C3.77915 18.2988 4.51307 18.2988 5.98091 18.2988Z" stroke="black" stroke-width="1.74727" stroke-linecap="round" stroke-linejoin="round"/>
</g>
<defs>
<clipPath id="clip0_3_83">
<rect width="20.9672" height="20.9672" fill="white" transform="translate(0.0402222 0.826172)"/>
</clipPath>
</defs>
</svg>
